<?xml version="1.0" encoding="utf-8" standalone="no"?>
<!DOCTYPE svg PUBLIC "-//W3C//DTD SVG 1.1//EN"
  "http://www.w3.org/Graphics/SVG/1.1/DTD/svg11.dtd">
<svg height="174.049687pt" version="1.1" viewBox="0 0 462.60125 174.049687" width="462.60125pt" xmlns="http://www.w3.org/2000/svg" xmlns:xlink="http://www.w3.org/1999/xlink">
 <metadata>
  <rdf:RDF xmlns:cc="http://creativecommons.org/ns#" xmlns:dc="http://purl.org/dc/elements/1.1/" xmlns:rdf="http://www.w3.org/1999/02/22-rdf-syntax-ns#">
   <cc:Work>
    <dc:type rdf:resource="http://purl.org/dc/dcmitype/StillImage"/>
    <dc:date>2021-11-15T10:09:15.690526</dc:date>
    <dc:format>image/svg+xml</dc:format>
    <dc:creator>
     <cc:Agent>
      <dc:title>Matplotlib v3.4.2, https://matplotlib.org/</dc:title>
     </cc:Agent>
    </dc:creator>
   </cc:Work>
  </rdf:RDF>
 </metadata>
 <defs>
  <style type="text/css">*{stroke-linecap:butt;stroke-linejoin:round;}</style>
 </defs>
 <g id="figure_1">
  <g id="patch_1">
   <path d="M 0 174.049687 
L 462.60125 174.049687 
L 462.60125 0 
L 0 0 
z
" style="fill:#ffffff;"/>
  </g>
  <g id="axes_1">
   <g id="patch_2">
    <path d="M 38.70625 137.32 
L 351.30375 137.32 
L 351.30375 7.2 
L 38.70625 7.2 
z
" style="fill:#ffffff;"/>
   </g>
   <g id="matplotlib.axis_1">
    <g id="xtick_1">
     <g id="line2d_1">
      <defs>
       <path d="M 0 0 
L 0 3.5 
" id="m0ea5783283" style="stroke:#262626;stroke-width:0.8;"/>
      </defs>
      <g>
       <use style="fill:#262626;stroke:#262626;stroke-width:0.8;" x="52.915227" xlink:href="#m0ea5783283" y="137.32"/>
      </g>
     </g>
     <g id="text_1">
      <!-- 0 -->
      <g style="fill:#262626;" transform="translate(50.134759 151.477812)scale(0.1 -0.1)">
       <defs>
        <path d="M 266 2259 
Q 266 3072 433 3567 
Q 600 4063 929 4331 
Q 1259 4600 1759 4600 
Q 2128 4600 2406 4451 
Q 2684 4303 2865 4023 
Q 3047 3744 3150 3342 
Q 3253 2941 3253 2259 
Q 3253 1453 3087 958 
Q 2922 463 2592 192 
Q 2263 -78 1759 -78 
Q 1097 -78 719 397 
Q 266 969 266 2259 
z
M 844 2259 
Q 844 1131 1108 757 
Q 1372 384 1759 384 
Q 2147 384 2411 759 
Q 2675 1134 2675 2259 
Q 2675 3391 2411 3762 
Q 2147 4134 1753 4134 
Q 1366 4134 1134 3806 
Q 844 3388 844 2259 
z
" id="ArialMT-30" transform="scale(0.015625)"/>
       </defs>
       <use xlink:href="#ArialMT-30"/>
      </g>
     </g>
    </g>
    <g id="xtick_2">
     <g id="line2d_2">
      <g>
       <use style="fill:#262626;stroke:#262626;stroke-width:0.8;" x="119.781003" xlink:href="#m0ea5783283" y="137.32"/>
      </g>
     </g>
     <g id="text_2">
      <!-- 2 -->
      <g style="fill:#262626;" transform="translate(117.000534 151.477812)scale(0.1 -0.1)">
       <defs>
        <path d="M 3222 541 
L 3222 0 
L 194 0 
Q 188 203 259 391 
Q 375 700 629 1000 
Q 884 1300 1366 1694 
Q 2113 2306 2375 2664 
Q 2638 3022 2638 3341 
Q 2638 3675 2398 3904 
Q 2159 4134 1775 4134 
Q 1369 4134 1125 3890 
Q 881 3647 878 3216 
L 300 3275 
Q 359 3922 746 4261 
Q 1134 4600 1788 4600 
Q 2447 4600 2831 4234 
Q 3216 3869 3216 3328 
Q 3216 3053 3103 2787 
Q 2991 2522 2730 2228 
Q 2469 1934 1863 1422 
Q 1356 997 1212 845 
Q 1069 694 975 541 
L 3222 541 
z
" id="ArialMT-32" transform="scale(0.015625)"/>
       </defs>
       <use xlink:href="#ArialMT-32"/>
      </g>
     </g>
    </g>
    <g id="xtick_3">
     <g id="line2d_3">
      <g>
       <use style="fill:#262626;stroke:#262626;stroke-width:0.8;" x="186.646778" xlink:href="#m0ea5783283" y="137.32"/>
      </g>
     </g>
     <g id="text_3">
      <!-- 4 -->
      <g style="fill:#262626;" transform="translate(183.866309 151.477812)scale(0.1 -0.1)">
       <defs>
        <path d="M 2069 0 
L 2069 1097 
L 81 1097 
L 81 1613 
L 2172 4581 
L 2631 4581 
L 2631 1613 
L 3250 1613 
L 3250 1097 
L 2631 1097 
L 2631 0 
L 2069 0 
z
M 2069 1613 
L 2069 3678 
L 634 1613 
L 2069 1613 
z
" id="ArialMT-34" transform="scale(0.015625)"/>
       </defs>
       <use xlink:href="#ArialMT-34"/>
      </g>
     </g>
    </g>
    <g id="xtick_4">
     <g id="line2d_4">
      <g>
       <use style="fill:#262626;stroke:#262626;stroke-width:0.8;" x="253.512553" xlink:href="#m0ea5783283" y="137.32"/>
      </g>
     </g>
     <g id="text_4">
      <!-- 6 -->
      <g style="fill:#262626;" transform="translate(250.732085 151.477812)scale(0.1 -0.1)">
       <defs>
        <path d="M 3184 3459 
L 2625 3416 
Q 2550 3747 2413 3897 
Q 2184 4138 1850 4138 
Q 1581 4138 1378 3988 
Q 1113 3794 959 3422 
Q 806 3050 800 2363 
Q 1003 2672 1297 2822 
Q 1591 2972 1913 2972 
Q 2475 2972 2870 2558 
Q 3266 2144 3266 1488 
Q 3266 1056 3080 686 
Q 2894 316 2569 119 
Q 2244 -78 1831 -78 
Q 1128 -78 684 439 
Q 241 956 241 2144 
Q 241 3472 731 4075 
Q 1159 4600 1884 4600 
Q 2425 4600 2770 4297 
Q 3116 3994 3184 3459 
z
M 888 1484 
Q 888 1194 1011 928 
Q 1134 663 1356 523 
Q 1578 384 1822 384 
Q 2178 384 2434 671 
Q 2691 959 2691 1453 
Q 2691 1928 2437 2201 
Q 2184 2475 1800 2475 
Q 1419 2475 1153 2201 
Q 888 1928 888 1484 
z
" id="ArialMT-36" transform="scale(0.015625)"/>
       </defs>
       <use xlink:href="#ArialMT-36"/>
      </g>
     </g>
    </g>
    <g id="xtick_5">
     <g id="line2d_5">
      <g>
       <use style="fill:#262626;stroke:#262626;stroke-width:0.8;" x="320.378329" xlink:href="#m0ea5783283" y="137.32"/>
      </g>
     </g>
     <g id="text_5">
      <!-- 8 -->
      <g style="fill:#262626;" transform="translate(317.59786 151.477812)scale(0.1 -0.1)">
       <defs>
        <path d="M 1131 2484 
Q 781 2613 612 2850 
Q 444 3088 444 3419 
Q 444 3919 803 4259 
Q 1163 4600 1759 4600 
Q 2359 4600 2725 4251 
Q 3091 3903 3091 3403 
Q 3091 3084 2923 2848 
Q 2756 2613 2416 2484 
Q 2838 2347 3058 2040 
Q 3278 1734 3278 1309 
Q 3278 722 2862 322 
Q 2447 -78 1769 -78 
Q 1091 -78 675 323 
Q 259 725 259 1325 
Q 259 1772 486 2073 
Q 713 2375 1131 2484 
z
M 1019 3438 
Q 1019 3113 1228 2906 
Q 1438 2700 1772 2700 
Q 2097 2700 2305 2904 
Q 2513 3109 2513 3406 
Q 2513 3716 2298 3927 
Q 2084 4138 1766 4138 
Q 1444 4138 1231 3931 
Q 1019 3725 1019 3438 
z
M 838 1322 
Q 838 1081 952 856 
Q 1066 631 1291 507 
Q 1516 384 1775 384 
Q 2178 384 2440 643 
Q 2703 903 2703 1303 
Q 2703 1709 2433 1975 
Q 2163 2241 1756 2241 
Q 1359 2241 1098 1978 
Q 838 1716 838 1322 
z
" id="ArialMT-38" transform="scale(0.015625)"/>
       </defs>
       <use xlink:href="#ArialMT-38"/>
      </g>
     </g>
    </g>
    <g id="text_6">
     <!-- Time (h) -->
     <g style="fill:#262626;" transform="translate(176.583125 164.745)scale(0.1 -0.1)">
      <defs>
       <path d="M 1659 0 
L 1659 4041 
L 150 4041 
L 150 4581 
L 3781 4581 
L 3781 4041 
L 2266 4041 
L 2266 0 
L 1659 0 
z
" id="ArialMT-54" transform="scale(0.015625)"/>
       <path d="M 425 3934 
L 425 4581 
L 988 4581 
L 988 3934 
L 425 3934 
z
M 425 0 
L 425 3319 
L 988 3319 
L 988 0 
L 425 0 
z
" id="ArialMT-69" transform="scale(0.015625)"/>
       <path d="M 422 0 
L 422 3319 
L 925 3319 
L 925 2853 
Q 1081 3097 1340 3245 
Q 1600 3394 1931 3394 
Q 2300 3394 2536 3241 
Q 2772 3088 2869 2813 
Q 3263 3394 3894 3394 
Q 4388 3394 4653 3120 
Q 4919 2847 4919 2278 
L 4919 0 
L 4359 0 
L 4359 2091 
Q 4359 2428 4304 2576 
Q 4250 2725 4106 2815 
Q 3963 2906 3769 2906 
Q 3419 2906 3187 2673 
Q 2956 2441 2956 1928 
L 2956 0 
L 2394 0 
L 2394 2156 
Q 2394 2531 2256 2718 
Q 2119 2906 1806 2906 
Q 1569 2906 1367 2781 
Q 1166 2656 1075 2415 
Q 984 2175 984 1722 
L 984 0 
L 422 0 
z
" id="ArialMT-6d" transform="scale(0.015625)"/>
       <path d="M 2694 1069 
L 3275 997 
Q 3138 488 2766 206 
Q 2394 -75 1816 -75 
Q 1088 -75 661 373 
Q 234 822 234 1631 
Q 234 2469 665 2931 
Q 1097 3394 1784 3394 
Q 2450 3394 2872 2941 
Q 3294 2488 3294 1666 
Q 3294 1616 3291 1516 
L 816 1516 
Q 847 969 1125 678 
Q 1403 388 1819 388 
Q 2128 388 2347 550 
Q 2566 713 2694 1069 
z
M 847 1978 
L 2700 1978 
Q 2663 2397 2488 2606 
Q 2219 2931 1791 2931 
Q 1403 2931 1139 2672 
Q 875 2413 847 1978 
z
" id="ArialMT-65" transform="scale(0.015625)"/>
       <path id="ArialMT-20" transform="scale(0.015625)"/>
       <path d="M 1497 -1347 
Q 1031 -759 709 28 
Q 388 816 388 1659 
Q 388 2403 628 3084 
Q 909 3875 1497 4659 
L 1900 4659 
Q 1522 4009 1400 3731 
Q 1209 3300 1100 2831 
Q 966 2247 966 1656 
Q 966 153 1900 -1347 
L 1497 -1347 
z
" id="ArialMT-28" transform="scale(0.015625)"/>
       <path d="M 422 0 
L 422 4581 
L 984 4581 
L 984 2938 
Q 1378 3394 1978 3394 
Q 2347 3394 2619 3248 
Q 2891 3103 3008 2847 
Q 3125 2591 3125 2103 
L 3125 0 
L 2563 0 
L 2563 2103 
Q 2563 2525 2380 2717 
Q 2197 2909 1863 2909 
Q 1613 2909 1392 2779 
Q 1172 2650 1078 2428 
Q 984 2206 984 1816 
L 984 0 
L 422 0 
z
" id="ArialMT-68" transform="scale(0.015625)"/>
       <path d="M 791 -1347 
L 388 -1347 
Q 1322 153 1322 1656 
Q 1322 2244 1188 2822 
Q 1081 3291 891 3722 
Q 769 4003 388 4659 
L 791 4659 
Q 1378 3875 1659 3084 
Q 1900 2403 1900 1659 
Q 1900 816 1576 28 
Q 1253 -759 791 -1347 
z
" id="ArialMT-29" transform="scale(0.015625)"/>
      </defs>
      <use xlink:href="#ArialMT-54"/>
      <use x="57.333984" xlink:href="#ArialMT-69"/>
      <use x="79.550781" xlink:href="#ArialMT-6d"/>
      <use x="162.851562" xlink:href="#ArialMT-65"/>
      <use x="218.466797" xlink:href="#ArialMT-20"/>
      <use x="246.25" xlink:href="#ArialMT-28"/>
      <use x="279.550781" xlink:href="#ArialMT-68"/>
      <use x="335.166016" xlink:href="#ArialMT-29"/>
     </g>
    </g>
   </g>
   <g id="matplotlib.axis_2">
    <g id="ytick_1">
     <g id="line2d_6">
      <defs>
       <path d="M 0 0 
L -3.5 0 
" id="m075fd7f5b3" style="stroke:#262626;stroke-width:0.8;"/>
      </defs>
      <g>
       <use style="fill:#262626;stroke:#262626;stroke-width:0.8;" x="38.70625" xlink:href="#m075fd7f5b3" y="131.405455"/>
      </g>
     </g>
     <g id="text_7">
      <!-- 0 -->
      <g style="fill:#262626;" transform="translate(26.145313 134.984361)scale(0.1 -0.1)">
       <use xlink:href="#ArialMT-30"/>
      </g>
     </g>
    </g>
    <g id="ytick_2">
     <g id="line2d_7">
      <g>
       <use style="fill:#262626;stroke:#262626;stroke-width:0.8;" x="38.70625" xlink:href="#m075fd7f5b3" y="108.521797"/>
      </g>
     </g>
     <g id="text_8">
      <!-- 5 -->
      <g style="fill:#262626;" transform="translate(26.145313 112.100703)scale(0.1 -0.1)">
       <defs>
        <path d="M 266 1200 
L 856 1250 
Q 922 819 1161 601 
Q 1400 384 1738 384 
Q 2144 384 2425 690 
Q 2706 997 2706 1503 
Q 2706 1984 2436 2262 
Q 2166 2541 1728 2541 
Q 1456 2541 1237 2417 
Q 1019 2294 894 2097 
L 366 2166 
L 809 4519 
L 3088 4519 
L 3088 3981 
L 1259 3981 
L 1013 2750 
Q 1425 3038 1878 3038 
Q 2478 3038 2890 2622 
Q 3303 2206 3303 1553 
Q 3303 931 2941 478 
Q 2500 -78 1738 -78 
Q 1113 -78 717 272 
Q 322 622 266 1200 
z
" id="ArialMT-35" transform="scale(0.015625)"/>
       </defs>
       <use xlink:href="#ArialMT-35"/>
      </g>
     </g>
    </g>
    <g id="ytick_3">
     <g id="line2d_8">
      <g>
       <use style="fill:#262626;stroke:#262626;stroke-width:0.8;" x="38.70625" xlink:href="#m075fd7f5b3" y="85.638139"/>
      </g>
     </g>
     <g id="text_9">
      <!-- 10 -->
      <g style="fill:#262626;" transform="translate(20.584375 89.217045)scale(0.1 -0.1)">
       <defs>
        <path d="M 2384 0 
L 1822 0 
L 1822 3584 
Q 1619 3391 1289 3197 
Q 959 3003 697 2906 
L 697 3450 
Q 1169 3672 1522 3987 
Q 1875 4303 2022 4600 
L 2384 4600 
L 2384 0 
z
" id="ArialMT-31" transform="scale(0.015625)"/>
       </defs>
       <use xlink:href="#ArialMT-31"/>
       <use x="55.615234" xlink:href="#ArialMT-30"/>
      </g>
     </g>
    </g>
    <g id="ytick_4">
     <g id="line2d_9">
      <g>
       <use style="fill:#262626;stroke:#262626;stroke-width:0.8;" x="38.70625" xlink:href="#m075fd7f5b3" y="62.754481"/>
      </g>
     </g>
     <g id="text_10">
      <!-- 15 -->
      <g style="fill:#262626;" transform="translate(20.584375 66.333387)scale(0.1 -0.1)">
       <use xlink:href="#ArialMT-31"/>
       <use x="55.615234" xlink:href="#ArialMT-35"/>
      </g>
     </g>
    </g>
    <g id="ytick_5">
     <g id="line2d_10">
      <g>
       <use style="fill:#262626;stroke:#262626;stroke-width:0.8;" x="38.70625" xlink:href="#m075fd7f5b3" y="39.870823"/>
      </g>
     </g>
     <g id="text_11">
      <!-- 20 -->
      <g style="fill:#262626;" transform="translate(20.584375 43.449729)scale(0.1 -0.1)">
       <use xlink:href="#ArialMT-32"/>
       <use x="55.615234" xlink:href="#ArialMT-30"/>
      </g>
     </g>
    </g>
    <g id="ytick_6">
     <g id="line2d_11">
      <g>
       <use style="fill:#262626;stroke:#262626;stroke-width:0.8;" x="38.70625" xlink:href="#m075fd7f5b3" y="16.987165"/>
      </g>
     </g>
     <g id="text_12">
      <!-- 25 -->
      <g style="fill:#262626;" transform="translate(20.584375 20.566071)scale(0.1 -0.1)">
       <use xlink:href="#ArialMT-32"/>
       <use x="55.615234" xlink:href="#ArialMT-35"/>
      </g>
     </g>
    </g>
    <g id="text_13">
     <!-- Concentration (mM) -->
     <g style="fill:#262626;" transform="translate(14.479687 116.436562)rotate(-90)scale(0.1 -0.1)">
      <defs>
       <path d="M 3763 1606 
L 4369 1453 
Q 4178 706 3683 314 
Q 3188 -78 2472 -78 
Q 1731 -78 1267 223 
Q 803 525 561 1097 
Q 319 1669 319 2325 
Q 319 3041 592 3573 
Q 866 4106 1370 4382 
Q 1875 4659 2481 4659 
Q 3169 4659 3637 4309 
Q 4106 3959 4291 3325 
L 3694 3184 
Q 3534 3684 3231 3912 
Q 2928 4141 2469 4141 
Q 1941 4141 1586 3887 
Q 1231 3634 1087 3207 
Q 944 2781 944 2328 
Q 944 1744 1114 1308 
Q 1284 872 1643 656 
Q 2003 441 2422 441 
Q 2931 441 3284 734 
Q 3638 1028 3763 1606 
z
" id="ArialMT-43" transform="scale(0.015625)"/>
       <path d="M 213 1659 
Q 213 2581 725 3025 
Q 1153 3394 1769 3394 
Q 2453 3394 2887 2945 
Q 3322 2497 3322 1706 
Q 3322 1066 3130 698 
Q 2938 331 2570 128 
Q 2203 -75 1769 -75 
Q 1072 -75 642 372 
Q 213 819 213 1659 
z
M 791 1659 
Q 791 1022 1069 705 
Q 1347 388 1769 388 
Q 2188 388 2466 706 
Q 2744 1025 2744 1678 
Q 2744 2294 2464 2611 
Q 2184 2928 1769 2928 
Q 1347 2928 1069 2612 
Q 791 2297 791 1659 
z
" id="ArialMT-6f" transform="scale(0.015625)"/>
       <path d="M 422 0 
L 422 3319 
L 928 3319 
L 928 2847 
Q 1294 3394 1984 3394 
Q 2284 3394 2536 3286 
Q 2788 3178 2913 3003 
Q 3038 2828 3088 2588 
Q 3119 2431 3119 2041 
L 3119 0 
L 2556 0 
L 2556 2019 
Q 2556 2363 2490 2533 
Q 2425 2703 2258 2804 
Q 2091 2906 1866 2906 
Q 1506 2906 1245 2678 
Q 984 2450 984 1813 
L 984 0 
L 422 0 
z
" id="ArialMT-6e" transform="scale(0.015625)"/>
       <path d="M 2588 1216 
L 3141 1144 
Q 3050 572 2676 248 
Q 2303 -75 1759 -75 
Q 1078 -75 664 370 
Q 250 816 250 1647 
Q 250 2184 428 2587 
Q 606 2991 970 3192 
Q 1334 3394 1763 3394 
Q 2303 3394 2647 3120 
Q 2991 2847 3088 2344 
L 2541 2259 
Q 2463 2594 2264 2762 
Q 2066 2931 1784 2931 
Q 1359 2931 1093 2626 
Q 828 2322 828 1663 
Q 828 994 1084 691 
Q 1341 388 1753 388 
Q 2084 388 2306 591 
Q 2528 794 2588 1216 
z
" id="ArialMT-63" transform="scale(0.015625)"/>
       <path d="M 1650 503 
L 1731 6 
Q 1494 -44 1306 -44 
Q 1000 -44 831 53 
Q 663 150 594 308 
Q 525 466 525 972 
L 525 2881 
L 113 2881 
L 113 3319 
L 525 3319 
L 525 4141 
L 1084 4478 
L 1084 3319 
L 1650 3319 
L 1650 2881 
L 1084 2881 
L 1084 941 
Q 1084 700 1114 631 
Q 1144 563 1211 522 
Q 1278 481 1403 481 
Q 1497 481 1650 503 
z
" id="ArialMT-74" transform="scale(0.015625)"/>
       <path d="M 416 0 
L 416 3319 
L 922 3319 
L 922 2816 
Q 1116 3169 1280 3281 
Q 1444 3394 1641 3394 
Q 1925 3394 2219 3213 
L 2025 2691 
Q 1819 2813 1613 2813 
Q 1428 2813 1281 2702 
Q 1134 2591 1072 2394 
Q 978 2094 978 1738 
L 978 0 
L 416 0 
z
" id="ArialMT-72" transform="scale(0.015625)"/>
       <path d="M 2588 409 
Q 2275 144 1986 34 
Q 1697 -75 1366 -75 
Q 819 -75 525 192 
Q 231 459 231 875 
Q 231 1119 342 1320 
Q 453 1522 633 1644 
Q 813 1766 1038 1828 
Q 1203 1872 1538 1913 
Q 2219 1994 2541 2106 
Q 2544 2222 2544 2253 
Q 2544 2597 2384 2738 
Q 2169 2928 1744 2928 
Q 1347 2928 1158 2789 
Q 969 2650 878 2297 
L 328 2372 
Q 403 2725 575 2942 
Q 747 3159 1072 3276 
Q 1397 3394 1825 3394 
Q 2250 3394 2515 3294 
Q 2781 3194 2906 3042 
Q 3031 2891 3081 2659 
Q 3109 2516 3109 2141 
L 3109 1391 
Q 3109 606 3145 398 
Q 3181 191 3288 0 
L 2700 0 
Q 2613 175 2588 409 
z
M 2541 1666 
Q 2234 1541 1622 1453 
Q 1275 1403 1131 1340 
Q 988 1278 909 1158 
Q 831 1038 831 891 
Q 831 666 1001 516 
Q 1172 366 1500 366 
Q 1825 366 2078 508 
Q 2331 650 2450 897 
Q 2541 1088 2541 1459 
L 2541 1666 
z
" id="ArialMT-61" transform="scale(0.015625)"/>
       <path d="M 475 0 
L 475 4581 
L 1388 4581 
L 2472 1338 
Q 2622 884 2691 659 
Q 2769 909 2934 1394 
L 4031 4581 
L 4847 4581 
L 4847 0 
L 4263 0 
L 4263 3834 
L 2931 0 
L 2384 0 
L 1059 3900 
L 1059 0 
L 475 0 
z
" id="ArialMT-4d" transform="scale(0.015625)"/>
      </defs>
      <use xlink:href="#ArialMT-43"/>
      <use x="72.216797" xlink:href="#ArialMT-6f"/>
      <use x="127.832031" xlink:href="#ArialMT-6e"/>
      <use x="183.447266" xlink:href="#ArialMT-63"/>
      <use x="233.447266" xlink:href="#ArialMT-65"/>
      <use x="289.0625" xlink:href="#ArialMT-6e"/>
      <use x="344.677734" xlink:href="#ArialMT-74"/>
      <use x="372.460938" xlink:href="#ArialMT-72"/>
      <use x="405.761719" xlink:href="#ArialMT-61"/>
      <use x="461.376953" xlink:href="#ArialMT-74"/>
      <use x="489.160156" xlink:href="#ArialMT-69"/>
      <use x="511.376953" xlink:href="#ArialMT-6f"/>
      <use x="566.992188" xlink:href="#ArialMT-6e"/>
      <use x="622.607422" xlink:href="#ArialMT-20"/>
      <use x="650.390625" xlink:href="#ArialMT-28"/>
      <use x="683.691406" xlink:href="#ArialMT-6d"/>
      <use x="766.992188" xlink:href="#ArialMT-4d"/>
      <use x="850.292969" xlink:href="#ArialMT-29"/>
     </g>
    </g>
   </g>
   <g id="line2d_12">
    <path clip-path="url(#p47e32bae02)" d="M 52.915227 13.114545 
L 56.258516 13.929636 
L 59.601805 14.758455 
L 62.945094 15.602032 
L 66.288382 16.461425 
L 69.631671 17.33771 
L 72.97496 18.231989 
L 76.318249 19.145384 
L 79.661537 20.079038 
L 83.004826 21.034115 
L 86.348115 22.011798 
L 89.691404 23.013287 
L 93.034693 24.0398 
L 96.377981 25.092567 
L 99.72127 26.172834 
L 103.064559 27.281855 
L 106.407848 28.420894 
L 109.751136 29.591217 
L 113.094425 30.794094 
L 116.437714 32.030792 
L 119.781003 33.302571 
L 123.124291 34.61068 
L 126.46758 35.95635 
L 129.810869 37.34079 
L 133.154158 38.765178 
L 136.497447 40.230653 
L 139.840735 41.738311 
L 143.184024 43.289187 
L 146.527313 44.884253 
L 149.870602 46.524401 
L 153.21389 48.210429 
L 156.557179 49.943033 
L 159.900468 51.722784 
L 163.243757 53.550117 
L 166.587045 55.425307 
L 169.930334 57.348455 
L 173.273623 59.31946 
L 176.616912 61.338003 
L 179.960201 63.403517 
L 183.303489 65.515167 
L 186.646778 67.671819 
L 189.990067 69.872019 
L 193.333356 72.113964 
L 196.676644 74.395477 
L 200.019933 76.713989 
L 203.363222 79.066515 
L 206.706511 81.449645 
L 210.049799 83.859542 
L 213.393088 86.29194 
L 216.736377 88.742181 
L 220.079666 91.205248 
L 223.422955 93.675843 
L 226.766243 96.148501 
L 230.109532 98.617747 
L 233.452821 101.078331 
L 236.79611 103.525558 
L 240.139398 105.955757 
L 243.482687 108.366971 
L 246.825976 110.760006 
L 250.169265 113.140114 
L 253.512553 115.519961 
L 256.855842 117.925469 
L 260.199131 120.286656 
L 263.54242 122.381683 
L 266.885709 124.269607 
L 270.228997 126.014685 
L 273.572286 127.674387 
L 276.915575 129.301545 
L 280.258864 130.941926 
L 283.602152 131.405455 
L 286.945441 131.405455 
L 290.28873 131.405455 
L 293.632019 131.405455 
L 296.975307 131.405455 
L 300.318596 131.405455 
L 303.661885 131.405455 
L 307.005174 131.405455 
L 310.348463 131.405455 
L 313.691751 131.405455 
L 317.03504 131.405455 
L 320.378329 131.405455 
L 323.721618 131.405455 
L 327.064906 131.405455 
L 330.408195 131.405455 
L 333.751484 131.405455 
L 337.094773 131.405455 
" style="fill:none;stroke:#1f77b4;stroke-linecap:round;"/>
   </g>
   <g id="line2d_13">
    <defs>
     <path d="M 0 -3 
L -0.673542 -0.927051 
L -2.85317 -0.927051 
L -1.089814 0.354102 
L -1.763356 2.427051 
L -0 1.145898 
L 1.763356 2.427051 
L 1.089814 0.354102 
L 2.85317 -0.927051 
L 0.673542 -0.927051 
z
" id="m9fde4404a0" style="stroke:#1f77b4;stroke-linejoin:bevel;stroke-opacity:0.8;"/>
    </defs>
    <g clip-path="url(#p47e32bae02)">
     <use style="fill:#1f77b4;fill-opacity:0.8;stroke:#1f77b4;stroke-linejoin:bevel;stroke-opacity:0.8;" x="52.915227" xlink:href="#m9fde4404a0" y="13.114545"/>
     <use style="fill:#1f77b4;fill-opacity:0.8;stroke:#1f77b4;stroke-linejoin:bevel;stroke-opacity:0.8;" x="132.529517" xlink:href="#m9fde4404a0" y="37.054372"/>
     <use style="fill:#1f77b4;fill-opacity:0.8;stroke:#1f77b4;stroke-linejoin:bevel;stroke-opacity:0.8;" x="212.37241" xlink:href="#m9fde4404a0" y="93.383377"/>
     <use style="fill:#1f77b4;fill-opacity:0.8;stroke:#1f77b4;stroke-linejoin:bevel;stroke-opacity:0.8;" x="256.667384" xlink:href="#m9fde4404a0" y="115.914978"/>
     <use style="fill:#1f77b4;fill-opacity:0.8;stroke:#1f77b4;stroke-linejoin:bevel;stroke-opacity:0.8;" x="291.378181" xlink:href="#m9fde4404a0" y="131.359687"/>
     <use style="fill:#1f77b4;fill-opacity:0.8;stroke:#1f77b4;stroke-linejoin:bevel;stroke-opacity:0.8;" x="337.094773" xlink:href="#m9fde4404a0" y="131.359687"/>
    </g>
   </g>
   <g id="line2d_14">
    <path clip-path="url(#p47e32bae02)" d="M 52.915227 125.004321 
L 56.258516 124.289264 
L 59.601805 123.562379 
L 62.945094 122.822767 
L 66.288382 122.069514 
L 69.631671 121.301681 
L 72.97496 120.518312 
L 76.318249 119.718431 
L 79.661537 118.901045 
L 83.004826 118.065142 
L 86.348115 117.209692 
L 89.691404 116.333653 
L 93.034693 115.435964 
L 96.377981 114.515556 
L 99.72127 113.571344 
L 103.064559 112.602238 
L 106.407848 111.607138 
L 109.751136 110.584941 
L 113.094425 109.534542 
L 116.437714 108.454838 
L 119.781003 107.344732 
L 123.124291 106.203137 
L 126.46758 105.028979 
L 129.810869 103.821206 
L 133.154158 102.57879 
L 136.497447 101.300737 
L 139.840735 99.986092 
L 143.184024 98.633951 
L 146.527313 97.243464 
L 149.870602 95.813851 
L 153.21389 94.344411 
L 156.557179 92.834534 
L 159.900468 91.283715 
L 163.243757 89.691569 
L 166.587045 88.057846 
L 169.930334 86.382448 
L 173.273623 84.665451 
L 176.616912 82.907118 
L 179.960201 81.107927 
L 183.303489 79.268586 
L 186.646778 77.390059 
L 189.990067 75.47359 
L 193.333356 73.520718 
L 196.676644 71.533306 
L 200.019933 69.513554 
L 203.363222 67.464017 
L 206.706511 65.387613 
L 210.049799 63.287627 
L 213.393088 61.167705 
L 216.736377 59.031828 
L 220.079666 56.884273 
L 223.422955 54.729546 
L 226.766243 52.572284 
L 230.109532 50.417104 
L 233.452821 48.268399 
L 236.79611 46.130039 
L 240.139398 44.00495 
L 243.482687 41.894492 
L 246.825976 39.797513 
L 250.169265 37.708833 
L 253.512553 35.616557 
L 256.855842 33.496802 
L 260.199131 31.410071 
L 263.54242 29.552409 
L 266.885709 27.872631 
L 270.228997 26.314818 
L 273.572286 24.828928 
L 276.915575 23.368934 
L 280.258864 21.895119 
L 283.602152 21.47851 
L 286.945441 21.47851 
L 290.28873 21.47851 
L 293.632019 21.47851 
L 296.975307 21.47851 
L 300.318596 21.47851 
L 303.661885 21.47851 
L 307.005174 21.47851 
L 310.348463 21.47851 
L 313.691751 21.47851 
L 317.03504 21.47851 
L 320.378329 21.47851 
L 323.721618 21.47851 
L 327.064906 21.47851 
L 330.408195 21.47851 
L 333.751484 21.47851 
L 337.094773 21.47851 
" style="fill:none;stroke:#2ca02c;stroke-linecap:round;"/>
   </g>
   <g id="line2d_15">
    <defs>
     <path d="M 0 -3 
L -0.673542 -0.927051 
L -2.85317 -0.927051 
L -1.089814 0.354102 
L -1.763356 2.427051 
L -0 1.145898 
L 1.763356 2.427051 
L 1.089814 0.354102 
L 2.85317 -0.927051 
L 0.673542 -0.927051 
z
" id="mc04fc1f381" style="stroke:#2ca02c;stroke-linejoin:bevel;stroke-opacity:0.8;"/>
    </defs>
    <g clip-path="url(#p47e32bae02)">
     <use style="fill:#2ca02c;fill-opacity:0.8;stroke:#2ca02c;stroke-linejoin:bevel;stroke-opacity:0.8;" x="52.915227" xlink:href="#mc04fc1f381" y="125.004321"/>
     <use style="fill:#2ca02c;fill-opacity:0.8;stroke:#2ca02c;stroke-linejoin:bevel;stroke-opacity:0.8;" x="132.529517" xlink:href="#mc04fc1f381" y="110.928119"/>
     <use style="fill:#2ca02c;fill-opacity:0.8;stroke:#2ca02c;stroke-linejoin:bevel;stroke-opacity:0.8;" x="212.37241" xlink:href="#mc04fc1f381" y="80.872676"/>
     <use style="fill:#2ca02c;fill-opacity:0.8;stroke:#2ca02c;stroke-linejoin:bevel;stroke-opacity:0.8;" x="256.667384" xlink:href="#mc04fc1f381" y="62.639145"/>
     <use style="fill:#2ca02c;fill-opacity:0.8;stroke:#2ca02c;stroke-linejoin:bevel;stroke-opacity:0.8;" x="291.378181" xlink:href="#mc04fc1f381" y="39.12114"/>
     <use style="fill:#2ca02c;fill-opacity:0.8;stroke:#2ca02c;stroke-linejoin:bevel;stroke-opacity:0.8;" x="337.094773" xlink:href="#mc04fc1f381" y="41.097575"/>
    </g>
   </g>
   <g id="line2d_16">
    <path clip-path="url(#p47e32bae02)" d="M 52.915227 128.252743 
L 56.258516 127.121959 
L 59.601805 125.987685 
L 62.945094 124.852421 
L 66.288382 123.717897 
L 69.631671 122.585054 
L 72.97496 121.454077 
L 76.318249 120.324465 
L 79.661537 119.195132 
L 83.004826 118.064506 
L 86.348115 116.930629 
L 89.691404 115.791249 
L 93.034693 114.643895 
L 96.377981 113.485948 
L 99.72127 112.314686 
L 103.064559 111.127332 
L 106.407848 109.921086 
L 109.751136 108.69315 
L 113.094425 107.44075 
L 116.437714 106.161155 
L 119.781003 104.851689 
L 123.124291 103.509745 
L 126.46758 102.1328 
L 129.810869 100.718425 
L 133.154158 99.264299 
L 136.497447 97.76822 
L 139.840735 96.228123 
L 143.184024 94.642097 
L 146.527313 93.008397 
L 149.870602 91.32547 
L 153.21389 89.591971 
L 156.557179 87.806793 
L 159.900468 85.969087 
L 163.243757 84.078292 
L 166.587045 82.13417 
L 169.930334 80.136833 
L 173.273623 78.086785 
L 176.616912 75.984955 
L 179.960201 73.832744 
L 183.303489 71.632065 
L 186.646778 69.385386 
L 189.990067 67.095783 
L 193.333356 64.766982 
L 196.676644 62.403405 
L 200.019933 60.010219 
L 203.363222 57.593376 
L 206.706511 55.159642 
L 210.049799 52.716628 
L 213.393088 50.272803 
L 216.736377 47.837479 
L 220.079666 45.420789 
L 223.422955 43.033617 
L 226.766243 40.687494 
L 230.109532 38.394434 
L 233.452821 36.166699 
L 236.79611 34.016467 
L 240.139398 31.955359 
L 243.482687 29.993771 
L 246.825976 28.139878 
L 250.169265 26.398075 
L 253.512553 24.766288 
L 256.855842 23.230709 
L 260.199131 21.90917 
L 263.54242 21.089701 
L 266.885709 20.675799 
L 270.228997 20.5669 
L 273.572286 20.673772 
L 276.915575 20.914807 
L 280.258864 21.216403 
L 283.602152 22.740595 
L 286.945441 24.761674 
L 290.28873 26.815346 
L 293.632019 28.901025 
L 296.975307 31.018085 
L 300.318596 33.16586 
L 303.661885 35.343633 
L 307.005174 37.55064 
L 310.348463 39.786055 
L 313.691751 42.048989 
L 317.03504 44.338475 
L 320.378329 46.653461 
L 323.721618 48.992801 
L 327.064906 51.355236 
L 330.408195 53.739387 
L 333.751484 56.143731 
L 337.094773 58.566581 
" style="fill:none;stroke:#d62728;stroke-linecap:round;"/>
   </g>
   <g id="line2d_17">
    <defs>
     <path d="M 0 -3 
L -0.673542 -0.927051 
L -2.85317 -0.927051 
L -1.089814 0.354102 
L -1.763356 2.427051 
L -0 1.145898 
L 1.763356 2.427051 
L 1.089814 0.354102 
L 2.85317 -0.927051 
L 0.673542 -0.927051 
z
" id="me57996d560" style="stroke:#d62728;stroke-linejoin:bevel;stroke-opacity:0.8;"/>
    </defs>
    <g clip-path="url(#p47e32bae02)">
     <use style="fill:#d62728;fill-opacity:0.8;stroke:#d62728;stroke-linejoin:bevel;stroke-opacity:0.8;" x="52.915227" xlink:href="#me57996d560" y="128.252743"/>
     <use style="fill:#d62728;fill-opacity:0.8;stroke:#d62728;stroke-linejoin:bevel;stroke-opacity:0.8;" x="132.529517" xlink:href="#me57996d560" y="102.630585"/>
     <use style="fill:#d62728;fill-opacity:0.8;stroke:#d62728;stroke-linejoin:bevel;stroke-opacity:0.8;" x="212.37241" xlink:href="#me57996d560" y="45.426347"/>
     <use style="fill:#d62728;fill-opacity:0.8;stroke:#d62728;stroke-linejoin:bevel;stroke-opacity:0.8;" x="256.667384" xlink:href="#me57996d560" y="24.696191"/>
     <use style="fill:#d62728;fill-opacity:0.8;stroke:#d62728;stroke-linejoin:bevel;stroke-opacity:0.8;" x="291.378181" xlink:href="#me57996d560" y="26.109611"/>
     <use style="fill:#d62728;fill-opacity:0.8;stroke:#d62728;stroke-linejoin:bevel;stroke-opacity:0.8;" x="337.094773" xlink:href="#me57996d560" y="51.134993"/>
    </g>
   </g>
   <g id="line2d_18">
    <path clip-path="url(#p47e32bae02)" d="M 52.915227 129.041284 
L 56.258516 128.594639 
L 59.601805 128.136036 
L 62.945094 127.664725 
L 66.288382 127.179943 
L 69.631671 126.680912 
L 72.97496 126.166844 
L 76.318249 125.636938 
L 79.661537 125.090381 
L 83.004826 124.526347 
L 86.348115 123.944 
L 89.691404 123.342495 
L 93.034693 122.720977 
L 96.377981 122.078583 
L 99.72127 121.414443 
L 103.064559 120.727683 
L 106.407848 120.017427 
L 109.751136 119.282797 
L 113.094425 118.522918 
L 116.437714 117.736922 
L 119.781003 116.923946 
L 123.124291 116.083143 
L 126.46758 115.213681 
L 129.810869 114.314754 
L 133.154158 113.385578 
L 136.497447 112.42541 
L 139.840735 111.433543 
L 143.184024 110.409322 
L 146.527313 109.352151 
L 149.870602 108.2615 
L 153.21389 107.13692 
L 156.557179 105.978051 
L 159.900468 104.78464 
L 163.243757 103.556551 
L 166.587045 102.293782 
L 169.930334 100.996487 
L 173.273623 99.664986 
L 176.616912 98.299795 
L 179.960201 96.901641 
L 183.303489 95.471488 
L 186.646778 94.010562 
L 189.990067 92.520378 
L 193.333356 91.002763 
L 196.676644 89.459891 
L 200.019933 87.894306 
L 203.363222 86.308952 
L 206.706511 84.707199 
L 210.049799 83.092873 
L 213.393088 81.470272 
L 216.736377 79.844191 
L 220.079666 78.219929 
L 223.422955 76.603301 
L 226.766243 75.000631 
L 230.109532 73.418741 
L 233.452821 71.864927 
L 236.79611 70.346926 
L 240.139398 68.872871 
L 243.482687 67.451244 
L 246.825976 66.090826 
L 250.169265 64.800659 
L 253.512553 63.59003 
L 256.855842 62.468478 
L 260.199131 61.492812 
L 263.54242 60.754876 
L 266.885709 60.209378 
L 270.228997 59.811674 
L 273.572286 59.52254 
L 276.915575 59.306314 
L 280.258864 59.128965 
L 283.602152 59.081925 
L 286.945441 59.081925 
L 290.28873 59.081925 
L 293.632019 59.081925 
L 296.975307 59.081925 
L 300.318596 59.081925 
L 303.661885 59.081925 
L 307.005174 59.081925 
L 310.348463 59.081925 
L 313.691751 59.081925 
L 317.03504 59.081925 
L 320.378329 59.081925 
L 323.721618 59.081925 
L 327.064906 59.081925 
L 330.408195 59.081925 
L 333.751484 59.081925 
L 337.094773 59.081925 
" style="fill:none;stroke:#9467bd;stroke-linecap:round;"/>
   </g>
   <g id="line2d_19">
    <defs>
     <path d="M 0 -3 
L -0.673542 -0.927051 
L -2.85317 -0.927051 
L -1.089814 0.354102 
L -1.763356 2.427051 
L -0 1.145898 
L 1.763356 2.427051 
L 1.089814 0.354102 
L 2.85317 -0.927051 
L 0.673542 -0.927051 
z
" id="m20b818fd1c" style="stroke:#9467bd;stroke-linejoin:bevel;stroke-opacity:0.8;"/>
    </defs>
    <g clip-path="url(#p47e32bae02)">
     <use style="fill:#9467bd;fill-opacity:0.8;stroke:#9467bd;stroke-linejoin:bevel;stroke-opacity:0.8;" x="52.915227" xlink:href="#m20b818fd1c" y="129.041284"/>
     <use style="fill:#9467bd;fill-opacity:0.8;stroke:#9467bd;stroke-linejoin:bevel;stroke-opacity:0.8;" x="132.529517" xlink:href="#m20b818fd1c" y="115.86118"/>
     <use style="fill:#9467bd;fill-opacity:0.8;stroke:#9467bd;stroke-linejoin:bevel;stroke-opacity:0.8;" x="212.37241" xlink:href="#m20b818fd1c" y="81.554572"/>
     <use style="fill:#9467bd;fill-opacity:0.8;stroke:#9467bd;stroke-linejoin:bevel;stroke-opacity:0.8;" x="256.667384" xlink:href="#m20b818fd1c" y="61.45622"/>
     <use style="fill:#9467bd;fill-opacity:0.8;stroke:#9467bd;stroke-linejoin:bevel;stroke-opacity:0.8;" x="291.378181" xlink:href="#m20b818fd1c" y="40.207731"/>
     <use style="fill:#9467bd;fill-opacity:0.8;stroke:#9467bd;stroke-linejoin:bevel;stroke-opacity:0.8;" x="337.094773" xlink:href="#m20b818fd1c" y="40.039277"/>
    </g>
   </g>
   <g id="line2d_20">
    <path clip-path="url(#p47e32bae02)" d="M 52.915227 131.379658 
L 56.258516 131.379658 
L 59.601805 131.379658 
L 62.945094 131.379658 
L 66.288382 131.379658 
L 69.631671 131.379658 
L 72.97496 131.379658 
L 76.318249 131.379658 
L 79.661537 131.379658 
L 83.004826 131.379658 
L 86.348115 131.379658 
L 89.691404 131.379658 
L 93.034693 131.379658 
L 96.377981 131.379658 
L 99.72127 131.379658 
L 103.064559 131.379658 
L 106.407848 131.379658 
L 109.751136 131.379658 
L 113.094425 131.379658 
L 116.437714 131.379658 
L 119.781003 131.379658 
L 123.124291 131.379658 
L 126.46758 131.379658 
L 129.810869 131.379658 
L 133.154158 131.379658 
L 136.497447 131.379658 
L 139.840735 131.379658 
L 143.184024 131.379658 
L 146.527313 131.379658 
L 149.870602 131.379658 
L 153.21389 131.379658 
L 156.557179 131.379658 
L 159.900468 131.379658 
L 163.243757 131.379658 
L 166.587045 131.379658 
L 169.930334 131.379658 
L 173.273623 131.379658 
L 176.616912 131.379658 
L 179.960201 131.379658 
L 183.303489 131.379658 
L 186.646778 131.379658 
L 189.990067 131.379658 
L 193.333356 131.379658 
L 196.676644 131.379658 
L 200.019933 131.379658 
L 203.363222 131.379658 
L 206.706511 131.379658 
L 210.049799 131.379658 
L 213.393088 131.379658 
L 216.736377 131.379658 
L 220.079666 131.379658 
L 223.422955 131.379658 
L 226.766243 131.379658 
L 230.109532 131.379658 
L 233.452821 131.379658 
L 236.79611 131.379658 
L 240.139398 131.379658 
L 243.482687 131.379658 
L 246.825976 131.379658 
L 250.169265 131.379658 
L 253.512553 131.379658 
L 256.855842 131.379658 
L 260.199131 131.379658 
L 263.54242 131.379658 
L 266.885709 131.379658 
L 270.228997 131.379658 
L 273.572286 131.379658 
L 276.915575 131.379658 
L 280.258864 131.379658 
L 283.602152 131.379658 
L 286.945441 131.379658 
L 290.28873 131.379658 
L 293.632019 131.379658 
L 296.975307 131.379658 
L 300.318596 131.379658 
L 303.661885 131.379658 
L 307.005174 131.379658 
L 310.348463 131.379658 
L 313.691751 131.379658 
L 317.03504 131.379658 
L 320.378329 131.379658 
L 323.721618 131.379658 
L 327.064906 131.379658 
L 330.408195 131.379658 
L 333.751484 131.379658 
L 337.094773 131.379658 
" style="fill:none;stroke:#8c564b;stroke-linecap:round;"/>
   </g>
   <g id="line2d_21">
    <defs>
     <path d="M 0 -3 
L -0.673542 -0.927051 
L -2.85317 -0.927051 
L -1.089814 0.354102 
L -1.763356 2.427051 
L -0 1.145898 
L 1.763356 2.427051 
L 1.089814 0.354102 
L 2.85317 -0.927051 
L 0.673542 -0.927051 
z
" id="m5a495fea6c" style="stroke:#8c564b;stroke-linejoin:bevel;stroke-opacity:0.8;"/>
    </defs>
    <g clip-path="url(#p47e32bae02)">
     <use style="fill:#8c564b;fill-opacity:0.8;stroke:#8c564b;stroke-linejoin:bevel;stroke-opacity:0.8;" x="52.915227" xlink:href="#m5a495fea6c" y="131.379658"/>
     <use style="fill:#8c564b;fill-opacity:0.8;stroke:#8c564b;stroke-linejoin:bevel;stroke-opacity:0.8;" x="132.529517" xlink:href="#m5a495fea6c" y="131.373617"/>
     <use style="fill:#8c564b;fill-opacity:0.8;stroke:#8c564b;stroke-linejoin:bevel;stroke-opacity:0.8;" x="212.37241" xlink:href="#m5a495fea6c" y="131.168727"/>
     <use style="fill:#8c564b;fill-opacity:0.8;stroke:#8c564b;stroke-linejoin:bevel;stroke-opacity:0.8;" x="256.667384" xlink:href="#m5a495fea6c" y="130.703278"/>
     <use style="fill:#8c564b;fill-opacity:0.8;stroke:#8c564b;stroke-linejoin:bevel;stroke-opacity:0.8;" x="291.378181" xlink:href="#m5a495fea6c" y="130.54812"/>
     <use style="fill:#8c564b;fill-opacity:0.8;stroke:#8c564b;stroke-linejoin:bevel;stroke-opacity:0.8;" x="337.094773" xlink:href="#m5a495fea6c" y="130.671693"/>
    </g>
   </g>
   <g id="line2d_22">
    <path clip-path="url(#p47e32bae02)" d="M 52.915227 131.154991 
L 56.258516 130.972323 
L 59.601805 130.791411 
L 62.945094 130.612224 
L 66.288382 130.434729 
L 69.631671 130.258886 
L 72.97496 130.08465 
L 76.318249 129.911974 
L 79.661537 129.740804 
L 83.004826 129.571083 
L 86.348115 129.402752 
L 89.691404 129.235745 
L 93.034693 129.069995 
L 96.377981 128.905432 
L 99.72127 128.741979 
L 103.064559 128.579559 
L 106.407848 128.418091 
L 109.751136 128.257489 
L 113.094425 128.097665 
L 116.437714 127.938525 
L 119.781003 127.779972 
L 123.124291 127.621906 
L 126.46758 127.46422 
L 129.810869 127.306803 
L 133.154158 127.149537 
L 136.497447 126.992301 
L 139.840735 126.834963 
L 143.184024 126.677386 
L 146.527313 126.519424 
L 149.870602 126.36092 
L 153.21389 126.201707 
L 156.557179 126.041608 
L 159.900468 125.880428 
L 163.243757 125.71796 
L 166.587045 125.553976 
L 169.930334 125.388232 
L 173.273623 125.220456 
L 176.616912 125.050352 
L 179.960201 124.877591 
L 183.303489 124.70181 
L 186.646778 124.522604 
L 189.990067 124.339517 
L 193.333356 124.152036 
L 196.676644 123.959583 
L 200.019933 123.761496 
L 203.363222 123.557017 
L 206.706511 123.345274 
L 210.049799 123.125253 
L 213.393088 122.895769 
L 216.736377 122.655428 
L 220.079666 122.402572 
L 223.422955 122.135218 
L 226.766243 121.850965 
L 230.109532 121.546874 
L 233.452821 121.219308 
L 236.79611 120.863693 
L 240.139398 120.474182 
L 243.482687 120.043141 
L 246.825976 119.560343 
L 250.169265 119.011625 
L 253.512553 118.376468 
L 256.855842 117.623195 
L 260.199131 116.747378 
L 263.54242 115.831109 
L 266.885709 114.875238 
L 270.228997 113.875643 
L 273.572286 112.827868 
L 276.915575 111.727385 
L 280.258864 110.573689 
L 283.602152 110.244337 
L 286.945441 110.244337 
L 290.28873 110.244337 
L 293.632019 110.244337 
L 296.975307 110.244337 
L 300.318596 110.244337 
L 303.661885 110.244337 
L 307.005174 110.244337 
L 310.348463 110.244337 
L 313.691751 110.244337 
L 317.03504 110.244337 
L 320.378329 110.244337 
L 323.721618 110.244337 
L 327.064906 110.244337 
L 330.408195 110.244337 
L 333.751484 110.244337 
L 337.094773 110.244337 
" style="fill:none;stroke:#e377c2;stroke-linecap:round;"/>
   </g>
   <g id="line2d_23">
    <defs>
     <path d="M 0 -3 
L -0.673542 -0.927051 
L -2.85317 -0.927051 
L -1.089814 0.354102 
L -1.763356 2.427051 
L -0 1.145898 
L 1.763356 2.427051 
L 1.089814 0.354102 
L 2.85317 -0.927051 
L 0.673542 -0.927051 
z
" id="mc5967de793" style="stroke:#e377c2;stroke-linejoin:bevel;stroke-opacity:0.8;"/>
    </defs>
    <g clip-path="url(#p47e32bae02)">
     <use style="fill:#e377c2;fill-opacity:0.8;stroke:#e377c2;stroke-linejoin:bevel;stroke-opacity:0.8;" x="52.915227" xlink:href="#mc5967de793" y="131.154991"/>
     <use style="fill:#e377c2;fill-opacity:0.8;stroke:#e377c2;stroke-linejoin:bevel;stroke-opacity:0.8;" x="132.529517" xlink:href="#mc5967de793" y="130.783415"/>
     <use style="fill:#e377c2;fill-opacity:0.8;stroke:#e377c2;stroke-linejoin:bevel;stroke-opacity:0.8;" x="212.37241" xlink:href="#mc5967de793" y="126.583202"/>
     <use style="fill:#e377c2;fill-opacity:0.8;stroke:#e377c2;stroke-linejoin:bevel;stroke-opacity:0.8;" x="256.667384" xlink:href="#mc5967de793" y="123.398028"/>
     <use style="fill:#e377c2;fill-opacity:0.8;stroke:#e377c2;stroke-linejoin:bevel;stroke-opacity:0.8;" x="291.378181" xlink:href="#mc5967de793" y="118.387104"/>
     <use style="fill:#e377c2;fill-opacity:0.8;stroke:#e377c2;stroke-linejoin:bevel;stroke-opacity:0.8;" x="337.094773" xlink:href="#mc5967de793" y="118.531286"/>
    </g>
   </g>
   <g id="patch_3">
    <path d="M 38.70625 137.32 
L 38.70625 7.2 
" style="fill:none;stroke:#262626;stroke-linecap:square;stroke-linejoin:miter;stroke-width:0.8;"/>
   </g>
   <g id="patch_4">
    <path d="M 351.30375 137.32 
L 351.30375 7.2 
" style="fill:none;stroke:#262626;stroke-linecap:square;stroke-linejoin:miter;stroke-width:0.8;"/>
   </g>
   <g id="patch_5">
    <path d="M 38.70625 137.32 
L 351.30375 137.32 
" style="fill:none;stroke:#262626;stroke-linecap:square;stroke-linejoin:miter;stroke-width:0.8;"/>
   </g>
   <g id="patch_6">
    <path d="M 38.70625 7.2 
L 351.30375 7.2 
" style="fill:none;stroke:#262626;stroke-linecap:square;stroke-linejoin:miter;stroke-width:0.8;"/>
   </g>
  </g>
  <g id="axes_2">
   <g id="matplotlib.axis_3">
    <g id="ytick_7">
     <g id="line2d_24">
      <defs>
       <path d="M 0 0 
L 3.5 0 
" id="m239fd54540" style="stroke:#262626;stroke-width:0.8;"/>
      </defs>
      <g>
       <use style="fill:#262626;stroke:#262626;stroke-width:0.8;" x="351.30375" xlink:href="#m239fd54540" y="111.118138"/>
      </g>
     </g>
     <g id="text_14">
      <!-- 0.2 -->
      <g style="fill:#262626;" transform="translate(358.30375 113.981263)scale(0.08 -0.08)">
       <defs>
        <path d="M 581 0 
L 581 641 
L 1222 641 
L 1222 0 
L 581 0 
z
" id="ArialMT-2e" transform="scale(0.015625)"/>
       </defs>
       <use xlink:href="#ArialMT-30"/>
       <use x="55.615234" xlink:href="#ArialMT-2e"/>
       <use x="83.398438" xlink:href="#ArialMT-32"/>
      </g>
     </g>
    </g>
    <g id="ytick_8">
     <g id="line2d_25">
      <g>
       <use style="fill:#262626;stroke:#262626;stroke-width:0.8;" x="351.30375" xlink:href="#m239fd54540" y="76.33988"/>
      </g>
     </g>
     <g id="text_15">
      <!-- 0.4 -->
      <g style="fill:#262626;" transform="translate(358.30375 79.203005)scale(0.08 -0.08)">
       <use xlink:href="#ArialMT-30"/>
       <use x="55.615234" xlink:href="#ArialMT-2e"/>
       <use x="83.398438" xlink:href="#ArialMT-34"/>
      </g>
     </g>
    </g>
    <g id="ytick_9">
     <g id="line2d_26">
      <g>
       <use style="fill:#262626;stroke:#262626;stroke-width:0.8;" x="351.30375" xlink:href="#m239fd54540" y="41.561623"/>
      </g>
     </g>
     <g id="text_16">
      <!-- 0.6 -->
      <g style="fill:#262626;" transform="translate(358.30375 44.424748)scale(0.08 -0.08)">
       <use xlink:href="#ArialMT-30"/>
       <use x="55.615234" xlink:href="#ArialMT-2e"/>
       <use x="83.398438" xlink:href="#ArialMT-36"/>
      </g>
     </g>
    </g>
    <g id="text_17">
     <!-- Biomass (g/L) -->
     <g style="fill:#262626;" transform="translate(380.703438 103.100625)rotate(-90)scale(0.1 -0.1)">
      <defs>
       <path d="M 469 0 
L 469 4581 
L 2188 4581 
Q 2713 4581 3030 4442 
Q 3347 4303 3526 4014 
Q 3706 3725 3706 3409 
Q 3706 3116 3547 2856 
Q 3388 2597 3066 2438 
Q 3481 2316 3704 2022 
Q 3928 1728 3928 1328 
Q 3928 1006 3792 729 
Q 3656 453 3456 303 
Q 3256 153 2954 76 
Q 2653 0 2216 0 
L 469 0 
z
M 1075 2656 
L 2066 2656 
Q 2469 2656 2644 2709 
Q 2875 2778 2992 2937 
Q 3109 3097 3109 3338 
Q 3109 3566 3000 3739 
Q 2891 3913 2687 3977 
Q 2484 4041 1991 4041 
L 1075 4041 
L 1075 2656 
z
M 1075 541 
L 2216 541 
Q 2509 541 2628 563 
Q 2838 600 2978 687 
Q 3119 775 3209 942 
Q 3300 1109 3300 1328 
Q 3300 1584 3169 1773 
Q 3038 1963 2805 2039 
Q 2572 2116 2134 2116 
L 1075 2116 
L 1075 541 
z
" id="ArialMT-42" transform="scale(0.015625)"/>
       <path d="M 197 991 
L 753 1078 
Q 800 744 1014 566 
Q 1228 388 1613 388 
Q 2000 388 2187 545 
Q 2375 703 2375 916 
Q 2375 1106 2209 1216 
Q 2094 1291 1634 1406 
Q 1016 1563 777 1677 
Q 538 1791 414 1992 
Q 291 2194 291 2438 
Q 291 2659 392 2848 
Q 494 3038 669 3163 
Q 800 3259 1026 3326 
Q 1253 3394 1513 3394 
Q 1903 3394 2198 3281 
Q 2494 3169 2634 2976 
Q 2775 2784 2828 2463 
L 2278 2388 
Q 2241 2644 2061 2787 
Q 1881 2931 1553 2931 
Q 1166 2931 1000 2803 
Q 834 2675 834 2503 
Q 834 2394 903 2306 
Q 972 2216 1119 2156 
Q 1203 2125 1616 2013 
Q 2213 1853 2448 1751 
Q 2684 1650 2818 1456 
Q 2953 1263 2953 975 
Q 2953 694 2789 445 
Q 2625 197 2315 61 
Q 2006 -75 1616 -75 
Q 969 -75 630 194 
Q 291 463 197 991 
z
" id="ArialMT-73" transform="scale(0.015625)"/>
       <path d="M 319 -275 
L 866 -356 
Q 900 -609 1056 -725 
Q 1266 -881 1628 -881 
Q 2019 -881 2231 -725 
Q 2444 -569 2519 -288 
Q 2563 -116 2559 434 
Q 2191 0 1641 0 
Q 956 0 581 494 
Q 206 988 206 1678 
Q 206 2153 378 2554 
Q 550 2956 876 3175 
Q 1203 3394 1644 3394 
Q 2231 3394 2613 2919 
L 2613 3319 
L 3131 3319 
L 3131 450 
Q 3131 -325 2973 -648 
Q 2816 -972 2473 -1159 
Q 2131 -1347 1631 -1347 
Q 1038 -1347 672 -1080 
Q 306 -813 319 -275 
z
M 784 1719 
Q 784 1066 1043 766 
Q 1303 466 1694 466 
Q 2081 466 2343 764 
Q 2606 1063 2606 1700 
Q 2606 2309 2336 2618 
Q 2066 2928 1684 2928 
Q 1309 2928 1046 2623 
Q 784 2319 784 1719 
z
" id="ArialMT-67" transform="scale(0.015625)"/>
       <path d="M 0 -78 
L 1328 4659 
L 1778 4659 
L 453 -78 
L 0 -78 
z
" id="ArialMT-2f" transform="scale(0.015625)"/>
       <path d="M 469 0 
L 469 4581 
L 1075 4581 
L 1075 541 
L 3331 541 
L 3331 0 
L 469 0 
z
" id="ArialMT-4c" transform="scale(0.015625)"/>
      </defs>
      <use xlink:href="#ArialMT-42"/>
      <use x="66.699219" xlink:href="#ArialMT-69"/>
      <use x="88.916016" xlink:href="#ArialMT-6f"/>
      <use x="144.53125" xlink:href="#ArialMT-6d"/>
      <use x="227.832031" xlink:href="#ArialMT-61"/>
      <use x="283.447266" xlink:href="#ArialMT-73"/>
      <use x="333.447266" xlink:href="#ArialMT-73"/>
      <use x="383.447266" xlink:href="#ArialMT-20"/>
      <use x="411.230469" xlink:href="#ArialMT-28"/>
      <use x="444.53125" xlink:href="#ArialMT-67"/>
      <use x="500.146484" xlink:href="#ArialMT-2f"/>
      <use x="527.929688" xlink:href="#ArialMT-4c"/>
      <use x="583.544922" xlink:href="#ArialMT-29"/>
     </g>
    </g>
   </g>
   <g id="line2d_27">
    <path clip-path="url(#p47e32bae02)" d="M 52.915227 131.405455 
L 56.258516 130.604029 
L 59.601805 129.787396 
L 62.945094 128.954467 
L 66.288382 128.104134 
L 69.631671 127.235266 
L 72.97496 126.346708 
L 76.318249 125.437284 
L 79.661537 124.5058 
L 83.004826 123.551037 
L 86.348115 122.571762 
L 89.691404 121.56672 
L 93.034693 120.534643 
L 96.377981 119.474247 
L 99.72127 118.384236 
L 103.064559 117.263304 
L 106.407848 116.110139 
L 109.751136 114.923423 
L 113.094425 113.70184 
L 116.437714 112.444076 
L 119.781003 111.148826 
L 123.124291 109.814799 
L 126.46758 108.440725 
L 129.810869 107.025357 
L 133.154158 105.567487 
L 136.497447 104.065946 
L 139.840735 102.519618 
L 143.184024 100.92745 
L 146.527313 99.288462 
L 149.870602 97.601762 
L 153.21389 95.866558 
L 156.557179 94.082177 
L 159.900468 92.24808 
L 163.243757 90.363878 
L 166.587045 88.429358 
L 169.930334 86.444502 
L 173.273623 84.409512 
L 176.616912 82.324832 
L 179.960201 80.19118 
L 183.303489 78.009574 
L 186.646778 75.781362 
L 189.990067 73.508249 
L 193.333356 71.192334 
L 196.676644 68.836134 
L 200.019933 66.442615 
L 203.363222 64.015215 
L 206.706511 61.557868 
L 210.049799 59.075012 
L 213.393088 56.571595 
L 216.736377 54.053065 
L 220.079666 51.525339 
L 223.422955 48.994748 
L 226.766243 46.467951 
L 230.109532 43.951807 
L 233.452821 41.453182 
L 236.79611 38.978685 
L 240.139398 36.534289 
L 243.482687 34.124776 
L 246.825976 31.752913 
L 250.169265 29.418136 
L 253.512553 27.114253 
L 256.855842 24.82494 
L 260.199131 22.626128 
L 263.54242 20.72447 
L 266.885709 19.05691 
L 270.228997 17.556627 
L 273.572286 16.164131 
L 276.915575 14.824886 
L 280.258864 13.490439 
L 283.602152 13.114545 
L 286.945441 13.114545 
L 290.28873 13.114545 
L 293.632019 13.114545 
L 296.975307 13.114545 
L 300.318596 13.114545 
L 303.661885 13.114545 
L 307.005174 13.114545 
L 310.348463 13.114545 
L 313.691751 13.114545 
L 317.03504 13.114545 
L 320.378329 13.114545 
L 323.721618 13.114545 
L 327.064906 13.114545 
L 330.408195 13.114545 
L 333.751484 13.114545 
L 337.094773 13.114545 
" style="fill:none;stroke:#ff7f0e;stroke-linecap:round;"/>
   </g>
   <g id="line2d_28">
    <defs>
     <path d="M 0 -3 
L -0.673542 -0.927051 
L -2.85317 -0.927051 
L -1.089814 0.354102 
L -1.763356 2.427051 
L -0 1.145898 
L 1.763356 2.427051 
L 1.089814 0.354102 
L 2.85317 -0.927051 
L 0.673542 -0.927051 
z
" id="m0cf04931ad" style="stroke:#ff7f0e;stroke-linejoin:bevel;stroke-opacity:0.8;"/>
    </defs>
    <g clip-path="url(#p47e32bae02)">
     <use style="fill:#ff7f0e;fill-opacity:0.8;stroke:#ff7f0e;stroke-linejoin:bevel;stroke-opacity:0.8;" x="52.915227" xlink:href="#m0cf04931ad" y="131.405455"/>
     <use style="fill:#ff7f0e;fill-opacity:0.8;stroke:#ff7f0e;stroke-linejoin:bevel;stroke-opacity:0.8;" x="132.529517" xlink:href="#m0cf04931ad" y="89.381727"/>
     <use style="fill:#ff7f0e;fill-opacity:0.8;stroke:#ff7f0e;stroke-linejoin:bevel;stroke-opacity:0.8;" x="212.37241" xlink:href="#m0cf04931ad" y="44.459811"/>
     <use style="fill:#ff7f0e;fill-opacity:0.8;stroke:#ff7f0e;stroke-linejoin:bevel;stroke-opacity:0.8;" x="256.667384" xlink:href="#m0cf04931ad" y="21.274306"/>
     <use style="fill:#ff7f0e;fill-opacity:0.8;stroke:#ff7f0e;stroke-linejoin:bevel;stroke-opacity:0.8;" x="291.378181" xlink:href="#m0cf04931ad" y="14.028835"/>
     <use style="fill:#ff7f0e;fill-opacity:0.8;stroke:#ff7f0e;stroke-linejoin:bevel;stroke-opacity:0.8;" x="337.094773" xlink:href="#m0cf04931ad" y="14.028835"/>
    </g>
   </g>
   <g id="patch_7">
    <path d="M 38.70625 137.32 
L 38.70625 7.2 
" style="fill:none;stroke:#262626;stroke-linecap:square;stroke-linejoin:miter;stroke-width:0.8;"/>
   </g>
   <g id="patch_8">
    <path d="M 351.30375 137.32 
L 351.30375 7.2 
" style="fill:none;stroke:#262626;stroke-linecap:square;stroke-linejoin:miter;stroke-width:0.8;"/>
   </g>
   <g id="patch_9">
    <path d="M 38.70625 137.32 
L 351.30375 137.32 
" style="fill:none;stroke:#262626;stroke-linecap:square;stroke-linejoin:miter;stroke-width:0.8;"/>
   </g>
   <g id="patch_10">
    <path d="M 38.70625 7.2 
L 351.30375 7.2 
" style="fill:none;stroke:#262626;stroke-linecap:square;stroke-linejoin:miter;stroke-width:0.8;"/>
   </g>
  </g>
  <g id="legend_1">
   <g id="patch_11">
    <path d="M 398.41375 136.4 
L 453.80125 136.4 
Q 455.40125 136.4 455.40125 134.8 
L 455.40125 56.2925 
Q 455.40125 54.6925 453.80125 54.6925 
L 398.41375 54.6925 
Q 396.81375 54.6925 396.81375 56.2925 
L 396.81375 134.8 
Q 396.81375 136.4 398.41375 136.4 
z
" style="fill:#ffffff;opacity:0.8;stroke:#cccccc;stroke-linejoin:miter;"/>
   </g>
   <g id="line2d_29">
    <path d="M 400.01375 60.81875 
L 416.01375 60.81875 
" style="fill:none;stroke:#1f77b4;stroke-linecap:round;"/>
   </g>
   <g id="line2d_30"/>
   <g id="text_18">
    <!-- glc -->
    <g style="fill:#262626;" transform="translate(422.41375 63.61875)scale(0.08 -0.08)">
     <defs>
      <path d="M 409 0 
L 409 4581 
L 972 4581 
L 972 0 
L 409 0 
z
" id="ArialMT-6c" transform="scale(0.015625)"/>
     </defs>
     <use xlink:href="#ArialMT-67"/>
     <use x="55.615234" xlink:href="#ArialMT-6c"/>
     <use x="77.832031" xlink:href="#ArialMT-63"/>
    </g>
   </g>
   <g id="line2d_31">
    <path d="M 400.01375 72.22875 
L 416.01375 72.22875 
" style="fill:none;stroke:#2ca02c;stroke-linecap:round;"/>
   </g>
   <g id="line2d_32"/>
   <g id="text_19">
    <!-- ac -->
    <g style="fill:#262626;" transform="translate(422.41375 75.02875)scale(0.08 -0.08)">
     <use xlink:href="#ArialMT-61"/>
     <use x="55.615234" xlink:href="#ArialMT-63"/>
    </g>
   </g>
   <g id="line2d_33">
    <path d="M 400.01375 83.545 
L 416.01375 83.545 
" style="fill:none;stroke:#d62728;stroke-linecap:round;"/>
   </g>
   <g id="line2d_34"/>
   <g id="text_20">
    <!-- for -->
    <g style="fill:#262626;" transform="translate(422.41375 86.345)scale(0.08 -0.08)">
     <defs>
      <path d="M 556 0 
L 556 2881 
L 59 2881 
L 59 3319 
L 556 3319 
L 556 3672 
Q 556 4006 616 4169 
Q 697 4388 901 4523 
Q 1106 4659 1475 4659 
Q 1713 4659 2000 4603 
L 1916 4113 
Q 1741 4144 1584 4144 
Q 1328 4144 1222 4034 
Q 1116 3925 1116 3625 
L 1116 3319 
L 1763 3319 
L 1763 2881 
L 1116 2881 
L 1116 0 
L 556 0 
z
" id="ArialMT-66" transform="scale(0.015625)"/>
     </defs>
     <use xlink:href="#ArialMT-66"/>
     <use x="27.783203" xlink:href="#ArialMT-6f"/>
     <use x="83.398438" xlink:href="#ArialMT-72"/>
    </g>
   </g>
   <g id="line2d_35">
    <path d="M 400.01375 94.86125 
L 416.01375 94.86125 
" style="fill:none;stroke:#9467bd;stroke-linecap:round;"/>
   </g>
   <g id="line2d_36"/>
   <g id="text_21">
    <!-- etoh -->
    <g style="fill:#262626;" transform="translate(422.41375 97.66125)scale(0.08 -0.08)">
     <use xlink:href="#ArialMT-65"/>
     <use x="55.615234" xlink:href="#ArialMT-74"/>
     <use x="83.398438" xlink:href="#ArialMT-6f"/>
     <use x="139.013672" xlink:href="#ArialMT-68"/>
    </g>
   </g>
   <g id="line2d_37">
    <path d="M 400.01375 106.1775 
L 416.01375 106.1775 
" style="fill:none;stroke:#8c564b;stroke-linecap:round;"/>
   </g>
   <g id="line2d_38"/>
   <g id="text_22">
    <!-- lac -->
    <g style="fill:#262626;" transform="translate(422.41375 108.9775)scale(0.08 -0.08)">
     <use xlink:href="#ArialMT-6c"/>
     <use x="22.216797" xlink:href="#ArialMT-61"/>
     <use x="77.832031" xlink:href="#ArialMT-63"/>
    </g>
   </g>
   <g id="line2d_39">
    <path d="M 400.01375 117.49375 
L 416.01375 117.49375 
" style="fill:none;stroke:#e377c2;stroke-linecap:round;"/>
   </g>
   <g id="line2d_40"/>
   <g id="text_23">
    <!-- succ -->
    <g style="fill:#262626;" transform="translate(422.41375 120.29375)scale(0.08 -0.08)">
     <defs>
      <path d="M 2597 0 
L 2597 488 
Q 2209 -75 1544 -75 
Q 1250 -75 995 37 
Q 741 150 617 320 
Q 494 491 444 738 
Q 409 903 409 1263 
L 409 3319 
L 972 3319 
L 972 1478 
Q 972 1038 1006 884 
Q 1059 663 1231 536 
Q 1403 409 1656 409 
Q 1909 409 2131 539 
Q 2353 669 2445 892 
Q 2538 1116 2538 1541 
L 2538 3319 
L 3100 3319 
L 3100 0 
L 2597 0 
z
" id="ArialMT-75" transform="scale(0.015625)"/>
     </defs>
     <use xlink:href="#ArialMT-73"/>
     <use x="50" xlink:href="#ArialMT-75"/>
     <use x="105.615234" xlink:href="#ArialMT-63"/>
     <use x="155.615234" xlink:href="#ArialMT-63"/>
    </g>
   </g>
   <g id="line2d_41">
    <path d="M 400.01375 128.81 
L 416.01375 128.81 
" style="fill:none;stroke:#ff7f0e;stroke-linecap:round;"/>
   </g>
   <g id="line2d_42"/>
   <g id="text_24">
    <!-- biomass -->
    <g style="fill:#262626;" transform="translate(422.41375 131.61)scale(0.08 -0.08)">
     <defs>
      <path d="M 941 0 
L 419 0 
L 419 4581 
L 981 4581 
L 981 2947 
Q 1338 3394 1891 3394 
Q 2197 3394 2470 3270 
Q 2744 3147 2920 2923 
Q 3097 2700 3197 2384 
Q 3297 2069 3297 1709 
Q 3297 856 2875 390 
Q 2453 -75 1863 -75 
Q 1275 -75 941 416 
L 941 0 
z
M 934 1684 
Q 934 1088 1097 822 
Q 1363 388 1816 388 
Q 2184 388 2453 708 
Q 2722 1028 2722 1663 
Q 2722 2313 2464 2622 
Q 2206 2931 1841 2931 
Q 1472 2931 1203 2611 
Q 934 2291 934 1684 
z
" id="ArialMT-62" transform="scale(0.015625)"/>
     </defs>
     <use xlink:href="#ArialMT-62"/>
     <use x="55.615234" xlink:href="#ArialMT-69"/>
     <use x="77.832031" xlink:href="#ArialMT-6f"/>
     <use x="133.447266" xlink:href="#ArialMT-6d"/>
     <use x="216.748047" xlink:href="#ArialMT-61"/>
     <use x="272.363281" xlink:href="#ArialMT-73"/>
     <use x="322.363281" xlink:href="#ArialMT-73"/>
    </g>
   </g>
  </g>
 </g>
 <defs>
  <clipPath id="p47e32bae02">
   <rect height="130.12" width="312.5975" x="38.70625" y="7.2"/>
  </clipPath>
 </defs>
</svg>
