<?xml version="1.0" encoding="utf-8" standalone="no"?>
<!DOCTYPE svg PUBLIC "-//W3C//DTD SVG 1.1//EN"
  "http://www.w3.org/Graphics/SVG/1.1/DTD/svg11.dtd">
<svg height="338.7425pt" version="1.1" viewBox="0 0 527.384375 338.7425" width="527.384375pt" xmlns="http://www.w3.org/2000/svg" xmlns:xlink="http://www.w3.org/1999/xlink">
 <metadata>
  <rdf:RDF xmlns:cc="http://creativecommons.org/ns#" xmlns:dc="http://purl.org/dc/elements/1.1/" xmlns:rdf="http://www.w3.org/1999/02/22-rdf-syntax-ns#">
   <cc:Work>
    <dc:type rdf:resource="http://purl.org/dc/dcmitype/StillImage"/>
    <dc:date>2021-11-09T12:23:55.967114</dc:date>
    <dc:format>image/svg+xml</dc:format>
    <dc:creator>
     <cc:Agent>
      <dc:title>Matplotlib v3.4.2, https://matplotlib.org/</dc:title>
     </cc:Agent>
    </dc:creator>
   </cc:Work>
  </rdf:RDF>
 </metadata>
 <defs>
  <style type="text/css">*{stroke-linecap:butt;stroke-linejoin:round;}</style>
 </defs>
 <g id="figure_1">
  <g id="patch_1">
   <path d="M 0 338.7425 
L 527.384375 338.7425 
L 527.384375 0 
L 0 0 
z
" style="fill:#ffffff;"/>
  </g>
  <g id="axes_1">
   <g id="patch_2">
    <path d="M 40.309375 301.48 
L 416.086875 301.48 
L 416.086875 7.2 
L 40.309375 7.2 
z
" style="fill:#ffffff;"/>
   </g>
   <g id="matplotlib.axis_1">
    <g id="xtick_1">
     <g id="line2d_1">
      <defs>
       <path d="M 0 0 
L 0 3.5 
" id="m3f184d25f2" style="stroke:#000000;stroke-width:0.8;"/>
      </defs>
      <g>
       <use style="stroke:#000000;stroke-width:0.8;" x="57.39017" xlink:href="#m3f184d25f2" y="301.48"/>
      </g>
     </g>
     <g id="text_1">
      <!-- 0 -->
      <g transform="translate(54.20892 316.078437)scale(0.1 -0.1)">
       <defs>
        <path d="M 2034 4250 
Q 1547 4250 1301 3770 
Q 1056 3291 1056 2328 
Q 1056 1369 1301 889 
Q 1547 409 2034 409 
Q 2525 409 2770 889 
Q 3016 1369 3016 2328 
Q 3016 3291 2770 3770 
Q 2525 4250 2034 4250 
z
M 2034 4750 
Q 2819 4750 3233 4129 
Q 3647 3509 3647 2328 
Q 3647 1150 3233 529 
Q 2819 -91 2034 -91 
Q 1250 -91 836 529 
Q 422 1150 422 2328 
Q 422 3509 836 4129 
Q 1250 4750 2034 4750 
z
" id="DejaVuSans-30" transform="scale(0.015625)"/>
       </defs>
       <use xlink:href="#DejaVuSans-30"/>
      </g>
     </g>
    </g>
    <g id="xtick_2">
     <g id="line2d_2">
      <g>
       <use style="stroke:#000000;stroke-width:0.8;" x="124.046933" xlink:href="#m3f184d25f2" y="301.48"/>
      </g>
     </g>
     <g id="text_2">
      <!-- 2 -->
      <g transform="translate(120.865683 316.078437)scale(0.1 -0.1)">
       <defs>
        <path d="M 1228 531 
L 3431 531 
L 3431 0 
L 469 0 
L 469 531 
Q 828 903 1448 1529 
Q 2069 2156 2228 2338 
Q 2531 2678 2651 2914 
Q 2772 3150 2772 3378 
Q 2772 3750 2511 3984 
Q 2250 4219 1831 4219 
Q 1534 4219 1204 4116 
Q 875 4013 500 3803 
L 500 4441 
Q 881 4594 1212 4672 
Q 1544 4750 1819 4750 
Q 2544 4750 2975 4387 
Q 3406 4025 3406 3419 
Q 3406 3131 3298 2873 
Q 3191 2616 2906 2266 
Q 2828 2175 2409 1742 
Q 1991 1309 1228 531 
z
" id="DejaVuSans-32" transform="scale(0.015625)"/>
       </defs>
       <use xlink:href="#DejaVuSans-32"/>
      </g>
     </g>
    </g>
    <g id="xtick_3">
     <g id="line2d_3">
      <g>
       <use style="stroke:#000000;stroke-width:0.8;" x="190.703696" xlink:href="#m3f184d25f2" y="301.48"/>
      </g>
     </g>
     <g id="text_3">
      <!-- 4 -->
      <g transform="translate(187.522446 316.078437)scale(0.1 -0.1)">
       <defs>
        <path d="M 2419 4116 
L 825 1625 
L 2419 1625 
L 2419 4116 
z
M 2253 4666 
L 3047 4666 
L 3047 1625 
L 3713 1625 
L 3713 1100 
L 3047 1100 
L 3047 0 
L 2419 0 
L 2419 1100 
L 313 1100 
L 313 1709 
L 2253 4666 
z
" id="DejaVuSans-34" transform="scale(0.015625)"/>
       </defs>
       <use xlink:href="#DejaVuSans-34"/>
      </g>
     </g>
    </g>
    <g id="xtick_4">
     <g id="line2d_4">
      <g>
       <use style="stroke:#000000;stroke-width:0.8;" x="257.360459" xlink:href="#m3f184d25f2" y="301.48"/>
      </g>
     </g>
     <g id="text_4">
      <!-- 6 -->
      <g transform="translate(254.179209 316.078437)scale(0.1 -0.1)">
       <defs>
        <path d="M 2113 2584 
Q 1688 2584 1439 2293 
Q 1191 2003 1191 1497 
Q 1191 994 1439 701 
Q 1688 409 2113 409 
Q 2538 409 2786 701 
Q 3034 994 3034 1497 
Q 3034 2003 2786 2293 
Q 2538 2584 2113 2584 
z
M 3366 4563 
L 3366 3988 
Q 3128 4100 2886 4159 
Q 2644 4219 2406 4219 
Q 1781 4219 1451 3797 
Q 1122 3375 1075 2522 
Q 1259 2794 1537 2939 
Q 1816 3084 2150 3084 
Q 2853 3084 3261 2657 
Q 3669 2231 3669 1497 
Q 3669 778 3244 343 
Q 2819 -91 2113 -91 
Q 1303 -91 875 529 
Q 447 1150 447 2328 
Q 447 3434 972 4092 
Q 1497 4750 2381 4750 
Q 2619 4750 2861 4703 
Q 3103 4656 3366 4563 
z
" id="DejaVuSans-36" transform="scale(0.015625)"/>
       </defs>
       <use xlink:href="#DejaVuSans-36"/>
      </g>
     </g>
    </g>
    <g id="xtick_5">
     <g id="line2d_5">
      <g>
       <use style="stroke:#000000;stroke-width:0.8;" x="324.017221" xlink:href="#m3f184d25f2" y="301.48"/>
      </g>
     </g>
     <g id="text_5">
      <!-- 8 -->
      <g transform="translate(320.835971 316.078437)scale(0.1 -0.1)">
       <defs>
        <path d="M 2034 2216 
Q 1584 2216 1326 1975 
Q 1069 1734 1069 1313 
Q 1069 891 1326 650 
Q 1584 409 2034 409 
Q 2484 409 2743 651 
Q 3003 894 3003 1313 
Q 3003 1734 2745 1975 
Q 2488 2216 2034 2216 
z
M 1403 2484 
Q 997 2584 770 2862 
Q 544 3141 544 3541 
Q 544 4100 942 4425 
Q 1341 4750 2034 4750 
Q 2731 4750 3128 4425 
Q 3525 4100 3525 3541 
Q 3525 3141 3298 2862 
Q 3072 2584 2669 2484 
Q 3125 2378 3379 2068 
Q 3634 1759 3634 1313 
Q 3634 634 3220 271 
Q 2806 -91 2034 -91 
Q 1263 -91 848 271 
Q 434 634 434 1313 
Q 434 1759 690 2068 
Q 947 2378 1403 2484 
z
M 1172 3481 
Q 1172 3119 1398 2916 
Q 1625 2713 2034 2713 
Q 2441 2713 2670 2916 
Q 2900 3119 2900 3481 
Q 2900 3844 2670 4047 
Q 2441 4250 2034 4250 
Q 1625 4250 1398 4047 
Q 1172 3844 1172 3481 
z
" id="DejaVuSans-38" transform="scale(0.015625)"/>
       </defs>
       <use xlink:href="#DejaVuSans-38"/>
      </g>
     </g>
    </g>
    <g id="xtick_6">
     <g id="line2d_6">
      <g>
       <use style="stroke:#000000;stroke-width:0.8;" x="390.673984" xlink:href="#m3f184d25f2" y="301.48"/>
      </g>
     </g>
     <g id="text_6">
      <!-- 10 -->
      <g transform="translate(384.311484 316.078437)scale(0.1 -0.1)">
       <defs>
        <path d="M 794 531 
L 1825 531 
L 1825 4091 
L 703 3866 
L 703 4441 
L 1819 4666 
L 2450 4666 
L 2450 531 
L 3481 531 
L 3481 0 
L 794 0 
L 794 531 
z
" id="DejaVuSans-31" transform="scale(0.015625)"/>
       </defs>
       <use xlink:href="#DejaVuSans-31"/>
       <use x="63.623047" xlink:href="#DejaVuSans-30"/>
      </g>
     </g>
    </g>
    <g id="text_7">
     <!-- Time (h) -->
     <g transform="translate(209.77625 329.437812)scale(0.1 -0.1)">
      <defs>
       <path d="M 1659 0 
L 1659 4041 
L 150 4041 
L 150 4581 
L 3781 4581 
L 3781 4041 
L 2266 4041 
L 2266 0 
L 1659 0 
z
" id="ArialMT-54" transform="scale(0.015625)"/>
       <path d="M 425 3934 
L 425 4581 
L 988 4581 
L 988 3934 
L 425 3934 
z
M 425 0 
L 425 3319 
L 988 3319 
L 988 0 
L 425 0 
z
" id="ArialMT-69" transform="scale(0.015625)"/>
       <path d="M 422 0 
L 422 3319 
L 925 3319 
L 925 2853 
Q 1081 3097 1340 3245 
Q 1600 3394 1931 3394 
Q 2300 3394 2536 3241 
Q 2772 3088 2869 2813 
Q 3263 3394 3894 3394 
Q 4388 3394 4653 3120 
Q 4919 2847 4919 2278 
L 4919 0 
L 4359 0 
L 4359 2091 
Q 4359 2428 4304 2576 
Q 4250 2725 4106 2815 
Q 3963 2906 3769 2906 
Q 3419 2906 3187 2673 
Q 2956 2441 2956 1928 
L 2956 0 
L 2394 0 
L 2394 2156 
Q 2394 2531 2256 2718 
Q 2119 2906 1806 2906 
Q 1569 2906 1367 2781 
Q 1166 2656 1075 2415 
Q 984 2175 984 1722 
L 984 0 
L 422 0 
z
" id="ArialMT-6d" transform="scale(0.015625)"/>
       <path d="M 2694 1069 
L 3275 997 
Q 3138 488 2766 206 
Q 2394 -75 1816 -75 
Q 1088 -75 661 373 
Q 234 822 234 1631 
Q 234 2469 665 2931 
Q 1097 3394 1784 3394 
Q 2450 3394 2872 2941 
Q 3294 2488 3294 1666 
Q 3294 1616 3291 1516 
L 816 1516 
Q 847 969 1125 678 
Q 1403 388 1819 388 
Q 2128 388 2347 550 
Q 2566 713 2694 1069 
z
M 847 1978 
L 2700 1978 
Q 2663 2397 2488 2606 
Q 2219 2931 1791 2931 
Q 1403 2931 1139 2672 
Q 875 2413 847 1978 
z
" id="ArialMT-65" transform="scale(0.015625)"/>
       <path id="ArialMT-20" transform="scale(0.015625)"/>
       <path d="M 1497 -1347 
Q 1031 -759 709 28 
Q 388 816 388 1659 
Q 388 2403 628 3084 
Q 909 3875 1497 4659 
L 1900 4659 
Q 1522 4009 1400 3731 
Q 1209 3300 1100 2831 
Q 966 2247 966 1656 
Q 966 153 1900 -1347 
L 1497 -1347 
z
" id="ArialMT-28" transform="scale(0.015625)"/>
       <path d="M 422 0 
L 422 4581 
L 984 4581 
L 984 2938 
Q 1378 3394 1978 3394 
Q 2347 3394 2619 3248 
Q 2891 3103 3008 2847 
Q 3125 2591 3125 2103 
L 3125 0 
L 2563 0 
L 2563 2103 
Q 2563 2525 2380 2717 
Q 2197 2909 1863 2909 
Q 1613 2909 1392 2779 
Q 1172 2650 1078 2428 
Q 984 2206 984 1816 
L 984 0 
L 422 0 
z
" id="ArialMT-68" transform="scale(0.015625)"/>
       <path d="M 791 -1347 
L 388 -1347 
Q 1322 153 1322 1656 
Q 1322 2244 1188 2822 
Q 1081 3291 891 3722 
Q 769 4003 388 4659 
L 791 4659 
Q 1378 3875 1659 3084 
Q 1900 2403 1900 1659 
Q 1900 816 1576 28 
Q 1253 -759 791 -1347 
z
" id="ArialMT-29" transform="scale(0.015625)"/>
      </defs>
      <use xlink:href="#ArialMT-54"/>
      <use x="57.333984" xlink:href="#ArialMT-69"/>
      <use x="79.550781" xlink:href="#ArialMT-6d"/>
      <use x="162.851562" xlink:href="#ArialMT-65"/>
      <use x="218.466797" xlink:href="#ArialMT-20"/>
      <use x="246.25" xlink:href="#ArialMT-28"/>
      <use x="279.550781" xlink:href="#ArialMT-68"/>
      <use x="335.166016" xlink:href="#ArialMT-29"/>
     </g>
    </g>
   </g>
   <g id="matplotlib.axis_2">
    <g id="ytick_1">
     <g id="line2d_7">
      <defs>
       <path d="M 0 0 
L -3.5 0 
" id="mc01bb1b188" style="stroke:#000000;stroke-width:0.8;"/>
      </defs>
      <g>
       <use style="stroke:#000000;stroke-width:0.8;" x="40.309375" xlink:href="#mc01bb1b188" y="288.103636"/>
      </g>
     </g>
     <g id="text_8">
      <!-- 0 -->
      <g transform="translate(26.946875 291.902855)scale(0.1 -0.1)">
       <use xlink:href="#DejaVuSans-30"/>
      </g>
     </g>
    </g>
    <g id="ytick_2">
     <g id="line2d_8">
      <g>
       <use style="stroke:#000000;stroke-width:0.8;" x="40.309375" xlink:href="#mc01bb1b188" y="239.900524"/>
      </g>
     </g>
     <g id="text_9">
      <!-- 2 -->
      <g transform="translate(26.946875 243.699743)scale(0.1 -0.1)">
       <use xlink:href="#DejaVuSans-32"/>
      </g>
     </g>
    </g>
    <g id="ytick_3">
     <g id="line2d_9">
      <g>
       <use style="stroke:#000000;stroke-width:0.8;" x="40.309375" xlink:href="#mc01bb1b188" y="191.697412"/>
      </g>
     </g>
     <g id="text_10">
      <!-- 4 -->
      <g transform="translate(26.946875 195.496631)scale(0.1 -0.1)">
       <use xlink:href="#DejaVuSans-34"/>
      </g>
     </g>
    </g>
    <g id="ytick_4">
     <g id="line2d_10">
      <g>
       <use style="stroke:#000000;stroke-width:0.8;" x="40.309375" xlink:href="#mc01bb1b188" y="143.4943"/>
      </g>
     </g>
     <g id="text_11">
      <!-- 6 -->
      <g transform="translate(26.946875 147.293518)scale(0.1 -0.1)">
       <use xlink:href="#DejaVuSans-36"/>
      </g>
     </g>
    </g>
    <g id="ytick_5">
     <g id="line2d_11">
      <g>
       <use style="stroke:#000000;stroke-width:0.8;" x="40.309375" xlink:href="#mc01bb1b188" y="95.291188"/>
      </g>
     </g>
     <g id="text_12">
      <!-- 8 -->
      <g transform="translate(26.946875 99.090406)scale(0.1 -0.1)">
       <use xlink:href="#DejaVuSans-38"/>
      </g>
     </g>
    </g>
    <g id="ytick_6">
     <g id="line2d_12">
      <g>
       <use style="stroke:#000000;stroke-width:0.8;" x="40.309375" xlink:href="#mc01bb1b188" y="47.088075"/>
      </g>
     </g>
     <g id="text_13">
      <!-- 10 -->
      <g transform="translate(20.584375 50.887294)scale(0.1 -0.1)">
       <use xlink:href="#DejaVuSans-31"/>
       <use x="63.623047" xlink:href="#DejaVuSans-30"/>
      </g>
     </g>
    </g>
    <g id="text_14">
     <!-- Concentration (mM) -->
     <g transform="translate(14.479688 198.516562)rotate(-90)scale(0.1 -0.1)">
      <defs>
       <path d="M 3763 1606 
L 4369 1453 
Q 4178 706 3683 314 
Q 3188 -78 2472 -78 
Q 1731 -78 1267 223 
Q 803 525 561 1097 
Q 319 1669 319 2325 
Q 319 3041 592 3573 
Q 866 4106 1370 4382 
Q 1875 4659 2481 4659 
Q 3169 4659 3637 4309 
Q 4106 3959 4291 3325 
L 3694 3184 
Q 3534 3684 3231 3912 
Q 2928 4141 2469 4141 
Q 1941 4141 1586 3887 
Q 1231 3634 1087 3207 
Q 944 2781 944 2328 
Q 944 1744 1114 1308 
Q 1284 872 1643 656 
Q 2003 441 2422 441 
Q 2931 441 3284 734 
Q 3638 1028 3763 1606 
z
" id="ArialMT-43" transform="scale(0.015625)"/>
       <path d="M 213 1659 
Q 213 2581 725 3025 
Q 1153 3394 1769 3394 
Q 2453 3394 2887 2945 
Q 3322 2497 3322 1706 
Q 3322 1066 3130 698 
Q 2938 331 2570 128 
Q 2203 -75 1769 -75 
Q 1072 -75 642 372 
Q 213 819 213 1659 
z
M 791 1659 
Q 791 1022 1069 705 
Q 1347 388 1769 388 
Q 2188 388 2466 706 
Q 2744 1025 2744 1678 
Q 2744 2294 2464 2611 
Q 2184 2928 1769 2928 
Q 1347 2928 1069 2612 
Q 791 2297 791 1659 
z
" id="ArialMT-6f" transform="scale(0.015625)"/>
       <path d="M 422 0 
L 422 3319 
L 928 3319 
L 928 2847 
Q 1294 3394 1984 3394 
Q 2284 3394 2536 3286 
Q 2788 3178 2913 3003 
Q 3038 2828 3088 2588 
Q 3119 2431 3119 2041 
L 3119 0 
L 2556 0 
L 2556 2019 
Q 2556 2363 2490 2533 
Q 2425 2703 2258 2804 
Q 2091 2906 1866 2906 
Q 1506 2906 1245 2678 
Q 984 2450 984 1813 
L 984 0 
L 422 0 
z
" id="ArialMT-6e" transform="scale(0.015625)"/>
       <path d="M 2588 1216 
L 3141 1144 
Q 3050 572 2676 248 
Q 2303 -75 1759 -75 
Q 1078 -75 664 370 
Q 250 816 250 1647 
Q 250 2184 428 2587 
Q 606 2991 970 3192 
Q 1334 3394 1763 3394 
Q 2303 3394 2647 3120 
Q 2991 2847 3088 2344 
L 2541 2259 
Q 2463 2594 2264 2762 
Q 2066 2931 1784 2931 
Q 1359 2931 1093 2626 
Q 828 2322 828 1663 
Q 828 994 1084 691 
Q 1341 388 1753 388 
Q 2084 388 2306 591 
Q 2528 794 2588 1216 
z
" id="ArialMT-63" transform="scale(0.015625)"/>
       <path d="M 1650 503 
L 1731 6 
Q 1494 -44 1306 -44 
Q 1000 -44 831 53 
Q 663 150 594 308 
Q 525 466 525 972 
L 525 2881 
L 113 2881 
L 113 3319 
L 525 3319 
L 525 4141 
L 1084 4478 
L 1084 3319 
L 1650 3319 
L 1650 2881 
L 1084 2881 
L 1084 941 
Q 1084 700 1114 631 
Q 1144 563 1211 522 
Q 1278 481 1403 481 
Q 1497 481 1650 503 
z
" id="ArialMT-74" transform="scale(0.015625)"/>
       <path d="M 416 0 
L 416 3319 
L 922 3319 
L 922 2816 
Q 1116 3169 1280 3281 
Q 1444 3394 1641 3394 
Q 1925 3394 2219 3213 
L 2025 2691 
Q 1819 2813 1613 2813 
Q 1428 2813 1281 2702 
Q 1134 2591 1072 2394 
Q 978 2094 978 1738 
L 978 0 
L 416 0 
z
" id="ArialMT-72" transform="scale(0.015625)"/>
       <path d="M 2588 409 
Q 2275 144 1986 34 
Q 1697 -75 1366 -75 
Q 819 -75 525 192 
Q 231 459 231 875 
Q 231 1119 342 1320 
Q 453 1522 633 1644 
Q 813 1766 1038 1828 
Q 1203 1872 1538 1913 
Q 2219 1994 2541 2106 
Q 2544 2222 2544 2253 
Q 2544 2597 2384 2738 
Q 2169 2928 1744 2928 
Q 1347 2928 1158 2789 
Q 969 2650 878 2297 
L 328 2372 
Q 403 2725 575 2942 
Q 747 3159 1072 3276 
Q 1397 3394 1825 3394 
Q 2250 3394 2515 3294 
Q 2781 3194 2906 3042 
Q 3031 2891 3081 2659 
Q 3109 2516 3109 2141 
L 3109 1391 
Q 3109 606 3145 398 
Q 3181 191 3288 0 
L 2700 0 
Q 2613 175 2588 409 
z
M 2541 1666 
Q 2234 1541 1622 1453 
Q 1275 1403 1131 1340 
Q 988 1278 909 1158 
Q 831 1038 831 891 
Q 831 666 1001 516 
Q 1172 366 1500 366 
Q 1825 366 2078 508 
Q 2331 650 2450 897 
Q 2541 1088 2541 1459 
L 2541 1666 
z
" id="ArialMT-61" transform="scale(0.015625)"/>
       <path d="M 475 0 
L 475 4581 
L 1388 4581 
L 2472 1338 
Q 2622 884 2691 659 
Q 2769 909 2934 1394 
L 4031 4581 
L 4847 4581 
L 4847 0 
L 4263 0 
L 4263 3834 
L 2931 0 
L 2384 0 
L 1059 3900 
L 1059 0 
L 475 0 
z
" id="ArialMT-4d" transform="scale(0.015625)"/>
      </defs>
      <use xlink:href="#ArialMT-43"/>
      <use x="72.216797" xlink:href="#ArialMT-6f"/>
      <use x="127.832031" xlink:href="#ArialMT-6e"/>
      <use x="183.447266" xlink:href="#ArialMT-63"/>
      <use x="233.447266" xlink:href="#ArialMT-65"/>
      <use x="289.0625" xlink:href="#ArialMT-6e"/>
      <use x="344.677734" xlink:href="#ArialMT-74"/>
      <use x="372.460938" xlink:href="#ArialMT-72"/>
      <use x="405.761719" xlink:href="#ArialMT-61"/>
      <use x="461.376953" xlink:href="#ArialMT-74"/>
      <use x="489.160156" xlink:href="#ArialMT-69"/>
      <use x="511.376953" xlink:href="#ArialMT-6f"/>
      <use x="566.992188" xlink:href="#ArialMT-6e"/>
      <use x="622.607422" xlink:href="#ArialMT-20"/>
      <use x="650.390625" xlink:href="#ArialMT-28"/>
      <use x="683.691406" xlink:href="#ArialMT-6d"/>
      <use x="766.992188" xlink:href="#ArialMT-4d"/>
      <use x="850.292969" xlink:href="#ArialMT-29"/>
     </g>
    </g>
   </g>
   <g id="line2d_13">
    <path clip-path="url(#p8d9c21068f)" d="M 57.39017 20.576364 
L 60.723009 20.855508 
L 64.055847 21.135174 
L 67.388685 21.415421 
L 70.721523 21.696315 
L 74.054361 21.977927 
L 77.387199 22.260331 
L 80.720037 22.543611 
L 84.052876 22.827857 
L 87.385714 23.113169 
L 90.718552 23.399653 
L 94.05139 23.687428 
L 97.384228 23.976626 
L 100.717066 24.26739 
L 104.049904 24.559881 
L 107.382743 24.854275 
L 110.715581 25.150773 
L 114.048419 25.449597 
L 117.381257 25.750997 
L 120.714095 26.055258 
L 124.046933 26.362702 
L 127.379771 26.673698 
L 130.712609 26.988672 
L 134.045448 27.308116 
L 137.378286 27.632602 
L 140.711124 27.962805 
L 144.043962 28.299524 
L 147.3768 28.643713 
L 150.709638 28.996527 
L 154.042476 29.359372 
L 157.375315 29.734013 
L 160.708153 30.122569 
L 164.040991 30.527875 
L 167.373829 30.953505 
L 170.706667 31.404204 
L 174.039505 31.886374 
L 177.372343 32.408882 
L 180.705182 32.984383 
L 184.03802 33.631599 
L 187.370858 34.350771 
L 190.703696 35.102351 
L 194.036534 35.897104 
L 197.369372 36.749245 
L 200.70221 37.67462 
L 204.035049 38.691012 
L 207.367887 39.818477 
L 210.700725 41.079733 
L 214.033563 42.500585 
L 217.366401 44.110399 
L 220.699239 45.942629 
L 224.032077 48.035381 
L 227.364915 50.432015 
L 230.697754 53.181776 
L 234.030592 56.34042 
L 237.36343 59.970802 
L 240.696268 64.143368 
L 244.029106 68.936468 
L 247.361944 74.436322 
L 250.694782 80.736503 
L 254.027621 87.936584 
L 257.360459 96.139581 
L 260.693297 105.447614 
L 264.026135 115.954911 
L 267.358973 127.737133 
L 270.691811 140.83553 
L 274.024649 155.234265 
L 277.357488 170.829437 
L 280.690326 187.389696 
L 284.023164 204.512739 
L 287.356002 221.592249 
L 290.68884 237.82797 
L 294.021678 252.329952 
L 297.354516 264.353303 
L 300.687354 273.618004 
L 304.020193 280.691175 
L 307.353031 286.242687 
L 310.685869 288.103636 
L 314.018707 288.103636 
L 317.351545 288.103636 
L 320.684383 288.103636 
L 324.017221 288.103636 
L 327.35006 288.103636 
L 330.682898 288.103636 
L 334.015736 288.103636 
L 337.348574 288.103636 
L 340.681412 288.103636 
L 344.01425 288.103636 
L 347.347088 288.103636 
L 350.679927 288.103636 
L 354.012765 288.103636 
L 357.345603 288.103636 
L 360.678441 288.103636 
L 364.011279 288.103636 
L 367.344117 288.103636 
L 370.676955 288.103636 
L 374.009794 288.103636 
L 377.342632 288.103636 
L 380.67547 288.103636 
L 384.008308 288.103636 
L 387.341146 288.103636 
L 390.673984 288.103636 
" style="fill:none;stroke:#1f77b4;stroke-linecap:square;"/>
   </g>
   <g id="line2d_14">
    <defs>
     <path d="M 0 -3 
L -0.673542 -0.927051 
L -2.85317 -0.927051 
L -1.089814 0.354102 
L -1.763356 2.427051 
L -0 1.145898 
L 1.763356 2.427051 
L 1.089814 0.354102 
L 2.85317 -0.927051 
L 0.673542 -0.927051 
z
" id="m61d4af03d3" style="stroke:#1f77b4;stroke-linejoin:bevel;stroke-opacity:0.8;"/>
    </defs>
    <g clip-path="url(#p8d9c21068f)">
     <use style="fill:#1f77b4;fill-opacity:0.8;stroke:#1f77b4;stroke-linejoin:bevel;stroke-opacity:0.8;" x="57.39017" xlink:href="#m61d4af03d3" y="20.576364"/>
     <use style="fill:#1f77b4;fill-opacity:0.8;stroke:#1f77b4;stroke-linejoin:bevel;stroke-opacity:0.8;" x="115.714838" xlink:href="#m61d4af03d3" y="21.058395"/>
     <use style="fill:#1f77b4;fill-opacity:0.8;stroke:#1f77b4;stroke-linejoin:bevel;stroke-opacity:0.8;" x="140.711124" xlink:href="#m61d4af03d3" y="30.699017"/>
     <use style="fill:#1f77b4;fill-opacity:0.8;stroke:#1f77b4;stroke-linejoin:bevel;stroke-opacity:0.8;" x="157.375315" xlink:href="#m61d4af03d3" y="36.483391"/>
     <use style="fill:#1f77b4;fill-opacity:0.8;stroke:#1f77b4;stroke-linejoin:bevel;stroke-opacity:0.8;" x="174.039505" xlink:href="#m61d4af03d3" y="40.580655"/>
     <use style="fill:#1f77b4;fill-opacity:0.8;stroke:#1f77b4;stroke-linejoin:bevel;stroke-opacity:0.8;" x="199.035791" xlink:href="#m61d4af03d3" y="49.739247"/>
     <use style="fill:#1f77b4;fill-opacity:0.8;stroke:#1f77b4;stroke-linejoin:bevel;stroke-opacity:0.8;" x="215.699982" xlink:href="#m61d4af03d3" y="68.779476"/>
     <use style="fill:#1f77b4;fill-opacity:0.8;stroke:#1f77b4;stroke-linejoin:bevel;stroke-opacity:0.8;" x="232.364173" xlink:href="#m61d4af03d3" y="81.553301"/>
     <use style="fill:#1f77b4;fill-opacity:0.8;stroke:#1f77b4;stroke-linejoin:bevel;stroke-opacity:0.8;" x="249.028363" xlink:href="#m61d4af03d3" y="105.413841"/>
     <use style="fill:#1f77b4;fill-opacity:0.8;stroke:#1f77b4;stroke-linejoin:bevel;stroke-opacity:0.8;" x="265.692554" xlink:href="#m61d4af03d3" y="133.371646"/>
     <use style="fill:#1f77b4;fill-opacity:0.8;stroke:#1f77b4;stroke-linejoin:bevel;stroke-opacity:0.8;" x="282.356745" xlink:href="#m61d4af03d3" y="178.20054"/>
     <use style="fill:#1f77b4;fill-opacity:0.8;stroke:#1f77b4;stroke-linejoin:bevel;stroke-opacity:0.8;" x="299.020935" xlink:href="#m61d4af03d3" y="235.080213"/>
     <use style="fill:#1f77b4;fill-opacity:0.8;stroke:#1f77b4;stroke-linejoin:bevel;stroke-opacity:0.8;" x="315.685126" xlink:href="#m61d4af03d3" y="271.232547"/>
     <use style="fill:#1f77b4;fill-opacity:0.8;stroke:#1f77b4;stroke-linejoin:bevel;stroke-opacity:0.8;" x="332.349317" xlink:href="#m61d4af03d3" y="284.970434"/>
     <use style="fill:#1f77b4;fill-opacity:0.8;stroke:#1f77b4;stroke-linejoin:bevel;stroke-opacity:0.8;" x="349.013507" xlink:href="#m61d4af03d3" y="285.452465"/>
     <use style="fill:#1f77b4;fill-opacity:0.8;stroke:#1f77b4;stroke-linejoin:bevel;stroke-opacity:0.8;" x="365.677698" xlink:href="#m61d4af03d3" y="285.693481"/>
     <use style="fill:#1f77b4;fill-opacity:0.8;stroke:#1f77b4;stroke-linejoin:bevel;stroke-opacity:0.8;" x="382.341889" xlink:href="#m61d4af03d3" y="286.681644"/>
     <use style="fill:#1f77b4;fill-opacity:0.8;stroke:#1f77b4;stroke-linejoin:bevel;stroke-opacity:0.8;" x="399.00608" xlink:href="#m61d4af03d3" y="286.271918"/>
    </g>
   </g>
   <g id="line2d_15">
    <path clip-path="url(#p8d9c21068f)" d="M 57.39017 279.668092 
L 60.723009 279.128092 
L 64.055847 278.587733 
L 67.388685 278.046953 
L 70.721523 277.505683 
L 74.054361 276.963852 
L 77.387199 276.421383 
L 80.720037 275.878196 
L 84.052876 275.334201 
L 87.385714 274.789307 
L 90.718552 274.243414 
L 94.05139 273.696414 
L 97.384228 273.148194 
L 100.717066 272.598628 
L 104.049904 272.047585 
L 107.382743 271.494922 
L 110.715581 270.940482 
L 114.048419 270.3841 
L 117.381257 269.825593 
L 120.714095 269.264763 
L 124.046933 268.701395 
L 127.379771 268.135254 
L 130.712609 267.56608 
L 134.045448 266.99359 
L 137.378286 266.41747 
L 140.711124 265.837372 
L 144.043962 265.252909 
L 147.3768 264.66365 
L 150.709638 264.069107 
L 154.042476 263.468732 
L 157.375315 262.861895 
L 160.708153 262.247898 
L 164.040991 261.6259 
L 167.373829 260.994948 
L 170.706667 260.353913 
L 174.039505 259.701455 
L 177.372343 259.035957 
L 180.705182 258.355438 
L 184.03802 257.657429 
L 187.370858 256.964688 
L 190.703696 256.329992 
L 194.036534 255.749917 
L 197.369372 255.219362 
L 200.70221 254.733655 
L 204.035049 254.288525 
L 207.367887 253.880072 
L 210.700725 253.504734 
L 214.033563 253.159258 
L 217.366401 252.840673 
L 220.699239 252.546264 
L 224.032077 252.27354 
L 227.364915 252.020218 
L 230.697754 251.784196 
L 234.030592 251.563528 
L 237.36343 251.356408 
L 240.696268 251.161144 
L 244.029106 250.97614 
L 247.361944 250.799867 
L 250.694782 250.63084 
L 254.027621 250.467587 
L 257.360459 250.308607 
L 260.693297 250.152323 
L 264.026135 249.99701 
L 267.358973 249.840693 
L 270.691811 249.680987 
L 274.024649 249.51485 
L 277.357488 249.33815 
L 280.690326 249.144899 
L 284.023164 248.925801 
L 287.356002 248.665292 
L 290.68884 248.335087 
L 294.021678 247.878705 
L 297.354516 247.16969 
L 300.687354 245.875056 
L 304.020193 242.787104 
L 307.353031 235.304519 
L 310.685869 231.657475 
L 314.018707 231.657475 
L 317.351545 231.657475 
L 320.684383 231.657475 
L 324.017221 231.657475 
L 327.35006 231.657475 
L 330.682898 231.657475 
L 334.015736 231.657475 
L 337.348574 231.657475 
L 340.681412 231.657475 
L 344.01425 231.657475 
L 347.347088 231.657475 
L 350.679927 231.657475 
L 354.012765 231.657475 
L 357.345603 231.657475 
L 360.678441 231.657475 
L 364.011279 231.657475 
L 367.344117 231.657475 
L 370.676955 231.657475 
L 374.009794 231.657475 
L 377.342632 231.657475 
L 380.67547 231.657475 
L 384.008308 231.657475 
L 387.341146 231.657475 
L 390.673984 231.657475 
" style="fill:none;stroke:#2ca02c;stroke-linecap:square;"/>
   </g>
   <g id="line2d_16">
    <defs>
     <path d="M 0 -3 
L -0.673542 -0.927051 
L -2.85317 -0.927051 
L -1.089814 0.354102 
L -1.763356 2.427051 
L -0 1.145898 
L 1.763356 2.427051 
L 1.089814 0.354102 
L 2.85317 -0.927051 
L 0.673542 -0.927051 
z
" id="mc34992ef0f" style="stroke:#2ca02c;stroke-linejoin:bevel;stroke-opacity:0.8;"/>
    </defs>
    <g clip-path="url(#p8d9c21068f)">
     <use style="fill:#2ca02c;fill-opacity:0.8;stroke:#2ca02c;stroke-linejoin:bevel;stroke-opacity:0.8;" x="57.39017" xlink:href="#mc34992ef0f" y="279.668092"/>
     <use style="fill:#2ca02c;fill-opacity:0.8;stroke:#2ca02c;stroke-linejoin:bevel;stroke-opacity:0.8;" x="115.714838" xlink:href="#mc34992ef0f" y="278.463014"/>
     <use style="fill:#2ca02c;fill-opacity:0.8;stroke:#2ca02c;stroke-linejoin:bevel;stroke-opacity:0.8;" x="140.711124" xlink:href="#mc34992ef0f" y="277.01692"/>
     <use style="fill:#2ca02c;fill-opacity:0.8;stroke:#2ca02c;stroke-linejoin:bevel;stroke-opacity:0.8;" x="157.375315" xlink:href="#mc34992ef0f" y="274.606765"/>
     <use style="fill:#2ca02c;fill-opacity:0.8;stroke:#2ca02c;stroke-linejoin:bevel;stroke-opacity:0.8;" x="174.039505" xlink:href="#mc34992ef0f" y="272.919656"/>
     <use style="fill:#2ca02c;fill-opacity:0.8;stroke:#2ca02c;stroke-linejoin:bevel;stroke-opacity:0.8;" x="199.035791" xlink:href="#mc34992ef0f" y="266.412236"/>
     <use style="fill:#2ca02c;fill-opacity:0.8;stroke:#2ca02c;stroke-linejoin:bevel;stroke-opacity:0.8;" x="215.699982" xlink:href="#mc34992ef0f" y="260.627862"/>
     <use style="fill:#2ca02c;fill-opacity:0.8;stroke:#2ca02c;stroke-linejoin:bevel;stroke-opacity:0.8;" x="232.364173" xlink:href="#mc34992ef0f" y="254.843489"/>
     <use style="fill:#2ca02c;fill-opacity:0.8;stroke:#2ca02c;stroke-linejoin:bevel;stroke-opacity:0.8;" x="249.028363" xlink:href="#mc34992ef0f" y="244.47982"/>
     <use style="fill:#2ca02c;fill-opacity:0.8;stroke:#2ca02c;stroke-linejoin:bevel;stroke-opacity:0.8;" x="265.692554" xlink:href="#mc34992ef0f" y="232.188026"/>
     <use style="fill:#2ca02c;fill-opacity:0.8;stroke:#2ca02c;stroke-linejoin:bevel;stroke-opacity:0.8;" x="282.356745" xlink:href="#mc34992ef0f" y="214.352875"/>
     <use style="fill:#2ca02c;fill-opacity:0.8;stroke:#2ca02c;stroke-linejoin:bevel;stroke-opacity:0.8;" x="299.020935" xlink:href="#mc34992ef0f" y="202.061081"/>
     <use style="fill:#2ca02c;fill-opacity:0.8;stroke:#2ca02c;stroke-linejoin:bevel;stroke-opacity:0.8;" x="315.685126" xlink:href="#mc34992ef0f" y="191.697412"/>
     <use style="fill:#2ca02c;fill-opacity:0.8;stroke:#2ca02c;stroke-linejoin:bevel;stroke-opacity:0.8;" x="332.349317" xlink:href="#mc34992ef0f" y="208.327486"/>
     <use style="fill:#2ca02c;fill-opacity:0.8;stroke:#2ca02c;stroke-linejoin:bevel;stroke-opacity:0.8;" x="349.013507" xlink:href="#mc34992ef0f" y="235.80326"/>
     <use style="fill:#2ca02c;fill-opacity:0.8;stroke:#2ca02c;stroke-linejoin:bevel;stroke-opacity:0.8;" x="365.677698" xlink:href="#mc34992ef0f" y="260.386847"/>
     <use style="fill:#2ca02c;fill-opacity:0.8;stroke:#2ca02c;stroke-linejoin:bevel;stroke-opacity:0.8;" x="382.341889" xlink:href="#mc34992ef0f" y="277.980983"/>
     <use style="fill:#2ca02c;fill-opacity:0.8;stroke:#2ca02c;stroke-linejoin:bevel;stroke-opacity:0.8;" x="399.00608" xlink:href="#mc34992ef0f" y="273.642703"/>
    </g>
   </g>
   <g id="patch_3">
    <path d="M 40.309375 301.48 
L 40.309375 7.2 
" style="fill:none;stroke:#000000;stroke-linecap:square;stroke-linejoin:miter;stroke-width:0.8;"/>
   </g>
   <g id="patch_4">
    <path d="M 416.086875 301.48 
L 416.086875 7.2 
" style="fill:none;stroke:#000000;stroke-linecap:square;stroke-linejoin:miter;stroke-width:0.8;"/>
   </g>
   <g id="patch_5">
    <path d="M 40.309375 301.48 
L 416.086875 301.48 
" style="fill:none;stroke:#000000;stroke-linecap:square;stroke-linejoin:miter;stroke-width:0.8;"/>
   </g>
   <g id="patch_6">
    <path d="M 40.309375 7.2 
L 416.086875 7.2 
" style="fill:none;stroke:#000000;stroke-linecap:square;stroke-linejoin:miter;stroke-width:0.8;"/>
   </g>
  </g>
  <g id="axes_2">
   <g id="matplotlib.axis_3">
    <g id="ytick_7">
     <g id="line2d_17">
      <defs>
       <path d="M 0 0 
L 3.5 0 
" id="m070adf1adb" style="stroke:#000000;stroke-width:0.8;"/>
      </defs>
      <g>
       <use style="stroke:#000000;stroke-width:0.8;" x="416.086875" xlink:href="#m070adf1adb" y="288.406769"/>
      </g>
     </g>
     <g id="text_15">
      <!-- 0.0 -->
      <g transform="translate(423.086875 291.269894)scale(0.08 -0.08)">
       <defs>
        <path d="M 266 2259 
Q 266 3072 433 3567 
Q 600 4063 929 4331 
Q 1259 4600 1759 4600 
Q 2128 4600 2406 4451 
Q 2684 4303 2865 4023 
Q 3047 3744 3150 3342 
Q 3253 2941 3253 2259 
Q 3253 1453 3087 958 
Q 2922 463 2592 192 
Q 2263 -78 1759 -78 
Q 1097 -78 719 397 
Q 266 969 266 2259 
z
M 844 2259 
Q 844 1131 1108 757 
Q 1372 384 1759 384 
Q 2147 384 2411 759 
Q 2675 1134 2675 2259 
Q 2675 3391 2411 3762 
Q 2147 4134 1753 4134 
Q 1366 4134 1134 3806 
Q 844 3388 844 2259 
z
" id="ArialMT-30" transform="scale(0.015625)"/>
        <path d="M 581 0 
L 581 641 
L 1222 641 
L 1222 0 
L 581 0 
z
" id="ArialMT-2e" transform="scale(0.015625)"/>
       </defs>
       <use xlink:href="#ArialMT-30"/>
       <use x="55.615234" xlink:href="#ArialMT-2e"/>
       <use x="83.398438" xlink:href="#ArialMT-30"/>
      </g>
     </g>
    </g>
    <g id="ytick_8">
     <g id="line2d_18">
      <g>
       <use style="stroke:#000000;stroke-width:0.8;" x="416.086875" xlink:href="#m070adf1adb" y="227.780315"/>
      </g>
     </g>
     <g id="text_16">
      <!-- 0.2 -->
      <g transform="translate(423.086875 230.64344)scale(0.08 -0.08)">
       <defs>
        <path d="M 3222 541 
L 3222 0 
L 194 0 
Q 188 203 259 391 
Q 375 700 629 1000 
Q 884 1300 1366 1694 
Q 2113 2306 2375 2664 
Q 2638 3022 2638 3341 
Q 2638 3675 2398 3904 
Q 2159 4134 1775 4134 
Q 1369 4134 1125 3890 
Q 881 3647 878 3216 
L 300 3275 
Q 359 3922 746 4261 
Q 1134 4600 1788 4600 
Q 2447 4600 2831 4234 
Q 3216 3869 3216 3328 
Q 3216 3053 3103 2787 
Q 2991 2522 2730 2228 
Q 2469 1934 1863 1422 
Q 1356 997 1212 845 
Q 1069 694 975 541 
L 3222 541 
z
" id="ArialMT-32" transform="scale(0.015625)"/>
       </defs>
       <use xlink:href="#ArialMT-30"/>
       <use x="55.615234" xlink:href="#ArialMT-2e"/>
       <use x="83.398438" xlink:href="#ArialMT-32"/>
      </g>
     </g>
    </g>
    <g id="ytick_9">
     <g id="line2d_19">
      <g>
       <use style="stroke:#000000;stroke-width:0.8;" x="416.086875" xlink:href="#m070adf1adb" y="167.153861"/>
      </g>
     </g>
     <g id="text_17">
      <!-- 0.4 -->
      <g transform="translate(423.086875 170.016986)scale(0.08 -0.08)">
       <defs>
        <path d="M 2069 0 
L 2069 1097 
L 81 1097 
L 81 1613 
L 2172 4581 
L 2631 4581 
L 2631 1613 
L 3250 1613 
L 3250 1097 
L 2631 1097 
L 2631 0 
L 2069 0 
z
M 2069 1613 
L 2069 3678 
L 634 1613 
L 2069 1613 
z
" id="ArialMT-34" transform="scale(0.015625)"/>
       </defs>
       <use xlink:href="#ArialMT-30"/>
       <use x="55.615234" xlink:href="#ArialMT-2e"/>
       <use x="83.398438" xlink:href="#ArialMT-34"/>
      </g>
     </g>
    </g>
    <g id="ytick_10">
     <g id="line2d_20">
      <g>
       <use style="stroke:#000000;stroke-width:0.8;" x="416.086875" xlink:href="#m070adf1adb" y="106.527407"/>
      </g>
     </g>
     <g id="text_18">
      <!-- 0.6 -->
      <g transform="translate(423.086875 109.390532)scale(0.08 -0.08)">
       <defs>
        <path d="M 3184 3459 
L 2625 3416 
Q 2550 3747 2413 3897 
Q 2184 4138 1850 4138 
Q 1581 4138 1378 3988 
Q 1113 3794 959 3422 
Q 806 3050 800 2363 
Q 1003 2672 1297 2822 
Q 1591 2972 1913 2972 
Q 2475 2972 2870 2558 
Q 3266 2144 3266 1488 
Q 3266 1056 3080 686 
Q 2894 316 2569 119 
Q 2244 -78 1831 -78 
Q 1128 -78 684 439 
Q 241 956 241 2144 
Q 241 3472 731 4075 
Q 1159 4600 1884 4600 
Q 2425 4600 2770 4297 
Q 3116 3994 3184 3459 
z
M 888 1484 
Q 888 1194 1011 928 
Q 1134 663 1356 523 
Q 1578 384 1822 384 
Q 2178 384 2434 671 
Q 2691 959 2691 1453 
Q 2691 1928 2437 2201 
Q 2184 2475 1800 2475 
Q 1419 2475 1153 2201 
Q 888 1928 888 1484 
z
" id="ArialMT-36" transform="scale(0.015625)"/>
       </defs>
       <use xlink:href="#ArialMT-30"/>
       <use x="55.615234" xlink:href="#ArialMT-2e"/>
       <use x="83.398438" xlink:href="#ArialMT-36"/>
      </g>
     </g>
    </g>
    <g id="ytick_11">
     <g id="line2d_21">
      <g>
       <use style="stroke:#000000;stroke-width:0.8;" x="416.086875" xlink:href="#m070adf1adb" y="45.900953"/>
      </g>
     </g>
     <g id="text_19">
      <!-- 0.8 -->
      <g transform="translate(423.086875 48.764078)scale(0.08 -0.08)">
       <defs>
        <path d="M 1131 2484 
Q 781 2613 612 2850 
Q 444 3088 444 3419 
Q 444 3919 803 4259 
Q 1163 4600 1759 4600 
Q 2359 4600 2725 4251 
Q 3091 3903 3091 3403 
Q 3091 3084 2923 2848 
Q 2756 2613 2416 2484 
Q 2838 2347 3058 2040 
Q 3278 1734 3278 1309 
Q 3278 722 2862 322 
Q 2447 -78 1769 -78 
Q 1091 -78 675 323 
Q 259 725 259 1325 
Q 259 1772 486 2073 
Q 713 2375 1131 2484 
z
M 1019 3438 
Q 1019 3113 1228 2906 
Q 1438 2700 1772 2700 
Q 2097 2700 2305 2904 
Q 2513 3109 2513 3406 
Q 2513 3716 2298 3927 
Q 2084 4138 1766 4138 
Q 1444 4138 1231 3931 
Q 1019 3725 1019 3438 
z
M 838 1322 
Q 838 1081 952 856 
Q 1066 631 1291 507 
Q 1516 384 1775 384 
Q 2178 384 2440 643 
Q 2703 903 2703 1303 
Q 2703 1709 2433 1975 
Q 2163 2241 1756 2241 
Q 1359 2241 1098 1978 
Q 838 1716 838 1322 
z
" id="ArialMT-38" transform="scale(0.015625)"/>
       </defs>
       <use xlink:href="#ArialMT-30"/>
       <use x="55.615234" xlink:href="#ArialMT-2e"/>
       <use x="83.398438" xlink:href="#ArialMT-38"/>
      </g>
     </g>
    </g>
    <g id="text_20">
     <!-- Biomass (g/ml) -->
     <g transform="translate(445.486563 187.675937)rotate(-90)scale(0.1 -0.1)">
      <defs>
       <path d="M 469 0 
L 469 4581 
L 2188 4581 
Q 2713 4581 3030 4442 
Q 3347 4303 3526 4014 
Q 3706 3725 3706 3409 
Q 3706 3116 3547 2856 
Q 3388 2597 3066 2438 
Q 3481 2316 3704 2022 
Q 3928 1728 3928 1328 
Q 3928 1006 3792 729 
Q 3656 453 3456 303 
Q 3256 153 2954 76 
Q 2653 0 2216 0 
L 469 0 
z
M 1075 2656 
L 2066 2656 
Q 2469 2656 2644 2709 
Q 2875 2778 2992 2937 
Q 3109 3097 3109 3338 
Q 3109 3566 3000 3739 
Q 2891 3913 2687 3977 
Q 2484 4041 1991 4041 
L 1075 4041 
L 1075 2656 
z
M 1075 541 
L 2216 541 
Q 2509 541 2628 563 
Q 2838 600 2978 687 
Q 3119 775 3209 942 
Q 3300 1109 3300 1328 
Q 3300 1584 3169 1773 
Q 3038 1963 2805 2039 
Q 2572 2116 2134 2116 
L 1075 2116 
L 1075 541 
z
" id="ArialMT-42" transform="scale(0.015625)"/>
       <path d="M 197 991 
L 753 1078 
Q 800 744 1014 566 
Q 1228 388 1613 388 
Q 2000 388 2187 545 
Q 2375 703 2375 916 
Q 2375 1106 2209 1216 
Q 2094 1291 1634 1406 
Q 1016 1563 777 1677 
Q 538 1791 414 1992 
Q 291 2194 291 2438 
Q 291 2659 392 2848 
Q 494 3038 669 3163 
Q 800 3259 1026 3326 
Q 1253 3394 1513 3394 
Q 1903 3394 2198 3281 
Q 2494 3169 2634 2976 
Q 2775 2784 2828 2463 
L 2278 2388 
Q 2241 2644 2061 2787 
Q 1881 2931 1553 2931 
Q 1166 2931 1000 2803 
Q 834 2675 834 2503 
Q 834 2394 903 2306 
Q 972 2216 1119 2156 
Q 1203 2125 1616 2013 
Q 2213 1853 2448 1751 
Q 2684 1650 2818 1456 
Q 2953 1263 2953 975 
Q 2953 694 2789 445 
Q 2625 197 2315 61 
Q 2006 -75 1616 -75 
Q 969 -75 630 194 
Q 291 463 197 991 
z
" id="ArialMT-73" transform="scale(0.015625)"/>
       <path d="M 319 -275 
L 866 -356 
Q 900 -609 1056 -725 
Q 1266 -881 1628 -881 
Q 2019 -881 2231 -725 
Q 2444 -569 2519 -288 
Q 2563 -116 2559 434 
Q 2191 0 1641 0 
Q 956 0 581 494 
Q 206 988 206 1678 
Q 206 2153 378 2554 
Q 550 2956 876 3175 
Q 1203 3394 1644 3394 
Q 2231 3394 2613 2919 
L 2613 3319 
L 3131 3319 
L 3131 450 
Q 3131 -325 2973 -648 
Q 2816 -972 2473 -1159 
Q 2131 -1347 1631 -1347 
Q 1038 -1347 672 -1080 
Q 306 -813 319 -275 
z
M 784 1719 
Q 784 1066 1043 766 
Q 1303 466 1694 466 
Q 2081 466 2343 764 
Q 2606 1063 2606 1700 
Q 2606 2309 2336 2618 
Q 2066 2928 1684 2928 
Q 1309 2928 1046 2623 
Q 784 2319 784 1719 
z
" id="ArialMT-67" transform="scale(0.015625)"/>
       <path d="M 0 -78 
L 1328 4659 
L 1778 4659 
L 453 -78 
L 0 -78 
z
" id="ArialMT-2f" transform="scale(0.015625)"/>
       <path d="M 409 0 
L 409 4581 
L 972 4581 
L 972 0 
L 409 0 
z
" id="ArialMT-6c" transform="scale(0.015625)"/>
      </defs>
      <use xlink:href="#ArialMT-42"/>
      <use x="66.699219" xlink:href="#ArialMT-69"/>
      <use x="88.916016" xlink:href="#ArialMT-6f"/>
      <use x="144.53125" xlink:href="#ArialMT-6d"/>
      <use x="227.832031" xlink:href="#ArialMT-61"/>
      <use x="283.447266" xlink:href="#ArialMT-73"/>
      <use x="333.447266" xlink:href="#ArialMT-73"/>
      <use x="383.447266" xlink:href="#ArialMT-20"/>
      <use x="411.230469" xlink:href="#ArialMT-28"/>
      <use x="444.53125" xlink:href="#ArialMT-67"/>
      <use x="500.146484" xlink:href="#ArialMT-2f"/>
      <use x="527.929688" xlink:href="#ArialMT-6d"/>
      <use x="611.230469" xlink:href="#ArialMT-6c"/>
      <use x="633.447266" xlink:href="#ArialMT-29"/>
     </g>
    </g>
   </g>
   <g id="line2d_22">
    <path clip-path="url(#p8d9c21068f)" d="M 57.39017 288.103636 
L 60.723009 288.097452 
L 64.055847 288.090856 
L 67.388685 288.083815 
L 70.721523 288.076297 
L 74.054361 288.068263 
L 77.387199 288.059671 
L 80.720037 288.050476 
L 84.052876 288.040626 
L 87.385714 288.030063 
L 90.718552 288.018724 
L 94.05139 288.006537 
L 97.384228 287.993422 
L 100.717066 287.979287 
L 104.049904 287.964029 
L 107.382743 287.947532 
L 110.715581 287.929663 
L 114.048419 287.910267 
L 117.381257 287.889169 
L 120.714095 287.866165 
L 124.046933 287.841019 
L 127.379771 287.813453 
L 130.712609 287.783143 
L 134.045448 287.749703 
L 137.378286 287.712675 
L 140.711124 287.671509 
L 144.043962 287.625538 
L 147.3768 287.57395 
L 150.709638 287.515743 
L 154.042476 287.449671 
L 157.375315 287.374141 
L 160.708153 287.287204 
L 164.040991 287.186206 
L 167.373829 287.067741 
L 170.706667 286.927211 
L 174.039505 286.758316 
L 177.372343 286.552196 
L 180.705182 286.296024 
L 184.03802 285.970578 
L 187.370858 285.563004 
L 190.703696 285.08761 
L 194.036534 284.534484 
L 197.369372 283.890843 
L 200.70221 283.141868 
L 204.035049 282.27039 
L 207.367887 281.25653 
L 210.700725 280.077297 
L 214.033563 278.706133 
L 217.366401 277.112406 
L 220.699239 275.260852 
L 224.032077 273.110966 
L 227.364915 270.616353 
L 230.697754 267.724051 
L 234.030592 264.37385 
L 237.36343 260.497664 
L 240.696268 256.018995 
L 244.029106 250.852609 
L 247.361944 244.90458 
L 250.694782 238.07288 
L 254.027621 230.248874 
L 257.360459 221.320159 
L 260.693297 211.175361 
L 264.026135 199.711861 
L 267.358973 186.847582 
L 270.691811 172.538497 
L 274.024649 156.803686 
L 277.357488 139.759624 
L 280.690326 121.663888 
L 284.023164 102.963776 
L 287.356002 84.334269 
L 290.68884 66.670508 
L 294.021678 50.981706 
L 297.354516 38.156101 
L 300.687354 28.684465 
L 304.020193 22.607164 
L 307.353031 20.617501 
L 310.685869 20.576364 
L 314.018707 20.576364 
L 317.351545 20.576364 
L 320.684383 20.576364 
L 324.017221 20.576364 
L 327.35006 20.576364 
L 330.682898 20.576364 
L 334.015736 20.576364 
L 337.348574 20.576364 
L 340.681412 20.576364 
L 344.01425 20.576364 
L 347.347088 20.576364 
L 350.679927 20.576364 
L 354.012765 20.576364 
L 357.345603 20.576364 
L 360.678441 20.576364 
L 364.011279 20.576364 
L 367.344117 20.576364 
L 370.676955 20.576364 
L 374.009794 20.576364 
L 377.342632 20.576364 
L 380.67547 20.576364 
L 384.008308 20.576364 
L 387.341146 20.576364 
L 390.673984 20.576364 
" style="fill:none;stroke:#ff7f0e;stroke-linecap:square;"/>
   </g>
   <g id="line2d_23">
    <defs>
     <path d="M 0 -3 
L -0.673542 -0.927051 
L -2.85317 -0.927051 
L -1.089814 0.354102 
L -1.763356 2.427051 
L -0 1.145898 
L 1.763356 2.427051 
L 1.089814 0.354102 
L 2.85317 -0.927051 
L 0.673542 -0.927051 
z
" id="m8b2afde38f" style="stroke:#ff7f0e;stroke-linejoin:bevel;stroke-opacity:0.8;"/>
    </defs>
    <g clip-path="url(#p8d9c21068f)">
     <use style="fill:#ff7f0e;fill-opacity:0.8;stroke:#ff7f0e;stroke-linejoin:bevel;stroke-opacity:0.8;" x="57.39017" xlink:href="#m8b2afde38f" y="288.103636"/>
     <use style="fill:#ff7f0e;fill-opacity:0.8;stroke:#ff7f0e;stroke-linejoin:bevel;stroke-opacity:0.8;" x="115.714838" xlink:href="#m8b2afde38f" y="284.061064"/>
     <use style="fill:#ff7f0e;fill-opacity:0.8;stroke:#ff7f0e;stroke-linejoin:bevel;stroke-opacity:0.8;" x="140.711124" xlink:href="#m8b2afde38f" y="281.087943"/>
     <use style="fill:#ff7f0e;fill-opacity:0.8;stroke:#ff7f0e;stroke-linejoin:bevel;stroke-opacity:0.8;" x="157.375315" xlink:href="#m8b2afde38f" y="278.084812"/>
     <use style="fill:#ff7f0e;fill-opacity:0.8;stroke:#ff7f0e;stroke-linejoin:bevel;stroke-opacity:0.8;" x="174.039505" xlink:href="#m8b2afde38f" y="275.08168"/>
     <use style="fill:#ff7f0e;fill-opacity:0.8;stroke:#ff7f0e;stroke-linejoin:bevel;stroke-opacity:0.8;" x="199.035791" xlink:href="#m8b2afde38f" y="264.401421"/>
     <use style="fill:#ff7f0e;fill-opacity:0.8;stroke:#ff7f0e;stroke-linejoin:bevel;stroke-opacity:0.8;" x="215.699982" xlink:href="#m8b2afde38f" y="253.691455"/>
     <use style="fill:#ff7f0e;fill-opacity:0.8;stroke:#ff7f0e;stroke-linejoin:bevel;stroke-opacity:0.8;" x="232.364173" xlink:href="#m8b2afde38f" y="241.430361"/>
     <use style="fill:#ff7f0e;fill-opacity:0.8;stroke:#ff7f0e;stroke-linejoin:bevel;stroke-opacity:0.8;" x="249.028363" xlink:href="#m8b2afde38f" y="221.482439"/>
     <use style="fill:#ff7f0e;fill-opacity:0.8;stroke:#ff7f0e;stroke-linejoin:bevel;stroke-opacity:0.8;" x="265.692554" xlink:href="#m8b2afde38f" y="195.349103"/>
     <use style="fill:#ff7f0e;fill-opacity:0.8;stroke:#ff7f0e;stroke-linejoin:bevel;stroke-opacity:0.8;" x="282.356745" xlink:href="#m8b2afde38f" y="155.353528"/>
     <use style="fill:#ff7f0e;fill-opacity:0.8;stroke:#ff7f0e;stroke-linejoin:bevel;stroke-opacity:0.8;" x="299.020935" xlink:href="#m8b2afde38f" y="110.72397"/>
     <use style="fill:#ff7f0e;fill-opacity:0.8;stroke:#ff7f0e;stroke-linejoin:bevel;stroke-opacity:0.8;" x="315.685126" xlink:href="#m8b2afde38f" y="66.104113"/>
     <use style="fill:#ff7f0e;fill-opacity:0.8;stroke:#ff7f0e;stroke-linejoin:bevel;stroke-opacity:0.8;" x="332.349317" xlink:href="#m8b2afde38f" y="70.797813"/>
     <use style="fill:#ff7f0e;fill-opacity:0.8;stroke:#ff7f0e;stroke-linejoin:bevel;stroke-opacity:0.8;" x="349.013507" xlink:href="#m8b2afde38f" y="70.88754"/>
     <use style="fill:#ff7f0e;fill-opacity:0.8;stroke:#ff7f0e;stroke-linejoin:bevel;stroke-opacity:0.8;" x="365.677698" xlink:href="#m8b2afde38f" y="67.874405"/>
     <use style="fill:#ff7f0e;fill-opacity:0.8;stroke:#ff7f0e;stroke-linejoin:bevel;stroke-opacity:0.8;" x="382.341889" xlink:href="#m8b2afde38f" y="64.86127"/>
     <use style="fill:#ff7f0e;fill-opacity:0.8;stroke:#ff7f0e;stroke-linejoin:bevel;stroke-opacity:0.8;" x="399.00608" xlink:href="#m8b2afde38f" y="64.950694"/>
    </g>
   </g>
   <g id="patch_7">
    <path d="M 40.309375 301.48 
L 40.309375 7.2 
" style="fill:none;stroke:#000000;stroke-linecap:square;stroke-linejoin:miter;stroke-width:0.8;"/>
   </g>
   <g id="patch_8">
    <path d="M 416.086875 301.48 
L 416.086875 7.2 
" style="fill:none;stroke:#000000;stroke-linecap:square;stroke-linejoin:miter;stroke-width:0.8;"/>
   </g>
   <g id="patch_9">
    <path d="M 40.309375 301.48 
L 416.086875 301.48 
" style="fill:none;stroke:#000000;stroke-linecap:square;stroke-linejoin:miter;stroke-width:0.8;"/>
   </g>
   <g id="patch_10">
    <path d="M 40.309375 7.2 
L 416.086875 7.2 
" style="fill:none;stroke:#000000;stroke-linecap:square;stroke-linejoin:miter;stroke-width:0.8;"/>
   </g>
  </g>
  <g id="legend_1">
   <g id="patch_11">
    <path d="M 463.196875 268.88 
L 518.584375 268.88 
Q 520.184375 268.88 520.184375 267.28 
L 520.184375 234.0375 
Q 520.184375 232.4375 518.584375 232.4375 
L 463.196875 232.4375 
Q 461.596875 232.4375 461.596875 234.0375 
L 461.596875 267.28 
Q 461.596875 268.88 463.196875 268.88 
z
" style="fill:#ffffff;opacity:0.8;stroke:#cccccc;stroke-linejoin:miter;"/>
   </g>
   <g id="line2d_24">
    <path d="M 464.796875 238.56375 
L 480.796875 238.56375 
" style="fill:none;stroke:#1f77b4;stroke-linecap:square;"/>
   </g>
   <g id="line2d_25"/>
   <g id="text_21">
    <!-- glc -->
    <g transform="translate(487.196875 241.36375)scale(0.08 -0.08)">
     <use xlink:href="#ArialMT-67"/>
     <use x="55.615234" xlink:href="#ArialMT-6c"/>
     <use x="77.832031" xlink:href="#ArialMT-63"/>
    </g>
   </g>
   <g id="line2d_26">
    <path d="M 464.796875 249.97375 
L 480.796875 249.97375 
" style="fill:none;stroke:#2ca02c;stroke-linecap:square;"/>
   </g>
   <g id="line2d_27"/>
   <g id="text_22">
    <!-- ac -->
    <g transform="translate(487.196875 252.77375)scale(0.08 -0.08)">
     <use xlink:href="#ArialMT-61"/>
     <use x="55.615234" xlink:href="#ArialMT-63"/>
    </g>
   </g>
   <g id="line2d_28">
    <path d="M 464.796875 261.29 
L 480.796875 261.29 
" style="fill:none;stroke:#ff7f0e;stroke-linecap:square;"/>
   </g>
   <g id="line2d_29"/>
   <g id="text_23">
    <!-- biomass -->
    <g transform="translate(487.196875 264.09)scale(0.08 -0.08)">
     <defs>
      <path d="M 941 0 
L 419 0 
L 419 4581 
L 981 4581 
L 981 2947 
Q 1338 3394 1891 3394 
Q 2197 3394 2470 3270 
Q 2744 3147 2920 2923 
Q 3097 2700 3197 2384 
Q 3297 2069 3297 1709 
Q 3297 856 2875 390 
Q 2453 -75 1863 -75 
Q 1275 -75 941 416 
L 941 0 
z
M 934 1684 
Q 934 1088 1097 822 
Q 1363 388 1816 388 
Q 2184 388 2453 708 
Q 2722 1028 2722 1663 
Q 2722 2313 2464 2622 
Q 2206 2931 1841 2931 
Q 1472 2931 1203 2611 
Q 934 2291 934 1684 
z
" id="ArialMT-62" transform="scale(0.015625)"/>
     </defs>
     <use xlink:href="#ArialMT-62"/>
     <use x="55.615234" xlink:href="#ArialMT-69"/>
     <use x="77.832031" xlink:href="#ArialMT-6f"/>
     <use x="133.447266" xlink:href="#ArialMT-6d"/>
     <use x="216.748047" xlink:href="#ArialMT-61"/>
     <use x="272.363281" xlink:href="#ArialMT-73"/>
     <use x="322.363281" xlink:href="#ArialMT-73"/>
    </g>
   </g>
  </g>
 </g>
 <defs>
  <clipPath id="p8d9c21068f">
   <rect height="294.28" width="375.7775" x="40.309375" y="7.2"/>
  </clipPath>
 </defs>
</svg>
