<?xml version="1.0" encoding="utf-8" standalone="no"?>
<!DOCTYPE svg PUBLIC "-//W3C//DTD SVG 1.1//EN"
  "http://www.w3.org/Graphics/SVG/1.1/DTD/svg11.dtd">
<svg height="173.1425pt" version="1.1" viewBox="0 0 462.584375 173.1425" width="462.584375pt" xmlns="http://www.w3.org/2000/svg" xmlns:xlink="http://www.w3.org/1999/xlink">
 <metadata>
  <rdf:RDF xmlns:cc="http://creativecommons.org/ns#" xmlns:dc="http://purl.org/dc/elements/1.1/" xmlns:rdf="http://www.w3.org/1999/02/22-rdf-syntax-ns#">
   <cc:Work>
    <dc:type rdf:resource="http://purl.org/dc/dcmitype/StillImage"/>
    <dc:date>2021-11-09T14:44:56.037882</dc:date>
    <dc:format>image/svg+xml</dc:format>
    <dc:creator>
     <cc:Agent>
      <dc:title>Matplotlib v3.4.2, https://matplotlib.org/</dc:title>
     </cc:Agent>
    </dc:creator>
   </cc:Work>
  </rdf:RDF>
 </metadata>
 <defs>
  <style type="text/css">*{stroke-linecap:butt;stroke-linejoin:round;}</style>
 </defs>
 <g id="figure_1">
  <g id="patch_1">
   <path d="M 0 173.1425 
L 462.584375 173.1425 
L 462.584375 0 
L 0 0 
z
" style="fill:#ffffff;"/>
  </g>
  <g id="axes_1">
   <g id="patch_2">
    <path d="M 40.309375 135.88 
L 346.876875 135.88 
L 346.876875 7.2 
L 40.309375 7.2 
z
" style="fill:#ffffff;"/>
   </g>
   <g id="matplotlib.axis_1">
    <g id="xtick_1">
     <g id="line2d_1">
      <defs>
       <path d="M 0 0 
L 0 3.5 
" id="m115507db01" style="stroke:#000000;stroke-width:0.8;"/>
      </defs>
      <g>
       <use style="stroke:#000000;stroke-width:0.8;" x="54.244261" xlink:href="#m115507db01" y="135.88"/>
      </g>
     </g>
     <g id="text_1">
      <!-- 0 -->
      <g transform="translate(51.063011 150.478437)scale(0.1 -0.1)">
       <defs>
        <path d="M 2034 4250 
Q 1547 4250 1301 3770 
Q 1056 3291 1056 2328 
Q 1056 1369 1301 889 
Q 1547 409 2034 409 
Q 2525 409 2770 889 
Q 3016 1369 3016 2328 
Q 3016 3291 2770 3770 
Q 2525 4250 2034 4250 
z
M 2034 4750 
Q 2819 4750 3233 4129 
Q 3647 3509 3647 2328 
Q 3647 1150 3233 529 
Q 2819 -91 2034 -91 
Q 1250 -91 836 529 
Q 422 1150 422 2328 
Q 422 3509 836 4129 
Q 1250 4750 2034 4750 
z
" id="DejaVuSans-30" transform="scale(0.015625)"/>
       </defs>
       <use xlink:href="#DejaVuSans-30"/>
      </g>
     </g>
    </g>
    <g id="xtick_2">
     <g id="line2d_2">
      <g>
       <use style="stroke:#000000;stroke-width:0.8;" x="119.820197" xlink:href="#m115507db01" y="135.88"/>
      </g>
     </g>
     <g id="text_2">
      <!-- 2 -->
      <g transform="translate(116.638947 150.478437)scale(0.1 -0.1)">
       <defs>
        <path d="M 1228 531 
L 3431 531 
L 3431 0 
L 469 0 
L 469 531 
Q 828 903 1448 1529 
Q 2069 2156 2228 2338 
Q 2531 2678 2651 2914 
Q 2772 3150 2772 3378 
Q 2772 3750 2511 3984 
Q 2250 4219 1831 4219 
Q 1534 4219 1204 4116 
Q 875 4013 500 3803 
L 500 4441 
Q 881 4594 1212 4672 
Q 1544 4750 1819 4750 
Q 2544 4750 2975 4387 
Q 3406 4025 3406 3419 
Q 3406 3131 3298 2873 
Q 3191 2616 2906 2266 
Q 2828 2175 2409 1742 
Q 1991 1309 1228 531 
z
" id="DejaVuSans-32" transform="scale(0.015625)"/>
       </defs>
       <use xlink:href="#DejaVuSans-32"/>
      </g>
     </g>
    </g>
    <g id="xtick_3">
     <g id="line2d_3">
      <g>
       <use style="stroke:#000000;stroke-width:0.8;" x="185.396133" xlink:href="#m115507db01" y="135.88"/>
      </g>
     </g>
     <g id="text_3">
      <!-- 4 -->
      <g transform="translate(182.214883 150.478437)scale(0.1 -0.1)">
       <defs>
        <path d="M 2419 4116 
L 825 1625 
L 2419 1625 
L 2419 4116 
z
M 2253 4666 
L 3047 4666 
L 3047 1625 
L 3713 1625 
L 3713 1100 
L 3047 1100 
L 3047 0 
L 2419 0 
L 2419 1100 
L 313 1100 
L 313 1709 
L 2253 4666 
z
" id="DejaVuSans-34" transform="scale(0.015625)"/>
       </defs>
       <use xlink:href="#DejaVuSans-34"/>
      </g>
     </g>
    </g>
    <g id="xtick_4">
     <g id="line2d_4">
      <g>
       <use style="stroke:#000000;stroke-width:0.8;" x="250.972069" xlink:href="#m115507db01" y="135.88"/>
      </g>
     </g>
     <g id="text_4">
      <!-- 6 -->
      <g transform="translate(247.790819 150.478437)scale(0.1 -0.1)">
       <defs>
        <path d="M 2113 2584 
Q 1688 2584 1439 2293 
Q 1191 2003 1191 1497 
Q 1191 994 1439 701 
Q 1688 409 2113 409 
Q 2538 409 2786 701 
Q 3034 994 3034 1497 
Q 3034 2003 2786 2293 
Q 2538 2584 2113 2584 
z
M 3366 4563 
L 3366 3988 
Q 3128 4100 2886 4159 
Q 2644 4219 2406 4219 
Q 1781 4219 1451 3797 
Q 1122 3375 1075 2522 
Q 1259 2794 1537 2939 
Q 1816 3084 2150 3084 
Q 2853 3084 3261 2657 
Q 3669 2231 3669 1497 
Q 3669 778 3244 343 
Q 2819 -91 2113 -91 
Q 1303 -91 875 529 
Q 447 1150 447 2328 
Q 447 3434 972 4092 
Q 1497 4750 2381 4750 
Q 2619 4750 2861 4703 
Q 3103 4656 3366 4563 
z
" id="DejaVuSans-36" transform="scale(0.015625)"/>
       </defs>
       <use xlink:href="#DejaVuSans-36"/>
      </g>
     </g>
    </g>
    <g id="xtick_5">
     <g id="line2d_5">
      <g>
       <use style="stroke:#000000;stroke-width:0.8;" x="316.548005" xlink:href="#m115507db01" y="135.88"/>
      </g>
     </g>
     <g id="text_5">
      <!-- 8 -->
      <g transform="translate(313.366755 150.478437)scale(0.1 -0.1)">
       <defs>
        <path d="M 2034 2216 
Q 1584 2216 1326 1975 
Q 1069 1734 1069 1313 
Q 1069 891 1326 650 
Q 1584 409 2034 409 
Q 2484 409 2743 651 
Q 3003 894 3003 1313 
Q 3003 1734 2745 1975 
Q 2488 2216 2034 2216 
z
M 1403 2484 
Q 997 2584 770 2862 
Q 544 3141 544 3541 
Q 544 4100 942 4425 
Q 1341 4750 2034 4750 
Q 2731 4750 3128 4425 
Q 3525 4100 3525 3541 
Q 3525 3141 3298 2862 
Q 3072 2584 2669 2484 
Q 3125 2378 3379 2068 
Q 3634 1759 3634 1313 
Q 3634 634 3220 271 
Q 2806 -91 2034 -91 
Q 1263 -91 848 271 
Q 434 634 434 1313 
Q 434 1759 690 2068 
Q 947 2378 1403 2484 
z
M 1172 3481 
Q 1172 3119 1398 2916 
Q 1625 2713 2034 2713 
Q 2441 2713 2670 2916 
Q 2900 3119 2900 3481 
Q 2900 3844 2670 4047 
Q 2441 4250 2034 4250 
Q 1625 4250 1398 4047 
Q 1172 3844 1172 3481 
z
" id="DejaVuSans-38" transform="scale(0.015625)"/>
       </defs>
       <use xlink:href="#DejaVuSans-38"/>
      </g>
     </g>
    </g>
    <g id="text_6">
     <!-- Time (h) -->
     <g transform="translate(175.17125 163.837812)scale(0.1 -0.1)">
      <defs>
       <path d="M 1659 0 
L 1659 4041 
L 150 4041 
L 150 4581 
L 3781 4581 
L 3781 4041 
L 2266 4041 
L 2266 0 
L 1659 0 
z
" id="ArialMT-54" transform="scale(0.015625)"/>
       <path d="M 425 3934 
L 425 4581 
L 988 4581 
L 988 3934 
L 425 3934 
z
M 425 0 
L 425 3319 
L 988 3319 
L 988 0 
L 425 0 
z
" id="ArialMT-69" transform="scale(0.015625)"/>
       <path d="M 422 0 
L 422 3319 
L 925 3319 
L 925 2853 
Q 1081 3097 1340 3245 
Q 1600 3394 1931 3394 
Q 2300 3394 2536 3241 
Q 2772 3088 2869 2813 
Q 3263 3394 3894 3394 
Q 4388 3394 4653 3120 
Q 4919 2847 4919 2278 
L 4919 0 
L 4359 0 
L 4359 2091 
Q 4359 2428 4304 2576 
Q 4250 2725 4106 2815 
Q 3963 2906 3769 2906 
Q 3419 2906 3187 2673 
Q 2956 2441 2956 1928 
L 2956 0 
L 2394 0 
L 2394 2156 
Q 2394 2531 2256 2718 
Q 2119 2906 1806 2906 
Q 1569 2906 1367 2781 
Q 1166 2656 1075 2415 
Q 984 2175 984 1722 
L 984 0 
L 422 0 
z
" id="ArialMT-6d" transform="scale(0.015625)"/>
       <path d="M 2694 1069 
L 3275 997 
Q 3138 488 2766 206 
Q 2394 -75 1816 -75 
Q 1088 -75 661 373 
Q 234 822 234 1631 
Q 234 2469 665 2931 
Q 1097 3394 1784 3394 
Q 2450 3394 2872 2941 
Q 3294 2488 3294 1666 
Q 3294 1616 3291 1516 
L 816 1516 
Q 847 969 1125 678 
Q 1403 388 1819 388 
Q 2128 388 2347 550 
Q 2566 713 2694 1069 
z
M 847 1978 
L 2700 1978 
Q 2663 2397 2488 2606 
Q 2219 2931 1791 2931 
Q 1403 2931 1139 2672 
Q 875 2413 847 1978 
z
" id="ArialMT-65" transform="scale(0.015625)"/>
       <path id="ArialMT-20" transform="scale(0.015625)"/>
       <path d="M 1497 -1347 
Q 1031 -759 709 28 
Q 388 816 388 1659 
Q 388 2403 628 3084 
Q 909 3875 1497 4659 
L 1900 4659 
Q 1522 4009 1400 3731 
Q 1209 3300 1100 2831 
Q 966 2247 966 1656 
Q 966 153 1900 -1347 
L 1497 -1347 
z
" id="ArialMT-28" transform="scale(0.015625)"/>
       <path d="M 422 0 
L 422 4581 
L 984 4581 
L 984 2938 
Q 1378 3394 1978 3394 
Q 2347 3394 2619 3248 
Q 2891 3103 3008 2847 
Q 3125 2591 3125 2103 
L 3125 0 
L 2563 0 
L 2563 2103 
Q 2563 2525 2380 2717 
Q 2197 2909 1863 2909 
Q 1613 2909 1392 2779 
Q 1172 2650 1078 2428 
Q 984 2206 984 1816 
L 984 0 
L 422 0 
z
" id="ArialMT-68" transform="scale(0.015625)"/>
       <path d="M 791 -1347 
L 388 -1347 
Q 1322 153 1322 1656 
Q 1322 2244 1188 2822 
Q 1081 3291 891 3722 
Q 769 4003 388 4659 
L 791 4659 
Q 1378 3875 1659 3084 
Q 1900 2403 1900 1659 
Q 1900 816 1576 28 
Q 1253 -759 791 -1347 
z
" id="ArialMT-29" transform="scale(0.015625)"/>
      </defs>
      <use xlink:href="#ArialMT-54"/>
      <use x="57.333984" xlink:href="#ArialMT-69"/>
      <use x="79.550781" xlink:href="#ArialMT-6d"/>
      <use x="162.851562" xlink:href="#ArialMT-65"/>
      <use x="218.466797" xlink:href="#ArialMT-20"/>
      <use x="246.25" xlink:href="#ArialMT-28"/>
      <use x="279.550781" xlink:href="#ArialMT-68"/>
      <use x="335.166016" xlink:href="#ArialMT-29"/>
     </g>
    </g>
   </g>
   <g id="matplotlib.axis_2">
    <g id="ytick_1">
     <g id="line2d_6">
      <defs>
       <path d="M 0 0 
L -3.5 0 
" id="m39530449b5" style="stroke:#000000;stroke-width:0.8;"/>
      </defs>
      <g>
       <use style="stroke:#000000;stroke-width:0.8;" x="40.309375" xlink:href="#m39530449b5" y="130.030909"/>
      </g>
     </g>
     <g id="text_7">
      <!-- 0 -->
      <g transform="translate(26.946875 133.830128)scale(0.1 -0.1)">
       <use xlink:href="#DejaVuSans-30"/>
      </g>
     </g>
    </g>
    <g id="ytick_2">
     <g id="line2d_7">
      <g>
       <use style="stroke:#000000;stroke-width:0.8;" x="40.309375" xlink:href="#m39530449b5" y="107.909253"/>
      </g>
     </g>
     <g id="text_8">
      <!-- 5 -->
      <g transform="translate(26.946875 111.708472)scale(0.1 -0.1)">
       <defs>
        <path d="M 691 4666 
L 3169 4666 
L 3169 4134 
L 1269 4134 
L 1269 2991 
Q 1406 3038 1543 3061 
Q 1681 3084 1819 3084 
Q 2600 3084 3056 2656 
Q 3513 2228 3513 1497 
Q 3513 744 3044 326 
Q 2575 -91 1722 -91 
Q 1428 -91 1123 -41 
Q 819 9 494 109 
L 494 744 
Q 775 591 1075 516 
Q 1375 441 1709 441 
Q 2250 441 2565 725 
Q 2881 1009 2881 1497 
Q 2881 1984 2565 2268 
Q 2250 2553 1709 2553 
Q 1456 2553 1204 2497 
Q 953 2441 691 2322 
L 691 4666 
z
" id="DejaVuSans-35" transform="scale(0.015625)"/>
       </defs>
       <use xlink:href="#DejaVuSans-35"/>
      </g>
     </g>
    </g>
    <g id="ytick_3">
     <g id="line2d_8">
      <g>
       <use style="stroke:#000000;stroke-width:0.8;" x="40.309375" xlink:href="#m39530449b5" y="85.787598"/>
      </g>
     </g>
     <g id="text_9">
      <!-- 10 -->
      <g transform="translate(20.584375 89.586817)scale(0.1 -0.1)">
       <defs>
        <path d="M 794 531 
L 1825 531 
L 1825 4091 
L 703 3866 
L 703 4441 
L 1819 4666 
L 2450 4666 
L 2450 531 
L 3481 531 
L 3481 0 
L 794 0 
L 794 531 
z
" id="DejaVuSans-31" transform="scale(0.015625)"/>
       </defs>
       <use xlink:href="#DejaVuSans-31"/>
       <use x="63.623047" xlink:href="#DejaVuSans-30"/>
      </g>
     </g>
    </g>
    <g id="ytick_4">
     <g id="line2d_9">
      <g>
       <use style="stroke:#000000;stroke-width:0.8;" x="40.309375" xlink:href="#m39530449b5" y="63.665942"/>
      </g>
     </g>
     <g id="text_10">
      <!-- 15 -->
      <g transform="translate(20.584375 67.465161)scale(0.1 -0.1)">
       <use xlink:href="#DejaVuSans-31"/>
       <use x="63.623047" xlink:href="#DejaVuSans-35"/>
      </g>
     </g>
    </g>
    <g id="ytick_5">
     <g id="line2d_10">
      <g>
       <use style="stroke:#000000;stroke-width:0.8;" x="40.309375" xlink:href="#m39530449b5" y="41.544286"/>
      </g>
     </g>
     <g id="text_11">
      <!-- 20 -->
      <g transform="translate(20.584375 45.343505)scale(0.1 -0.1)">
       <use xlink:href="#DejaVuSans-32"/>
       <use x="63.623047" xlink:href="#DejaVuSans-30"/>
      </g>
     </g>
    </g>
    <g id="ytick_6">
     <g id="line2d_11">
      <g>
       <use style="stroke:#000000;stroke-width:0.8;" x="40.309375" xlink:href="#m39530449b5" y="19.422631"/>
      </g>
     </g>
     <g id="text_12">
      <!-- 25 -->
      <g transform="translate(20.584375 23.22185)scale(0.1 -0.1)">
       <use xlink:href="#DejaVuSans-32"/>
       <use x="63.623047" xlink:href="#DejaVuSans-35"/>
      </g>
     </g>
    </g>
    <g id="text_13">
     <!-- Concentration (mM) -->
     <g transform="translate(14.479688 115.716562)rotate(-90)scale(0.1 -0.1)">
      <defs>
       <path d="M 3763 1606 
L 4369 1453 
Q 4178 706 3683 314 
Q 3188 -78 2472 -78 
Q 1731 -78 1267 223 
Q 803 525 561 1097 
Q 319 1669 319 2325 
Q 319 3041 592 3573 
Q 866 4106 1370 4382 
Q 1875 4659 2481 4659 
Q 3169 4659 3637 4309 
Q 4106 3959 4291 3325 
L 3694 3184 
Q 3534 3684 3231 3912 
Q 2928 4141 2469 4141 
Q 1941 4141 1586 3887 
Q 1231 3634 1087 3207 
Q 944 2781 944 2328 
Q 944 1744 1114 1308 
Q 1284 872 1643 656 
Q 2003 441 2422 441 
Q 2931 441 3284 734 
Q 3638 1028 3763 1606 
z
" id="ArialMT-43" transform="scale(0.015625)"/>
       <path d="M 213 1659 
Q 213 2581 725 3025 
Q 1153 3394 1769 3394 
Q 2453 3394 2887 2945 
Q 3322 2497 3322 1706 
Q 3322 1066 3130 698 
Q 2938 331 2570 128 
Q 2203 -75 1769 -75 
Q 1072 -75 642 372 
Q 213 819 213 1659 
z
M 791 1659 
Q 791 1022 1069 705 
Q 1347 388 1769 388 
Q 2188 388 2466 706 
Q 2744 1025 2744 1678 
Q 2744 2294 2464 2611 
Q 2184 2928 1769 2928 
Q 1347 2928 1069 2612 
Q 791 2297 791 1659 
z
" id="ArialMT-6f" transform="scale(0.015625)"/>
       <path d="M 422 0 
L 422 3319 
L 928 3319 
L 928 2847 
Q 1294 3394 1984 3394 
Q 2284 3394 2536 3286 
Q 2788 3178 2913 3003 
Q 3038 2828 3088 2588 
Q 3119 2431 3119 2041 
L 3119 0 
L 2556 0 
L 2556 2019 
Q 2556 2363 2490 2533 
Q 2425 2703 2258 2804 
Q 2091 2906 1866 2906 
Q 1506 2906 1245 2678 
Q 984 2450 984 1813 
L 984 0 
L 422 0 
z
" id="ArialMT-6e" transform="scale(0.015625)"/>
       <path d="M 2588 1216 
L 3141 1144 
Q 3050 572 2676 248 
Q 2303 -75 1759 -75 
Q 1078 -75 664 370 
Q 250 816 250 1647 
Q 250 2184 428 2587 
Q 606 2991 970 3192 
Q 1334 3394 1763 3394 
Q 2303 3394 2647 3120 
Q 2991 2847 3088 2344 
L 2541 2259 
Q 2463 2594 2264 2762 
Q 2066 2931 1784 2931 
Q 1359 2931 1093 2626 
Q 828 2322 828 1663 
Q 828 994 1084 691 
Q 1341 388 1753 388 
Q 2084 388 2306 591 
Q 2528 794 2588 1216 
z
" id="ArialMT-63" transform="scale(0.015625)"/>
       <path d="M 1650 503 
L 1731 6 
Q 1494 -44 1306 -44 
Q 1000 -44 831 53 
Q 663 150 594 308 
Q 525 466 525 972 
L 525 2881 
L 113 2881 
L 113 3319 
L 525 3319 
L 525 4141 
L 1084 4478 
L 1084 3319 
L 1650 3319 
L 1650 2881 
L 1084 2881 
L 1084 941 
Q 1084 700 1114 631 
Q 1144 563 1211 522 
Q 1278 481 1403 481 
Q 1497 481 1650 503 
z
" id="ArialMT-74" transform="scale(0.015625)"/>
       <path d="M 416 0 
L 416 3319 
L 922 3319 
L 922 2816 
Q 1116 3169 1280 3281 
Q 1444 3394 1641 3394 
Q 1925 3394 2219 3213 
L 2025 2691 
Q 1819 2813 1613 2813 
Q 1428 2813 1281 2702 
Q 1134 2591 1072 2394 
Q 978 2094 978 1738 
L 978 0 
L 416 0 
z
" id="ArialMT-72" transform="scale(0.015625)"/>
       <path d="M 2588 409 
Q 2275 144 1986 34 
Q 1697 -75 1366 -75 
Q 819 -75 525 192 
Q 231 459 231 875 
Q 231 1119 342 1320 
Q 453 1522 633 1644 
Q 813 1766 1038 1828 
Q 1203 1872 1538 1913 
Q 2219 1994 2541 2106 
Q 2544 2222 2544 2253 
Q 2544 2597 2384 2738 
Q 2169 2928 1744 2928 
Q 1347 2928 1158 2789 
Q 969 2650 878 2297 
L 328 2372 
Q 403 2725 575 2942 
Q 747 3159 1072 3276 
Q 1397 3394 1825 3394 
Q 2250 3394 2515 3294 
Q 2781 3194 2906 3042 
Q 3031 2891 3081 2659 
Q 3109 2516 3109 2141 
L 3109 1391 
Q 3109 606 3145 398 
Q 3181 191 3288 0 
L 2700 0 
Q 2613 175 2588 409 
z
M 2541 1666 
Q 2234 1541 1622 1453 
Q 1275 1403 1131 1340 
Q 988 1278 909 1158 
Q 831 1038 831 891 
Q 831 666 1001 516 
Q 1172 366 1500 366 
Q 1825 366 2078 508 
Q 2331 650 2450 897 
Q 2541 1088 2541 1459 
L 2541 1666 
z
" id="ArialMT-61" transform="scale(0.015625)"/>
       <path d="M 475 0 
L 475 4581 
L 1388 4581 
L 2472 1338 
Q 2622 884 2691 659 
Q 2769 909 2934 1394 
L 4031 4581 
L 4847 4581 
L 4847 0 
L 4263 0 
L 4263 3834 
L 2931 0 
L 2384 0 
L 1059 3900 
L 1059 0 
L 475 0 
z
" id="ArialMT-4d" transform="scale(0.015625)"/>
      </defs>
      <use xlink:href="#ArialMT-43"/>
      <use x="72.216797" xlink:href="#ArialMT-6f"/>
      <use x="127.832031" xlink:href="#ArialMT-6e"/>
      <use x="183.447266" xlink:href="#ArialMT-63"/>
      <use x="233.447266" xlink:href="#ArialMT-65"/>
      <use x="289.0625" xlink:href="#ArialMT-6e"/>
      <use x="344.677734" xlink:href="#ArialMT-74"/>
      <use x="372.460938" xlink:href="#ArialMT-72"/>
      <use x="405.761719" xlink:href="#ArialMT-61"/>
      <use x="461.376953" xlink:href="#ArialMT-74"/>
      <use x="489.160156" xlink:href="#ArialMT-69"/>
      <use x="511.376953" xlink:href="#ArialMT-6f"/>
      <use x="566.992188" xlink:href="#ArialMT-6e"/>
      <use x="622.607422" xlink:href="#ArialMT-20"/>
      <use x="650.390625" xlink:href="#ArialMT-28"/>
      <use x="683.691406" xlink:href="#ArialMT-6d"/>
      <use x="766.992188" xlink:href="#ArialMT-4d"/>
      <use x="850.292969" xlink:href="#ArialMT-29"/>
     </g>
    </g>
   </g>
   <g id="line2d_12">
    <path clip-path="url(#p3584f42b26)" d="M 54.244261 15.678966 
L 57.523058 16.280788 
L 60.801855 16.889183 
L 64.080652 17.50514 
L 67.359449 18.129705 
L 70.638245 18.763983 
L 73.917042 19.409141 
L 77.195839 20.066404 
L 80.474636 20.737056 
L 83.753432 21.422445 
L 87.032229 22.123975 
L 90.311026 22.843114 
L 93.589823 23.581387 
L 96.86862 24.340382 
L 100.147416 25.121743 
L 103.426213 25.927175 
L 106.70501 26.758441 
L 109.983807 27.617359 
L 113.262604 28.505801 
L 116.5414 29.425695 
L 119.820197 30.379017 
L 123.098994 31.367788 
L 126.377791 32.394076 
L 129.656588 33.459984 
L 132.935384 34.567647 
L 136.214181 35.719227 
L 139.492978 36.916901 
L 142.771775 38.162852 
L 146.050572 39.45926 
L 149.329368 40.808285 
L 152.608165 42.212053 
L 155.886962 43.672638 
L 159.165759 45.192038 
L 162.444555 46.772156 
L 165.723352 48.414767 
L 169.002149 50.121488 
L 172.280946 51.893746 
L 175.559743 53.732731 
L 178.838539 55.639359 
L 182.117336 57.614214 
L 185.396133 59.6575 
L 188.67493 61.768972 
L 191.953727 63.947876 
L 195.232523 66.192877 
L 198.51132 68.501979 
L 201.790117 70.872449 
L 205.068914 73.300733 
L 208.347711 75.782375 
L 211.626507 78.311939 
L 214.905304 80.882937 
L 218.184101 83.487768 
L 221.462898 86.117679 
L 224.741695 88.762749 
L 228.020491 91.411913 
L 231.299288 94.053025 
L 234.578085 96.67298 
L 237.856882 99.257906 
L 241.135678 101.79342 
L 244.414475 104.264973 
L 247.693272 106.65826 
L 250.972069 108.959702 
L 254.250866 111.156986 
L 257.529662 113.239618 
L 260.808459 115.199483 
L 264.087256 117.031376 
L 267.366053 118.7335 
L 270.64485 120.307961 
L 273.923646 121.76136 
L 277.202443 123.105774 
L 280.48124 124.360842 
L 283.760037 125.559148 
L 287.038834 126.725889 
L 290.31763 127.689563 
L 293.596427 128.513032 
L 296.875224 129.277887 
L 300.154021 130.029982 
L 303.432818 130.030909 
L 306.711614 130.030909 
L 309.990411 130.030909 
L 313.269208 130.030909 
L 316.548005 130.030909 
L 319.826801 130.030909 
L 323.105598 130.030909 
L 326.384395 130.030909 
L 329.663192 130.030909 
L 332.941989 130.030909 
" style="fill:none;stroke:#1f77b4;stroke-linecap:square;"/>
   </g>
   <g id="line2d_13">
    <defs>
     <path d="M 0 -3 
L -0.673542 -0.927051 
L -2.85317 -0.927051 
L -1.089814 0.354102 
L -1.763356 2.427051 
L -0 1.145898 
L 1.763356 2.427051 
L 1.089814 0.354102 
L 2.85317 -0.927051 
L 0.673542 -0.927051 
z
" id="m2ff8dddbcb" style="stroke:#1f77b4;stroke-linejoin:bevel;stroke-opacity:0.8;"/>
    </defs>
    <g clip-path="url(#p3584f42b26)">
     <use style="fill:#1f77b4;fill-opacity:0.8;stroke:#1f77b4;stroke-linejoin:bevel;stroke-opacity:0.8;" x="54.244261" xlink:href="#m2ff8dddbcb" y="15.678966"/>
     <use style="fill:#1f77b4;fill-opacity:0.8;stroke:#1f77b4;stroke-linejoin:bevel;stroke-opacity:0.8;" x="132.322793" xlink:href="#m2ff8dddbcb" y="38.821621"/>
     <use style="fill:#1f77b4;fill-opacity:0.8;stroke:#1f77b4;stroke-linejoin:bevel;stroke-opacity:0.8;" x="210.625518" xlink:href="#m2ff8dddbcb" y="93.274927"/>
     <use style="fill:#1f77b4;fill-opacity:0.8;stroke:#1f77b4;stroke-linejoin:bevel;stroke-opacity:0.8;" x="254.066043" xlink:href="#m2ff8dddbcb" y="115.05625"/>
     <use style="fill:#1f77b4;fill-opacity:0.8;stroke:#1f77b4;stroke-linejoin:bevel;stroke-opacity:0.8;" x="288.107269" xlink:href="#m2ff8dddbcb" y="129.986666"/>
     <use style="fill:#1f77b4;fill-opacity:0.8;stroke:#1f77b4;stroke-linejoin:bevel;stroke-opacity:0.8;" x="332.941989" xlink:href="#m2ff8dddbcb" y="129.986666"/>
    </g>
   </g>
   <g id="line2d_14">
    <path clip-path="url(#p3584f42b26)" d="M 54.244261 123.842927 
L 57.523058 123.358833 
L 60.801855 122.867532 
L 64.080652 122.368159 
L 67.359449 121.859798 
L 70.638245 121.341486 
L 73.917042 120.812213 
L 77.195839 120.270915 
L 80.474636 119.716483 
L 83.753432 119.147752 
L 87.032229 118.563511 
L 90.311026 117.962494 
L 93.589823 117.343385 
L 96.86862 116.704817 
L 100.147416 116.045369 
L 103.426213 115.363573 
L 106.70501 114.657907 
L 109.983807 113.926802 
L 113.262604 113.168638 
L 116.5414 112.381752 
L 119.820197 111.564433 
L 123.098994 110.714932 
L 126.377791 109.831458 
L 129.656588 108.912189 
L 132.935384 107.955273 
L 136.214181 106.958835 
L 139.492978 105.920986 
L 142.771775 104.83983 
L 146.050572 103.713474 
L 149.329368 102.540041 
L 152.608165 101.317684 
L 155.886962 100.044602 
L 159.165759 98.719058 
L 162.444555 97.339402 
L 165.723352 95.904094 
L 169.002149 94.411732 
L 172.280946 92.861086 
L 175.559743 91.251129 
L 178.838539 89.581081 
L 182.117336 87.850452 
L 185.396133 86.05909 
L 188.67493 84.207236 
L 191.953727 82.295586 
L 195.232523 80.325347 
L 198.51132 78.29831 
L 201.790117 76.216921 
L 205.068914 74.084351 
L 208.347711 71.90457 
L 211.626507 69.682417 
L 214.905304 67.423664 
L 218.184101 65.135071 
L 221.462898 62.824419 
L 224.741695 60.500531 
L 228.020491 58.173249 
L 231.299288 55.853382 
L 234.578085 53.552599 
L 237.856882 51.283268 
L 241.135678 49.058231 
L 244.414475 46.890511 
L 247.693272 44.792954 
L 250.972069 42.777818 
L 254.250866 40.856317 
L 257.529662 39.038153 
L 260.808459 37.331056 
L 264.087256 35.740368 
L 267.366053 34.268676 
L 270.64485 32.915499 
L 273.923646 31.67696 
L 277.202443 30.545277 
L 280.48124 29.507632 
L 283.760037 28.543045 
L 287.038834 27.640335 
L 290.31763 26.931677 
L 293.596427 26.356603 
L 296.875224 25.844779 
L 300.154021 25.354856 
L 303.432818 25.354256 
L 306.711614 25.354256 
L 309.990411 25.354256 
L 313.269208 25.354256 
L 316.548005 25.354256 
L 319.826801 25.354256 
L 323.105598 25.354256 
L 326.384395 25.354256 
L 329.663192 25.354256 
L 332.941989 25.354256 
" style="fill:none;stroke:#2ca02c;stroke-linecap:square;"/>
   </g>
   <g id="line2d_15">
    <defs>
     <path d="M 0 -3 
L -0.673542 -0.927051 
L -2.85317 -0.927051 
L -1.089814 0.354102 
L -1.763356 2.427051 
L -0 1.145898 
L 1.763356 2.427051 
L 1.089814 0.354102 
L 2.85317 -0.927051 
L 0.673542 -0.927051 
z
" id="m1850a66a43" style="stroke:#2ca02c;stroke-linejoin:bevel;stroke-opacity:0.8;"/>
    </defs>
    <g clip-path="url(#p3584f42b26)">
     <use style="fill:#2ca02c;fill-opacity:0.8;stroke:#2ca02c;stroke-linejoin:bevel;stroke-opacity:0.8;" x="54.244261" xlink:href="#m1850a66a43" y="123.842927"/>
     <use style="fill:#2ca02c;fill-opacity:0.8;stroke:#2ca02c;stroke-linejoin:bevel;stroke-opacity:0.8;" x="132.322793" xlink:href="#m1850a66a43" y="110.235448"/>
     <use style="fill:#2ca02c;fill-opacity:0.8;stroke:#2ca02c;stroke-linejoin:bevel;stroke-opacity:0.8;" x="210.625518" xlink:href="#m1850a66a43" y="81.18082"/>
     <use style="fill:#2ca02c;fill-opacity:0.8;stroke:#2ca02c;stroke-linejoin:bevel;stroke-opacity:0.8;" x="254.066043" xlink:href="#m1850a66a43" y="63.554447"/>
     <use style="fill:#2ca02c;fill-opacity:0.8;stroke:#2ca02c;stroke-linejoin:bevel;stroke-opacity:0.8;" x="288.107269" xlink:href="#m1850a66a43" y="40.819568"/>
     <use style="fill:#2ca02c;fill-opacity:0.8;stroke:#2ca02c;stroke-linejoin:bevel;stroke-opacity:0.8;" x="332.941989" xlink:href="#m1850a66a43" y="42.73019"/>
    </g>
   </g>
   <g id="line2d_16">
    <path clip-path="url(#p3584f42b26)" d="M 54.244261 126.98318 
L 57.523058 126.27505 
L 60.801855 125.562681 
L 64.080652 124.844198 
L 67.359449 124.117698 
L 70.638245 123.381242 
L 73.917042 122.632853 
L 77.195839 121.870512 
L 80.474636 121.092159 
L 83.753432 120.295682 
L 87.032229 119.478921 
L 90.311026 118.639666 
L 93.589823 117.77565 
L 96.86862 116.884552 
L 100.147416 115.963994 
L 103.426213 115.011543 
L 106.70501 114.02471 
L 109.983807 113.000948 
L 113.262604 111.937659 
L 116.5414 110.832196 
L 119.820197 109.681862 
L 123.098994 108.483923 
L 126.377791 107.235606 
L 129.656588 105.934117 
L 132.935384 104.576644 
L 136.214181 103.160371 
L 139.492978 101.682496 
L 142.771775 100.140245 
L 146.050572 98.530897 
L 149.329368 96.851803 
L 152.608165 95.10042 
L 155.886962 93.274341 
L 159.165759 91.371334 
L 162.444555 89.389385 
L 165.723352 87.326749 
L 169.002149 85.182003 
L 172.280946 82.954115 
L 175.559743 80.642512 
L 178.838539 78.247158 
L 182.117336 75.76865 
L 185.396133 73.208308 
L 188.67493 70.568287 
L 191.953727 67.851692 
L 195.232523 65.062704 
L 198.51132 62.206706 
L 201.790117 59.290429 
L 205.068914 56.322083 
L 208.347711 53.3115 
L 211.626507 50.270262 
L 214.905304 47.211817 
L 218.184101 44.151572 
L 221.462898 41.106947 
L 224.741695 38.097389 
L 228.020491 35.144305 
L 231.299288 32.270935 
L 234.578085 29.502112 
L 237.856882 26.863908 
L 241.135678 24.383169 
L 244.414475 22.086912 
L 247.693272 20.001608 
L 250.972069 18.15238 
L 254.250866 16.562147 
L 257.529662 15.250784 
L 260.808459 14.234381 
L 264.087256 13.524672 
L 267.366053 13.128745 
L 270.64485 13.049091 
L 273.923646 13.284075 
L 277.202443 13.82891 
L 280.48124 14.677261 
L 283.760037 15.823896 
L 287.038834 17.300476 
L 290.31763 19.256014 
L 293.596427 21.52566 
L 296.875224 23.964159 
L 300.154021 26.471458 
L 303.432818 29.019637 
L 306.711614 31.544923 
L 309.990411 34.045374 
L 313.269208 36.519195 
L 316.548005 38.964694 
L 319.826801 41.380268 
L 323.105598 43.764417 
L 326.384395 46.115738 
L 329.663192 48.432929 
L 332.941989 50.714785 
" style="fill:none;stroke:#d62728;stroke-linecap:square;"/>
   </g>
   <g id="line2d_17">
    <defs>
     <path d="M 0 -3 
L -0.673542 -0.927051 
L -2.85317 -0.927051 
L -1.089814 0.354102 
L -1.763356 2.427051 
L -0 1.145898 
L 1.763356 2.427051 
L 1.089814 0.354102 
L 2.85317 -0.927051 
L 0.673542 -0.927051 
z
" id="m0524447a78" style="stroke:#d62728;stroke-linejoin:bevel;stroke-opacity:0.8;"/>
    </defs>
    <g clip-path="url(#p3584f42b26)">
     <use style="fill:#d62728;fill-opacity:0.8;stroke:#d62728;stroke-linejoin:bevel;stroke-opacity:0.8;" x="54.244261" xlink:href="#m0524447a78" y="126.98318"/>
     <use style="fill:#d62728;fill-opacity:0.8;stroke:#d62728;stroke-linejoin:bevel;stroke-opacity:0.8;" x="132.322793" xlink:href="#m0524447a78" y="102.214213"/>
     <use style="fill:#d62728;fill-opacity:0.8;stroke:#d62728;stroke-linejoin:bevel;stroke-opacity:0.8;" x="210.625518" xlink:href="#m0524447a78" y="46.914818"/>
     <use style="fill:#d62728;fill-opacity:0.8;stroke:#d62728;stroke-linejoin:bevel;stroke-opacity:0.8;" x="254.066043" xlink:href="#m0524447a78" y="26.874955"/>
     <use style="fill:#d62728;fill-opacity:0.8;stroke:#d62728;stroke-linejoin:bevel;stroke-opacity:0.8;" x="288.107269" xlink:href="#m0524447a78" y="28.241309"/>
     <use style="fill:#d62728;fill-opacity:0.8;stroke:#d62728;stroke-linejoin:bevel;stroke-opacity:0.8;" x="332.941989" xlink:href="#m0524447a78" y="52.433371"/>
    </g>
   </g>
   <g id="line2d_18">
    <path clip-path="url(#p3584f42b26)" d="M 54.244261 127.745463 
L 57.523058 127.327302 
L 60.801855 126.90057 
L 64.080652 126.464394 
L 67.359449 126.017862 
L 70.638245 125.56002 
L 73.917042 125.089868 
L 77.195839 124.606367 
L 80.474636 124.10843 
L 83.753432 123.594924 
L 87.032229 123.064672 
L 90.311026 122.516447 
L 93.589823 121.948974 
L 96.86862 121.360933 
L 100.147416 120.750952 
L 103.426213 120.117612 
L 106.70501 119.459445 
L 109.983807 118.774936 
L 113.262604 118.062523 
L 116.5414 117.3206 
L 119.820197 116.547516 
L 123.098994 115.741581 
L 126.377791 114.901066 
L 129.656588 114.02421 
L 132.935384 113.109223 
L 136.214181 112.154293 
L 139.492978 111.157594 
L 142.771775 110.117291 
L 146.050572 109.031555 
L 149.329368 107.898572 
L 152.608165 106.716558 
L 155.886962 105.483773 
L 159.165759 104.198544 
L 162.444555 102.859281 
L 165.723352 101.464508 
L 169.002149 100.012882 
L 172.280946 98.503233 
L 175.559743 96.934595 
L 178.838539 95.306248 
L 182.117336 93.617758 
L 185.396133 91.869031 
L 188.67493 90.060366 
L 191.953727 88.192513 
L 195.232523 86.266735 
L 198.51132 84.284879 
L 201.790117 82.249444 
L 205.068914 80.163657 
L 208.347711 78.031545 
L 211.626507 75.858004 
L 214.905304 73.648872 
L 218.184101 71.410975 
L 221.462898 69.152178 
L 224.741695 66.881394 
L 228.020491 64.608579 
L 231.299288 62.344682 
L 234.578085 60.10155 
L 237.856882 57.891782 
L 241.135678 55.728516 
L 244.414475 53.625167 
L 247.693272 51.595094 
L 250.972069 49.651231 
L 254.250866 47.805689 
L 257.529662 46.069357 
L 260.808459 44.45155 
L 264.087256 42.959738 
L 267.366053 41.599401 
L 270.64485 40.374058 
L 273.923646 39.285506 
L 277.202443 38.334319 
L 280.48124 37.520723 
L 283.760037 36.846112 
L 287.038834 36.330111 
L 290.31763 36.043948 
L 293.596427 35.91144 
L 296.875224 35.865575 
L 300.154021 35.859292 
L 303.432818 35.859292 
L 306.711614 35.859292 
L 309.990411 35.859292 
L 313.269208 35.859292 
L 316.548005 35.859292 
L 319.826801 35.859292 
L 323.105598 35.859292 
L 326.384395 35.859292 
L 329.663192 35.859292 
L 332.941989 35.859292 
" style="fill:none;stroke:#9467bd;stroke-linecap:square;"/>
   </g>
   <g id="line2d_19">
    <defs>
     <path d="M 0 -3 
L -0.673542 -0.927051 
L -2.85317 -0.927051 
L -1.089814 0.354102 
L -1.763356 2.427051 
L -0 1.145898 
L 1.763356 2.427051 
L 1.089814 0.354102 
L 2.85317 -0.927051 
L 0.673542 -0.927051 
z
" id="m8690dedde9" style="stroke:#9467bd;stroke-linejoin:bevel;stroke-opacity:0.8;"/>
    </defs>
    <g clip-path="url(#p3584f42b26)">
     <use style="fill:#9467bd;fill-opacity:0.8;stroke:#9467bd;stroke-linejoin:bevel;stroke-opacity:0.8;" x="54.244261" xlink:href="#m8690dedde9" y="127.745463"/>
     <use style="fill:#9467bd;fill-opacity:0.8;stroke:#9467bd;stroke-linejoin:bevel;stroke-opacity:0.8;" x="132.322793" xlink:href="#m8690dedde9" y="115.004243"/>
     <use style="fill:#9467bd;fill-opacity:0.8;stroke:#9467bd;stroke-linejoin:bevel;stroke-opacity:0.8;" x="210.625518" xlink:href="#m8690dedde9" y="81.84001"/>
     <use style="fill:#9467bd;fill-opacity:0.8;stroke:#9467bd;stroke-linejoin:bevel;stroke-opacity:0.8;" x="254.066043" xlink:href="#m8690dedde9" y="62.410912"/>
     <use style="fill:#9467bd;fill-opacity:0.8;stroke:#9467bd;stroke-linejoin:bevel;stroke-opacity:0.8;" x="288.107269" xlink:href="#m8690dedde9" y="41.869977"/>
     <use style="fill:#9467bd;fill-opacity:0.8;stroke:#9467bd;stroke-linejoin:bevel;stroke-opacity:0.8;" x="332.941989" xlink:href="#m8690dedde9" y="41.707132"/>
    </g>
   </g>
   <g id="line2d_20">
    <path clip-path="url(#p3584f42b26)" d="M 54.244261 130.005971 
L 57.523058 130.005897 
L 60.801855 130.005825 
L 64.080652 130.005756 
L 67.359449 130.00569 
L 70.638245 130.005626 
L 73.917042 130.005566 
L 77.195839 130.005508 
L 80.474636 130.005453 
L 83.753432 130.0054 
L 87.032229 130.00535 
L 90.311026 130.005303 
L 93.589823 130.005257 
L 96.86862 130.005214 
L 100.147416 130.005173 
L 103.426213 130.005135 
L 106.70501 130.005098 
L 109.983807 130.005063 
L 113.262604 130.00503 
L 116.5414 130.004998 
L 119.820197 130.004968 
L 123.098994 130.00494 
L 126.377791 130.004914 
L 129.656588 130.004888 
L 132.935384 130.004864 
L 136.214181 130.004842 
L 139.492978 130.00482 
L 142.771775 130.0048 
L 146.050572 130.00478 
L 149.329368 130.004762 
L 152.608165 130.004745 
L 155.886962 130.004728 
L 159.165759 130.004713 
L 162.444555 130.004698 
L 165.723352 130.004684 
L 169.002149 130.00467 
L 172.280946 130.004657 
L 175.559743 130.004645 
L 178.838539 130.004634 
L 182.117336 130.004623 
L 185.396133 130.004612 
L 188.67493 130.004602 
L 191.953727 130.004592 
L 195.232523 130.004583 
L 198.51132 130.004574 
L 201.790117 130.004566 
L 205.068914 130.004557 
L 208.347711 130.004549 
L 211.626507 130.004542 
L 214.905304 130.004534 
L 218.184101 130.004527 
L 221.462898 130.00452 
L 224.741695 130.004513 
L 228.020491 130.004507 
L 231.299288 130.0045 
L 234.578085 130.004494 
L 237.856882 130.004488 
L 241.135678 130.004481 
L 244.414475 130.004475 
L 247.693272 130.004469 
L 250.972069 130.004463 
L 254.250866 130.004457 
L 257.529662 130.004451 
L 260.808459 130.004446 
L 264.087256 130.00444 
L 267.366053 130.004434 
L 270.64485 130.004428 
L 273.923646 130.004423 
L 277.202443 130.004418 
L 280.48124 130.004413 
L 283.760037 130.004408 
L 287.038834 130.004404 
L 290.31763 130.004401 
L 293.596427 130.0044 
L 296.875224 130.004399 
L 300.154021 130.004399 
L 303.432818 130.004399 
L 306.711614 130.004399 
L 309.990411 130.004399 
L 313.269208 130.004399 
L 316.548005 130.004399 
L 319.826801 130.004399 
L 323.105598 130.004399 
L 326.384395 130.004399 
L 329.663192 130.004399 
L 332.941989 130.004399 
" style="fill:none;stroke:#8c564b;stroke-linecap:square;"/>
   </g>
   <g id="line2d_21">
    <defs>
     <path d="M 0 -3 
L -0.673542 -0.927051 
L -2.85317 -0.927051 
L -1.089814 0.354102 
L -1.763356 2.427051 
L -0 1.145898 
L 1.763356 2.427051 
L 1.089814 0.354102 
L 2.85317 -0.927051 
L 0.673542 -0.927051 
z
" id="m1d57c6cda7" style="stroke:#8c564b;stroke-linejoin:bevel;stroke-opacity:0.8;"/>
    </defs>
    <g clip-path="url(#p3584f42b26)">
     <use style="fill:#8c564b;fill-opacity:0.8;stroke:#8c564b;stroke-linejoin:bevel;stroke-opacity:0.8;" x="54.244261" xlink:href="#m1d57c6cda7" y="130.005971"/>
     <use style="fill:#8c564b;fill-opacity:0.8;stroke:#8c564b;stroke-linejoin:bevel;stroke-opacity:0.8;" x="132.322793" xlink:href="#m1d57c6cda7" y="130.000132"/>
     <use style="fill:#8c564b;fill-opacity:0.8;stroke:#8c564b;stroke-linejoin:bevel;stroke-opacity:0.8;" x="210.625518" xlink:href="#m1d57c6cda7" y="129.802064"/>
     <use style="fill:#8c564b;fill-opacity:0.8;stroke:#8c564b;stroke-linejoin:bevel;stroke-opacity:0.8;" x="254.066043" xlink:href="#m1d57c6cda7" y="129.352114"/>
     <use style="fill:#8c564b;fill-opacity:0.8;stroke:#8c564b;stroke-linejoin:bevel;stroke-opacity:0.8;" x="288.107269" xlink:href="#m1d57c6cda7" y="129.202122"/>
     <use style="fill:#8c564b;fill-opacity:0.8;stroke:#8c564b;stroke-linejoin:bevel;stroke-opacity:0.8;" x="332.941989" xlink:href="#m1d57c6cda7" y="129.321581"/>
    </g>
   </g>
   <g id="line2d_22">
    <path clip-path="url(#p3584f42b26)" d="M 54.244261 129.788785 
L 57.523058 129.621606 
L 60.801855 129.458728 
L 64.080652 129.300152 
L 67.359449 129.145862 
L 70.638245 128.995828 
L 73.917042 128.850006 
L 77.195839 128.708341 
L 80.474636 128.570764 
L 83.753432 128.4372 
L 87.032229 128.307561 
L 90.311026 128.181754 
L 93.589823 128.059677 
L 96.86862 127.941225 
L 100.147416 127.826284 
L 103.426213 127.714739 
L 106.70501 127.606471 
L 109.983807 127.501357 
L 113.262604 127.399274 
L 116.5414 127.300096 
L 119.820197 127.203696 
L 123.098994 127.109947 
L 126.377791 127.018722 
L 129.656588 126.929894 
L 132.935384 126.843335 
L 136.214181 126.758921 
L 139.492978 126.676526 
L 142.771775 126.596025 
L 146.050572 126.517296 
L 149.329368 126.440217 
L 152.608165 126.364666 
L 155.886962 126.290525 
L 159.165759 126.217673 
L 162.444555 126.145993 
L 165.723352 126.075369 
L 169.002149 126.005682 
L 172.280946 125.936819 
L 175.559743 125.868661 
L 178.838539 125.801093 
L 182.117336 125.733998 
L 185.396133 125.667257 
L 188.67493 125.60075 
L 191.953727 125.534354 
L 195.232523 125.467943 
L 198.51132 125.401384 
L 201.790117 125.33454 
L 205.068914 125.267265 
L 208.347711 125.199401 
L 211.626507 125.130778 
L 214.905304 125.061206 
L 218.184101 124.990475 
L 221.462898 124.918342 
L 224.741695 124.844529 
L 228.020491 124.768709 
L 231.299288 124.690494 
L 234.578085 124.609414 
L 237.856882 124.524896 
L 241.135678 124.436234 
L 244.414475 124.342546 
L 247.693272 124.242722 
L 250.972069 124.135353 
L 254.250866 124.018628 
L 257.529662 123.890207 
L 260.808459 123.747021 
L 264.087256 123.585001 
L 267.366053 123.398658 
L 270.64485 123.180435 
L 273.923646 122.91962 
L 277.202443 122.600422 
L 280.48124 122.198129 
L 283.760037 121.670238 
L 287.038834 120.957246 
L 290.31763 120.169238 
L 293.596427 119.334887 
L 296.875224 118.446562 
L 300.154021 117.51214 
L 303.432818 117.510974 
L 306.711614 117.510974 
L 309.990411 117.510974 
L 313.269208 117.510974 
L 316.548005 117.510974 
L 319.826801 117.510974 
L 323.105598 117.510974 
L 326.384395 117.510974 
L 329.663192 117.510974 
L 332.941989 117.510974 
" style="fill:none;stroke:#e377c2;stroke-linecap:square;"/>
   </g>
   <g id="line2d_23">
    <defs>
     <path d="M 0 -3 
L -0.673542 -0.927051 
L -2.85317 -0.927051 
L -1.089814 0.354102 
L -1.763356 2.427051 
L -0 1.145898 
L 1.763356 2.427051 
L 1.089814 0.354102 
L 2.85317 -0.927051 
L 0.673542 -0.927051 
z
" id="m747073e5dd" style="stroke:#e377c2;stroke-linejoin:bevel;stroke-opacity:0.8;"/>
    </defs>
    <g clip-path="url(#p3584f42b26)">
     <use style="fill:#e377c2;fill-opacity:0.8;stroke:#e377c2;stroke-linejoin:bevel;stroke-opacity:0.8;" x="54.244261" xlink:href="#m747073e5dd" y="129.788785"/>
     <use style="fill:#e377c2;fill-opacity:0.8;stroke:#e377c2;stroke-linejoin:bevel;stroke-opacity:0.8;" x="132.322793" xlink:href="#m747073e5dd" y="129.429582"/>
     <use style="fill:#e377c2;fill-opacity:0.8;stroke:#e377c2;stroke-linejoin:bevel;stroke-opacity:0.8;" x="210.625518" xlink:href="#m747073e5dd" y="125.369233"/>
     <use style="fill:#e377c2;fill-opacity:0.8;stroke:#e377c2;stroke-linejoin:bevel;stroke-opacity:0.8;" x="254.066043" xlink:href="#m747073e5dd" y="122.290122"/>
     <use style="fill:#e377c2;fill-opacity:0.8;stroke:#e377c2;stroke-linejoin:bevel;stroke-opacity:0.8;" x="288.107269" xlink:href="#m747073e5dd" y="117.446056"/>
     <use style="fill:#e377c2;fill-opacity:0.8;stroke:#e377c2;stroke-linejoin:bevel;stroke-opacity:0.8;" x="332.941989" xlink:href="#m747073e5dd" y="117.585437"/>
    </g>
   </g>
   <g id="patch_3">
    <path d="M 40.309375 135.88 
L 40.309375 7.2 
" style="fill:none;stroke:#000000;stroke-linecap:square;stroke-linejoin:miter;stroke-width:0.8;"/>
   </g>
   <g id="patch_4">
    <path d="M 346.876875 135.88 
L 346.876875 7.2 
" style="fill:none;stroke:#000000;stroke-linecap:square;stroke-linejoin:miter;stroke-width:0.8;"/>
   </g>
   <g id="patch_5">
    <path d="M 40.309375 135.88 
L 346.876875 135.88 
" style="fill:none;stroke:#000000;stroke-linecap:square;stroke-linejoin:miter;stroke-width:0.8;"/>
   </g>
   <g id="patch_6">
    <path d="M 40.309375 7.2 
L 346.876875 7.2 
" style="fill:none;stroke:#000000;stroke-linecap:square;stroke-linejoin:miter;stroke-width:0.8;"/>
   </g>
  </g>
  <g id="axes_2">
   <g id="matplotlib.axis_3">
    <g id="ytick_7">
     <g id="line2d_24">
      <defs>
       <path d="M 0 0 
L 3.5 0 
" id="mdbca58fa24" style="stroke:#000000;stroke-width:0.8;"/>
      </defs>
      <g>
       <use style="stroke:#000000;stroke-width:0.8;" x="346.876875" xlink:href="#mdbca58fa24" y="113.099442"/>
      </g>
     </g>
     <g id="text_14">
      <!-- 0.25 -->
      <g transform="translate(353.876875 115.962567)scale(0.08 -0.08)">
       <defs>
        <path d="M 266 2259 
Q 266 3072 433 3567 
Q 600 4063 929 4331 
Q 1259 4600 1759 4600 
Q 2128 4600 2406 4451 
Q 2684 4303 2865 4023 
Q 3047 3744 3150 3342 
Q 3253 2941 3253 2259 
Q 3253 1453 3087 958 
Q 2922 463 2592 192 
Q 2263 -78 1759 -78 
Q 1097 -78 719 397 
Q 266 969 266 2259 
z
M 844 2259 
Q 844 1131 1108 757 
Q 1372 384 1759 384 
Q 2147 384 2411 759 
Q 2675 1134 2675 2259 
Q 2675 3391 2411 3762 
Q 2147 4134 1753 4134 
Q 1366 4134 1134 3806 
Q 844 3388 844 2259 
z
" id="ArialMT-30" transform="scale(0.015625)"/>
        <path d="M 581 0 
L 581 641 
L 1222 641 
L 1222 0 
L 581 0 
z
" id="ArialMT-2e" transform="scale(0.015625)"/>
        <path d="M 3222 541 
L 3222 0 
L 194 0 
Q 188 203 259 391 
Q 375 700 629 1000 
Q 884 1300 1366 1694 
Q 2113 2306 2375 2664 
Q 2638 3022 2638 3341 
Q 2638 3675 2398 3904 
Q 2159 4134 1775 4134 
Q 1369 4134 1125 3890 
Q 881 3647 878 3216 
L 300 3275 
Q 359 3922 746 4261 
Q 1134 4600 1788 4600 
Q 2447 4600 2831 4234 
Q 3216 3869 3216 3328 
Q 3216 3053 3103 2787 
Q 2991 2522 2730 2228 
Q 2469 1934 1863 1422 
Q 1356 997 1212 845 
Q 1069 694 975 541 
L 3222 541 
z
" id="ArialMT-32" transform="scale(0.015625)"/>
        <path d="M 266 1200 
L 856 1250 
Q 922 819 1161 601 
Q 1400 384 1738 384 
Q 2144 384 2425 690 
Q 2706 997 2706 1503 
Q 2706 1984 2436 2262 
Q 2166 2541 1728 2541 
Q 1456 2541 1237 2417 
Q 1019 2294 894 2097 
L 366 2166 
L 809 4519 
L 3088 4519 
L 3088 3981 
L 1259 3981 
L 1013 2750 
Q 1425 3038 1878 3038 
Q 2478 3038 2890 2622 
Q 3303 2206 3303 1553 
Q 3303 931 2941 478 
Q 2500 -78 1738 -78 
Q 1113 -78 717 272 
Q 322 622 266 1200 
z
" id="ArialMT-35" transform="scale(0.015625)"/>
       </defs>
       <use xlink:href="#ArialMT-30"/>
       <use x="55.615234" xlink:href="#ArialMT-2e"/>
       <use x="83.398438" xlink:href="#ArialMT-32"/>
       <use x="139.013672" xlink:href="#ArialMT-35"/>
      </g>
     </g>
    </g>
    <g id="ytick_8">
     <g id="line2d_25">
      <g>
       <use style="stroke:#000000;stroke-width:0.8;" x="346.876875" xlink:href="#mdbca58fa24" y="87.702241"/>
      </g>
     </g>
     <g id="text_15">
      <!-- 0.50 -->
      <g transform="translate(353.876875 90.565366)scale(0.08 -0.08)">
       <use xlink:href="#ArialMT-30"/>
       <use x="55.615234" xlink:href="#ArialMT-2e"/>
       <use x="83.398438" xlink:href="#ArialMT-35"/>
       <use x="139.013672" xlink:href="#ArialMT-30"/>
      </g>
     </g>
    </g>
    <g id="ytick_9">
     <g id="line2d_26">
      <g>
       <use style="stroke:#000000;stroke-width:0.8;" x="346.876875" xlink:href="#mdbca58fa24" y="62.305041"/>
      </g>
     </g>
     <g id="text_16">
      <!-- 0.75 -->
      <g transform="translate(353.876875 65.168166)scale(0.08 -0.08)">
       <defs>
        <path d="M 303 3981 
L 303 4522 
L 3269 4522 
L 3269 4084 
Q 2831 3619 2401 2847 
Q 1972 2075 1738 1259 
Q 1569 684 1522 0 
L 944 0 
Q 953 541 1156 1306 
Q 1359 2072 1739 2783 
Q 2119 3494 2547 3981 
L 303 3981 
z
" id="ArialMT-37" transform="scale(0.015625)"/>
       </defs>
       <use xlink:href="#ArialMT-30"/>
       <use x="55.615234" xlink:href="#ArialMT-2e"/>
       <use x="83.398438" xlink:href="#ArialMT-37"/>
       <use x="139.013672" xlink:href="#ArialMT-35"/>
      </g>
     </g>
    </g>
    <g id="ytick_10">
     <g id="line2d_27">
      <g>
       <use style="stroke:#000000;stroke-width:0.8;" x="346.876875" xlink:href="#mdbca58fa24" y="36.90784"/>
      </g>
     </g>
     <g id="text_17">
      <!-- 1.00 -->
      <g transform="translate(353.876875 39.770965)scale(0.08 -0.08)">
       <defs>
        <path d="M 2384 0 
L 1822 0 
L 1822 3584 
Q 1619 3391 1289 3197 
Q 959 3003 697 2906 
L 697 3450 
Q 1169 3672 1522 3987 
Q 1875 4303 2022 4600 
L 2384 4600 
L 2384 0 
z
" id="ArialMT-31" transform="scale(0.015625)"/>
       </defs>
       <use xlink:href="#ArialMT-31"/>
       <use x="55.615234" xlink:href="#ArialMT-2e"/>
       <use x="83.398438" xlink:href="#ArialMT-30"/>
       <use x="139.013672" xlink:href="#ArialMT-30"/>
      </g>
     </g>
    </g>
    <g id="ytick_11">
     <g id="line2d_28">
      <g>
       <use style="stroke:#000000;stroke-width:0.8;" x="346.876875" xlink:href="#mdbca58fa24" y="11.510639"/>
      </g>
     </g>
     <g id="text_18">
      <!-- 1.25 -->
      <g transform="translate(353.876875 14.373764)scale(0.08 -0.08)">
       <use xlink:href="#ArialMT-31"/>
       <use x="55.615234" xlink:href="#ArialMT-2e"/>
       <use x="83.398438" xlink:href="#ArialMT-32"/>
       <use x="139.013672" xlink:href="#ArialMT-35"/>
      </g>
     </g>
    </g>
    <g id="text_19">
     <!-- Biomass (g/ml) -->
     <g transform="translate(380.725313 104.875937)rotate(-90)scale(0.1 -0.1)">
      <defs>
       <path d="M 469 0 
L 469 4581 
L 2188 4581 
Q 2713 4581 3030 4442 
Q 3347 4303 3526 4014 
Q 3706 3725 3706 3409 
Q 3706 3116 3547 2856 
Q 3388 2597 3066 2438 
Q 3481 2316 3704 2022 
Q 3928 1728 3928 1328 
Q 3928 1006 3792 729 
Q 3656 453 3456 303 
Q 3256 153 2954 76 
Q 2653 0 2216 0 
L 469 0 
z
M 1075 2656 
L 2066 2656 
Q 2469 2656 2644 2709 
Q 2875 2778 2992 2937 
Q 3109 3097 3109 3338 
Q 3109 3566 3000 3739 
Q 2891 3913 2687 3977 
Q 2484 4041 1991 4041 
L 1075 4041 
L 1075 2656 
z
M 1075 541 
L 2216 541 
Q 2509 541 2628 563 
Q 2838 600 2978 687 
Q 3119 775 3209 942 
Q 3300 1109 3300 1328 
Q 3300 1584 3169 1773 
Q 3038 1963 2805 2039 
Q 2572 2116 2134 2116 
L 1075 2116 
L 1075 541 
z
" id="ArialMT-42" transform="scale(0.015625)"/>
       <path d="M 197 991 
L 753 1078 
Q 800 744 1014 566 
Q 1228 388 1613 388 
Q 2000 388 2187 545 
Q 2375 703 2375 916 
Q 2375 1106 2209 1216 
Q 2094 1291 1634 1406 
Q 1016 1563 777 1677 
Q 538 1791 414 1992 
Q 291 2194 291 2438 
Q 291 2659 392 2848 
Q 494 3038 669 3163 
Q 800 3259 1026 3326 
Q 1253 3394 1513 3394 
Q 1903 3394 2198 3281 
Q 2494 3169 2634 2976 
Q 2775 2784 2828 2463 
L 2278 2388 
Q 2241 2644 2061 2787 
Q 1881 2931 1553 2931 
Q 1166 2931 1000 2803 
Q 834 2675 834 2503 
Q 834 2394 903 2306 
Q 972 2216 1119 2156 
Q 1203 2125 1616 2013 
Q 2213 1853 2448 1751 
Q 2684 1650 2818 1456 
Q 2953 1263 2953 975 
Q 2953 694 2789 445 
Q 2625 197 2315 61 
Q 2006 -75 1616 -75 
Q 969 -75 630 194 
Q 291 463 197 991 
z
" id="ArialMT-73" transform="scale(0.015625)"/>
       <path d="M 319 -275 
L 866 -356 
Q 900 -609 1056 -725 
Q 1266 -881 1628 -881 
Q 2019 -881 2231 -725 
Q 2444 -569 2519 -288 
Q 2563 -116 2559 434 
Q 2191 0 1641 0 
Q 956 0 581 494 
Q 206 988 206 1678 
Q 206 2153 378 2554 
Q 550 2956 876 3175 
Q 1203 3394 1644 3394 
Q 2231 3394 2613 2919 
L 2613 3319 
L 3131 3319 
L 3131 450 
Q 3131 -325 2973 -648 
Q 2816 -972 2473 -1159 
Q 2131 -1347 1631 -1347 
Q 1038 -1347 672 -1080 
Q 306 -813 319 -275 
z
M 784 1719 
Q 784 1066 1043 766 
Q 1303 466 1694 466 
Q 2081 466 2343 764 
Q 2606 1063 2606 1700 
Q 2606 2309 2336 2618 
Q 2066 2928 1684 2928 
Q 1309 2928 1046 2623 
Q 784 2319 784 1719 
z
" id="ArialMT-67" transform="scale(0.015625)"/>
       <path d="M 0 -78 
L 1328 4659 
L 1778 4659 
L 453 -78 
L 0 -78 
z
" id="ArialMT-2f" transform="scale(0.015625)"/>
       <path d="M 409 0 
L 409 4581 
L 972 4581 
L 972 0 
L 409 0 
z
" id="ArialMT-6c" transform="scale(0.015625)"/>
      </defs>
      <use xlink:href="#ArialMT-42"/>
      <use x="66.699219" xlink:href="#ArialMT-69"/>
      <use x="88.916016" xlink:href="#ArialMT-6f"/>
      <use x="144.53125" xlink:href="#ArialMT-6d"/>
      <use x="227.832031" xlink:href="#ArialMT-61"/>
      <use x="283.447266" xlink:href="#ArialMT-73"/>
      <use x="333.447266" xlink:href="#ArialMT-73"/>
      <use x="383.447266" xlink:href="#ArialMT-20"/>
      <use x="411.230469" xlink:href="#ArialMT-28"/>
      <use x="444.53125" xlink:href="#ArialMT-67"/>
      <use x="500.146484" xlink:href="#ArialMT-2f"/>
      <use x="527.929688" xlink:href="#ArialMT-6d"/>
      <use x="611.230469" xlink:href="#ArialMT-6c"/>
      <use x="633.447266" xlink:href="#ArialMT-29"/>
     </g>
    </g>
   </g>
   <g id="line2d_29">
    <path clip-path="url(#p3584f42b26)" d="M 54.244261 130.030909 
L 57.523058 129.506173 
L 60.801855 128.970461 
L 64.080652 128.422707 
L 67.359449 127.861796 
L 70.638245 127.28656 
L 73.917042 126.69578 
L 77.195839 126.088181 
L 80.474636 125.462433 
L 83.753432 124.817148 
L 87.032229 124.150882 
L 90.311026 123.462127 
L 93.589823 122.74932 
L 96.86862 122.010834 
L 100.147416 121.244981 
L 103.426213 120.450015 
L 106.70501 119.624125 
L 109.983807 118.765443 
L 113.262604 117.87204 
L 116.5414 116.941932 
L 119.820197 115.973078 
L 123.098994 114.963387 
L 126.377791 113.91072 
L 129.656588 112.812896 
L 132.935384 111.667697 
L 136.214181 110.472876 
L 139.492978 109.226168 
L 142.771775 107.925297 
L 146.050572 106.567991 
L 149.329368 105.151997 
L 152.608165 103.675096 
L 155.886962 102.135126 
L 159.165759 100.530002 
L 162.444555 98.857746 
L 165.723352 97.116514 
L 169.002149 95.304632 
L 172.280946 93.420633 
L 175.559743 91.463306 
L 178.838539 89.431739 
L 182.117336 87.325377 
L 185.396133 85.144083 
L 188.67493 82.888203 
L 191.953727 80.558641 
L 195.232523 78.156935 
L 198.51132 75.685343 
L 201.790117 73.146927 
L 205.068914 70.545647 
L 208.347711 67.88645 
L 211.626507 65.175355 
L 214.905304 62.419537 
L 218.184101 59.627393 
L 221.462898 56.808588 
L 224.741695 53.974079 
L 228.020491 51.136095 
L 231.299288 48.308074 
L 234.578085 45.504538 
L 237.856882 42.740905 
L 241.135678 40.033215 
L 244.414475 37.39779 
L 247.693272 34.850805 
L 250.972069 32.407808 
L 254.250866 30.083183 
L 257.529662 27.889623 
L 260.808459 25.837619 
L 264.087256 23.935029 
L 267.366053 22.186761 
L 270.64485 20.594573 
L 273.923646 19.157006 
L 277.202443 17.86933 
L 280.48124 16.723304 
L 283.760037 15.705992 
L 287.038834 14.821161 
L 290.31763 14.194978 
L 293.596427 13.743026 
L 296.875224 13.379713 
L 300.154021 13.049493 
L 303.432818 13.049091 
L 306.711614 13.049091 
L 309.990411 13.049091 
L 313.269208 13.049091 
L 316.548005 13.049091 
L 319.826801 13.049091 
L 323.105598 13.049091 
L 326.384395 13.049091 
L 329.663192 13.049091 
L 332.941989 13.049091 
" style="fill:none;stroke:#ff7f0e;stroke-linecap:square;"/>
   </g>
   <g id="line2d_30">
    <defs>
     <path d="M 0 -3 
L -0.673542 -0.927051 
L -2.85317 -0.927051 
L -1.089814 0.354102 
L -1.763356 2.427051 
L -0 1.145898 
L 1.763356 2.427051 
L 1.089814 0.354102 
L 2.85317 -0.927051 
L 0.673542 -0.927051 
z
" id="ma1f08a549b" style="stroke:#ff7f0e;stroke-linejoin:bevel;stroke-opacity:0.8;"/>
    </defs>
    <g clip-path="url(#p3584f42b26)">
     <use style="fill:#ff7f0e;fill-opacity:0.8;stroke:#ff7f0e;stroke-linejoin:bevel;stroke-opacity:0.8;" x="54.244261" xlink:href="#ma1f08a549b" y="130.030909"/>
     <use style="fill:#ff7f0e;fill-opacity:0.8;stroke:#ff7f0e;stroke-linejoin:bevel;stroke-opacity:0.8;" x="132.322793" xlink:href="#ma1f08a549b" y="105.480282"/>
     <use style="fill:#ff7f0e;fill-opacity:0.8;stroke:#ff7f0e;stroke-linejoin:bevel;stroke-opacity:0.8;" x="210.625518" xlink:href="#ma1f08a549b" y="79.236508"/>
     <use style="fill:#ff7f0e;fill-opacity:0.8;stroke:#ff7f0e;stroke-linejoin:bevel;stroke-opacity:0.8;" x="254.066043" xlink:href="#ma1f08a549b" y="65.691334"/>
     <use style="fill:#ff7f0e;fill-opacity:0.8;stroke:#ff7f0e;stroke-linejoin:bevel;stroke-opacity:0.8;" x="288.107269" xlink:href="#ma1f08a549b" y="61.458467"/>
     <use style="fill:#ff7f0e;fill-opacity:0.8;stroke:#ff7f0e;stroke-linejoin:bevel;stroke-opacity:0.8;" x="332.941989" xlink:href="#ma1f08a549b" y="61.458467"/>
    </g>
   </g>
   <g id="patch_7">
    <path d="M 40.309375 135.88 
L 40.309375 7.2 
" style="fill:none;stroke:#000000;stroke-linecap:square;stroke-linejoin:miter;stroke-width:0.8;"/>
   </g>
   <g id="patch_8">
    <path d="M 346.876875 135.88 
L 346.876875 7.2 
" style="fill:none;stroke:#000000;stroke-linecap:square;stroke-linejoin:miter;stroke-width:0.8;"/>
   </g>
   <g id="patch_9">
    <path d="M 40.309375 135.88 
L 346.876875 135.88 
" style="fill:none;stroke:#000000;stroke-linecap:square;stroke-linejoin:miter;stroke-width:0.8;"/>
   </g>
   <g id="patch_10">
    <path d="M 40.309375 7.2 
L 346.876875 7.2 
" style="fill:none;stroke:#000000;stroke-linecap:square;stroke-linejoin:miter;stroke-width:0.8;"/>
   </g>
  </g>
  <g id="legend_1">
   <g id="patch_11">
    <path d="M 398.396875 136.4 
L 453.784375 136.4 
Q 455.384375 136.4 455.384375 134.8 
L 455.384375 56.2925 
Q 455.384375 54.6925 453.784375 54.6925 
L 398.396875 54.6925 
Q 396.796875 54.6925 396.796875 56.2925 
L 396.796875 134.8 
Q 396.796875 136.4 398.396875 136.4 
z
" style="fill:#ffffff;opacity:0.8;stroke:#cccccc;stroke-linejoin:miter;"/>
   </g>
   <g id="line2d_31">
    <path d="M 399.996875 60.81875 
L 415.996875 60.81875 
" style="fill:none;stroke:#1f77b4;stroke-linecap:square;"/>
   </g>
   <g id="line2d_32"/>
   <g id="text_20">
    <!-- glc -->
    <g transform="translate(422.396875 63.61875)scale(0.08 -0.08)">
     <use xlink:href="#ArialMT-67"/>
     <use x="55.615234" xlink:href="#ArialMT-6c"/>
     <use x="77.832031" xlink:href="#ArialMT-63"/>
    </g>
   </g>
   <g id="line2d_33">
    <path d="M 399.996875 72.22875 
L 415.996875 72.22875 
" style="fill:none;stroke:#2ca02c;stroke-linecap:square;"/>
   </g>
   <g id="line2d_34"/>
   <g id="text_21">
    <!-- ac -->
    <g transform="translate(422.396875 75.02875)scale(0.08 -0.08)">
     <use xlink:href="#ArialMT-61"/>
     <use x="55.615234" xlink:href="#ArialMT-63"/>
    </g>
   </g>
   <g id="line2d_35">
    <path d="M 399.996875 83.545 
L 415.996875 83.545 
" style="fill:none;stroke:#d62728;stroke-linecap:square;"/>
   </g>
   <g id="line2d_36"/>
   <g id="text_22">
    <!-- for -->
    <g transform="translate(422.396875 86.345)scale(0.08 -0.08)">
     <defs>
      <path d="M 556 0 
L 556 2881 
L 59 2881 
L 59 3319 
L 556 3319 
L 556 3672 
Q 556 4006 616 4169 
Q 697 4388 901 4523 
Q 1106 4659 1475 4659 
Q 1713 4659 2000 4603 
L 1916 4113 
Q 1741 4144 1584 4144 
Q 1328 4144 1222 4034 
Q 1116 3925 1116 3625 
L 1116 3319 
L 1763 3319 
L 1763 2881 
L 1116 2881 
L 1116 0 
L 556 0 
z
" id="ArialMT-66" transform="scale(0.015625)"/>
     </defs>
     <use xlink:href="#ArialMT-66"/>
     <use x="27.783203" xlink:href="#ArialMT-6f"/>
     <use x="83.398438" xlink:href="#ArialMT-72"/>
    </g>
   </g>
   <g id="line2d_37">
    <path d="M 399.996875 94.86125 
L 415.996875 94.86125 
" style="fill:none;stroke:#9467bd;stroke-linecap:square;"/>
   </g>
   <g id="line2d_38"/>
   <g id="text_23">
    <!-- etoh -->
    <g transform="translate(422.396875 97.66125)scale(0.08 -0.08)">
     <use xlink:href="#ArialMT-65"/>
     <use x="55.615234" xlink:href="#ArialMT-74"/>
     <use x="83.398438" xlink:href="#ArialMT-6f"/>
     <use x="139.013672" xlink:href="#ArialMT-68"/>
    </g>
   </g>
   <g id="line2d_39">
    <path d="M 399.996875 106.1775 
L 415.996875 106.1775 
" style="fill:none;stroke:#8c564b;stroke-linecap:square;"/>
   </g>
   <g id="line2d_40"/>
   <g id="text_24">
    <!-- lac -->
    <g transform="translate(422.396875 108.9775)scale(0.08 -0.08)">
     <use xlink:href="#ArialMT-6c"/>
     <use x="22.216797" xlink:href="#ArialMT-61"/>
     <use x="77.832031" xlink:href="#ArialMT-63"/>
    </g>
   </g>
   <g id="line2d_41">
    <path d="M 399.996875 117.49375 
L 415.996875 117.49375 
" style="fill:none;stroke:#e377c2;stroke-linecap:square;"/>
   </g>
   <g id="line2d_42"/>
   <g id="text_25">
    <!-- succ -->
    <g transform="translate(422.396875 120.29375)scale(0.08 -0.08)">
     <defs>
      <path d="M 2597 0 
L 2597 488 
Q 2209 -75 1544 -75 
Q 1250 -75 995 37 
Q 741 150 617 320 
Q 494 491 444 738 
Q 409 903 409 1263 
L 409 3319 
L 972 3319 
L 972 1478 
Q 972 1038 1006 884 
Q 1059 663 1231 536 
Q 1403 409 1656 409 
Q 1909 409 2131 539 
Q 2353 669 2445 892 
Q 2538 1116 2538 1541 
L 2538 3319 
L 3100 3319 
L 3100 0 
L 2597 0 
z
" id="ArialMT-75" transform="scale(0.015625)"/>
     </defs>
     <use xlink:href="#ArialMT-73"/>
     <use x="50" xlink:href="#ArialMT-75"/>
     <use x="105.615234" xlink:href="#ArialMT-63"/>
     <use x="155.615234" xlink:href="#ArialMT-63"/>
    </g>
   </g>
   <g id="line2d_43">
    <path d="M 399.996875 128.81 
L 415.996875 128.81 
" style="fill:none;stroke:#ff7f0e;stroke-linecap:square;"/>
   </g>
   <g id="line2d_44"/>
   <g id="text_26">
    <!-- biomass -->
    <g transform="translate(422.396875 131.61)scale(0.08 -0.08)">
     <defs>
      <path d="M 941 0 
L 419 0 
L 419 4581 
L 981 4581 
L 981 2947 
Q 1338 3394 1891 3394 
Q 2197 3394 2470 3270 
Q 2744 3147 2920 2923 
Q 3097 2700 3197 2384 
Q 3297 2069 3297 1709 
Q 3297 856 2875 390 
Q 2453 -75 1863 -75 
Q 1275 -75 941 416 
L 941 0 
z
M 934 1684 
Q 934 1088 1097 822 
Q 1363 388 1816 388 
Q 2184 388 2453 708 
Q 2722 1028 2722 1663 
Q 2722 2313 2464 2622 
Q 2206 2931 1841 2931 
Q 1472 2931 1203 2611 
Q 934 2291 934 1684 
z
" id="ArialMT-62" transform="scale(0.015625)"/>
     </defs>
     <use xlink:href="#ArialMT-62"/>
     <use x="55.615234" xlink:href="#ArialMT-69"/>
     <use x="77.832031" xlink:href="#ArialMT-6f"/>
     <use x="133.447266" xlink:href="#ArialMT-6d"/>
     <use x="216.748047" xlink:href="#ArialMT-61"/>
     <use x="272.363281" xlink:href="#ArialMT-73"/>
     <use x="322.363281" xlink:href="#ArialMT-73"/>
    </g>
   </g>
  </g>
 </g>
 <defs>
  <clipPath id="p3584f42b26">
   <rect height="128.68" width="306.5675" x="40.309375" y="7.2"/>
  </clipPath>
 </defs>
</svg>
